<?xml version="1.0" encoding="UTF-8" standalone="no"?>
<!-- Created with Inkscape (http://www.inkscape.org/) -->

<svg
   xmlns:dc="http://purl.org/dc/elements/1.1/"
   xmlns:cc="http://creativecommons.org/ns#"
   xmlns:rdf="http://www.w3.org/1999/02/22-rdf-syntax-ns#"
   xmlns:svg="http://www.w3.org/2000/svg"
   xmlns="http://www.w3.org/2000/svg"
   xmlns:sodipodi="http://sodipodi.sourceforge.net/DTD/sodipodi-0.dtd"
   xmlns:inkscape="http://www.inkscape.org/namespaces/inkscape"
   version="1.1"
   id="svg2"
   xml:space="preserve"
   width="830.66669"
   height="614.66669"
   viewBox="0 0 830.66669 614.66669"
   sodipodi:docname="Fig5.svg"
   inkscape:version="0.92.4 (5da689c313, 2019-01-14)"><metadata
     id="metadata8"><rdf:RDF><cc:Work
         rdf:about=""><dc:format>image/svg+xml</dc:format><dc:type
           rdf:resource="http://purl.org/dc/dcmitype/StillImage" /><dc:title></dc:title></cc:Work></rdf:RDF></metadata><defs
     id="defs6" /><sodipodi:namedview
     pagecolor="#ffffff"
     bordercolor="#666666"
     borderopacity="1"
     objecttolerance="10"
     gridtolerance="10"
     guidetolerance="10"
     inkscape:pageopacity="0"
     inkscape:pageshadow="2"
     inkscape:window-width="702"
     inkscape:window-height="480"
     id="namedview4"
     showgrid="false"
     inkscape:zoom="0.38394793"
     inkscape:cx="415.33334"
     inkscape:cy="307.33334"
     inkscape:window-x="0"
     inkscape:window-y="0"
     inkscape:window-maximized="0"
     inkscape:current-layer="g10" /><g
     id="g10"
     inkscape:groupmode="layer"
     inkscape:label="ink_ext_XXXXXX"
     transform="matrix(1.3333333,0,0,-1.3333333,0,614.66667)"><path
       inkscape:connector-curvature="0"
       id="path18"
       style="fill:#ffffff;fill-opacity:1;fill-rule:nonzero;stroke:none;stroke-width:0.1"
       d="m 81,59.25 h 483 v 367.5 H 81 Z" /><path
       inkscape:connector-curvature="0"
       id="path20"
       style="fill:none;stroke:#262626;stroke-width:0.50024998;stroke-linecap:square;stroke-linejoin:round;stroke-miterlimit:10;stroke-dasharray:none;stroke-opacity:1"
       d="M 81,59.25 H 564" /><path
       inkscape:connector-curvature="0"
       id="path22"
       style="fill:none;stroke:#262626;stroke-width:0.50024998;stroke-linecap:square;stroke-linejoin:round;stroke-miterlimit:10;stroke-dasharray:none;stroke-opacity:1"
       d="M 81,426.75 H 564" /><path
       inkscape:connector-curvature="0"
       id="path24"
       style="fill:none;stroke:#262626;stroke-width:0.50024998;stroke-linecap:square;stroke-linejoin:round;stroke-miterlimit:10;stroke-dasharray:none;stroke-opacity:1"
       d="m 81,59.25 v 4.8301" /><path
       inkscape:connector-curvature="0"
       id="path26"
       style="fill:none;stroke:#262626;stroke-width:0.50024998;stroke-linecap:square;stroke-linejoin:round;stroke-miterlimit:10;stroke-dasharray:none;stroke-opacity:1"
       d="m 177.6,59.25 v 4.8301" /><path
       inkscape:connector-curvature="0"
       id="path28"
       style="fill:none;stroke:#262626;stroke-width:0.50024998;stroke-linecap:square;stroke-linejoin:round;stroke-miterlimit:10;stroke-dasharray:none;stroke-opacity:1"
       d="m 274.2,59.25 v 4.8301" /><path
       inkscape:connector-curvature="0"
       id="path30"
       style="fill:none;stroke:#262626;stroke-width:0.50024998;stroke-linecap:square;stroke-linejoin:round;stroke-miterlimit:10;stroke-dasharray:none;stroke-opacity:1"
       d="m 370.8,59.25 v 4.8301" /><path
       inkscape:connector-curvature="0"
       id="path32"
       style="fill:none;stroke:#262626;stroke-width:0.50024998;stroke-linecap:square;stroke-linejoin:round;stroke-miterlimit:10;stroke-dasharray:none;stroke-opacity:1"
       d="m 467.4,59.25 v 4.8301" /><path
       inkscape:connector-curvature="0"
       id="path34"
       style="fill:none;stroke:#262626;stroke-width:0.50024998;stroke-linecap:square;stroke-linejoin:round;stroke-miterlimit:10;stroke-dasharray:none;stroke-opacity:1"
       d="m 564,59.25 v 4.8301" /><path
       inkscape:connector-curvature="0"
       id="path36"
       style="fill:none;stroke:#262626;stroke-width:0.50024998;stroke-linecap:square;stroke-linejoin:round;stroke-miterlimit:10;stroke-dasharray:none;stroke-opacity:1"
       d="m 81,426.75 v -4.83" /><path
       inkscape:connector-curvature="0"
       id="path38"
       style="fill:none;stroke:#262626;stroke-width:0.50024998;stroke-linecap:square;stroke-linejoin:round;stroke-miterlimit:10;stroke-dasharray:none;stroke-opacity:1"
       d="m 177.6,426.75 v -4.83" /><path
       inkscape:connector-curvature="0"
       id="path40"
       style="fill:none;stroke:#262626;stroke-width:0.50024998;stroke-linecap:square;stroke-linejoin:round;stroke-miterlimit:10;stroke-dasharray:none;stroke-opacity:1"
       d="m 274.2,426.75 v -4.83" /><path
       inkscape:connector-curvature="0"
       id="path42"
       style="fill:none;stroke:#262626;stroke-width:0.50024998;stroke-linecap:square;stroke-linejoin:round;stroke-miterlimit:10;stroke-dasharray:none;stroke-opacity:1"
       d="m 370.8,426.75 v -4.83" /><path
       inkscape:connector-curvature="0"
       id="path44"
       style="fill:none;stroke:#262626;stroke-width:0.50024998;stroke-linecap:square;stroke-linejoin:round;stroke-miterlimit:10;stroke-dasharray:none;stroke-opacity:1"
       d="m 467.4,426.75 v -4.83" /><path
       inkscape:connector-curvature="0"
       id="path46"
       style="fill:none;stroke:#262626;stroke-width:0.50024998;stroke-linecap:square;stroke-linejoin:round;stroke-miterlimit:10;stroke-dasharray:none;stroke-opacity:1"
       d="m 564,426.75 v -4.83" /><g
       id="g48"><text
         id="text52"
         style="font-variant:normal;font-weight:normal;font-size:20.00020027px;font-family:Helvetica;-inkscape-font-specification:Helvetica;writing-mode:lr-tb;fill:#262626;fill-opacity:1;fill-rule:nonzero;stroke:none"
         transform="matrix(1,0,0,-1,75.375,33)"><tspan
           id="tspan50"
           sodipodi:role="line"
           y="0"
           x="0 90.974709 102.09482 187.57448 198.69458 284.17426 295.29434 380.77402 391.8941 477.37378 488.4939">01020304050</tspan></text>
<text
         id="text56"
         style="font-variant:normal;font-weight:normal;font-size:21.99970055px;font-family:Helvetica;-inkscape-font-specification:Helvetica;writing-mode:lr-tb;fill:#262626;fill-opacity:1;fill-rule:nonzero;stroke:none"
         transform="matrix(1,0,0,-1,258.75,5)"><tspan
           id="tspan54"
           sodipodi:role="line"
           y="0"
           x="0 15.883783 30.557583 46.441368 52.557281 64.789116 77.02095 95.346703 107.57853 119.81036">CPU number</tspan></text>
</g><path
       inkscape:connector-curvature="0"
       id="path58"
       style="fill:none;stroke:#262626;stroke-width:0.50024998;stroke-linecap:square;stroke-linejoin:round;stroke-miterlimit:10;stroke-dasharray:none;stroke-opacity:1"
       d="m 81,59.25 v 367.5" /><path
       inkscape:connector-curvature="0"
       id="path60"
       style="fill:none;stroke:#262626;stroke-width:0.50024998;stroke-linecap:square;stroke-linejoin:round;stroke-miterlimit:10;stroke-dasharray:none;stroke-opacity:1"
       d="m 564,59.25 v 367.5" /><path
       inkscape:connector-curvature="0"
       id="path62"
       style="fill:none;stroke:#262626;stroke-width:0.50024998;stroke-linecap:square;stroke-linejoin:round;stroke-miterlimit:10;stroke-dasharray:none;stroke-opacity:1"
       d="m 81,59.25 h 4.8301" /><path
       inkscape:connector-curvature="0"
       id="path64"
       style="fill:none;stroke:#262626;stroke-width:0.50024998;stroke-linecap:square;stroke-linejoin:round;stroke-miterlimit:10;stroke-dasharray:none;stroke-opacity:1"
       d="m 81,120.5 h 4.8301" /><path
       inkscape:connector-curvature="0"
       id="path66"
       style="fill:none;stroke:#262626;stroke-width:0.50024998;stroke-linecap:square;stroke-linejoin:round;stroke-miterlimit:10;stroke-dasharray:none;stroke-opacity:1"
       d="m 81,181.75 h 4.8301" /><path
       inkscape:connector-curvature="0"
       id="path68"
       style="fill:none;stroke:#262626;stroke-width:0.50024998;stroke-linecap:square;stroke-linejoin:round;stroke-miterlimit:10;stroke-dasharray:none;stroke-opacity:1"
       d="m 81,243 h 4.8301" /><path
       inkscape:connector-curvature="0"
       id="path70"
       style="fill:none;stroke:#262626;stroke-width:0.50024998;stroke-linecap:square;stroke-linejoin:round;stroke-miterlimit:10;stroke-dasharray:none;stroke-opacity:1"
       d="m 81,304.25 h 4.8301" /><path
       inkscape:connector-curvature="0"
       id="path72"
       style="fill:none;stroke:#262626;stroke-width:0.50024998;stroke-linecap:square;stroke-linejoin:round;stroke-miterlimit:10;stroke-dasharray:none;stroke-opacity:1"
       d="m 81,365.5 h 4.8301" /><path
       inkscape:connector-curvature="0"
       id="path74"
       style="fill:none;stroke:#262626;stroke-width:0.50024998;stroke-linecap:square;stroke-linejoin:round;stroke-miterlimit:10;stroke-dasharray:none;stroke-opacity:1"
       d="m 81,426.75 h 4.8301" /><path
       inkscape:connector-curvature="0"
       id="path76"
       style="fill:none;stroke:#262626;stroke-width:0.50024998;stroke-linecap:square;stroke-linejoin:round;stroke-miterlimit:10;stroke-dasharray:none;stroke-opacity:1"
       d="m 564,59.25 h -4.83" /><path
       inkscape:connector-curvature="0"
       id="path78"
       style="fill:none;stroke:#262626;stroke-width:0.50024998;stroke-linecap:square;stroke-linejoin:round;stroke-miterlimit:10;stroke-dasharray:none;stroke-opacity:1"
       d="m 564,120.5 h -4.83" /><path
       inkscape:connector-curvature="0"
       id="path80"
       style="fill:none;stroke:#262626;stroke-width:0.50024998;stroke-linecap:square;stroke-linejoin:round;stroke-miterlimit:10;stroke-dasharray:none;stroke-opacity:1"
       d="m 564,181.75 h -4.83" /><path
       inkscape:connector-curvature="0"
       id="path82"
       style="fill:none;stroke:#262626;stroke-width:0.50024998;stroke-linecap:square;stroke-linejoin:round;stroke-miterlimit:10;stroke-dasharray:none;stroke-opacity:1"
       d="m 564,243 h -4.83" /><path
       inkscape:connector-curvature="0"
       id="path84"
       style="fill:none;stroke:#262626;stroke-width:0.50024998;stroke-linecap:square;stroke-linejoin:round;stroke-miterlimit:10;stroke-dasharray:none;stroke-opacity:1"
       d="m 564,304.25 h -4.83" /><path
       inkscape:connector-curvature="0"
       id="path86"
       style="fill:none;stroke:#262626;stroke-width:0.50024998;stroke-linecap:square;stroke-linejoin:round;stroke-miterlimit:10;stroke-dasharray:none;stroke-opacity:1"
       d="m 564,365.5 h -4.83" /><path
       inkscape:connector-curvature="0"
       id="path88"
       style="fill:none;stroke:#262626;stroke-width:0.50024998;stroke-linecap:square;stroke-linejoin:round;stroke-miterlimit:10;stroke-dasharray:none;stroke-opacity:1"
       d="m 564,426.75 h -4.83" /><g
       id="g90"><text
         id="text106"
         style="font-variant:normal;font-weight:normal;font-size:20.00020027px;font-family:Helvetica;-inkscape-font-specification:Helvetica;writing-mode:lr-tb;fill:#262626;fill-opacity:1;fill-rule:nonzero;stroke:none"
         transform="matrix(1,0,0,-1,63.75,51.375)"><tspan
           id="tspan92"
           y="0"
           x="0">0</tspan><tspan
           id="tspan94"
           sodipodi:role="line"
           y="-61.25"
           x="-17.25 -6.129889 -0.56983322">0.5</tspan><tspan
           id="tspan96"
           y="-122.5"
           x="0">1</tspan><tspan
           id="tspan98"
           sodipodi:role="line"
           y="-183.75"
           x="-17.25 -6.129889 -0.56983322">1.5</tspan><tspan
           id="tspan100"
           y="-245"
           x="0">2</tspan><tspan
           id="tspan102"
           sodipodi:role="line"
           y="-306.25"
           x="-17.25 -6.129889 -0.56983322">2.5</tspan><tspan
           id="tspan104"
           y="-367.5"
           x="0">3</tspan></text>
<text
         id="text110"
         style="font-variant:normal;font-weight:normal;font-size:21.99970055px;font-family:Helvetica;-inkscape-font-specification:Helvetica;writing-mode:lr-tb;fill:#262626;fill-opacity:1;fill-rule:nonzero;stroke:none"
         transform="matrix(0,1,1,0,38.25,184.5)"><tspan
           id="tspan108"
           sodipodi:role="line"
           y="0"
           x="0 13.441816 18.32575 36.651501">Time</tspan></text>
<text
         id="text114"
         style="font-variant:normal;font-weight:normal;font-size:17.60020065px;font-family:Helvetica;-inkscape-font-specification:Helvetica;writing-mode:lr-tb;fill:#262626;fill-opacity:1;fill-rule:nonzero;stroke:none"
         transform="matrix(0,1,1,0,27.75,234)"><tspan
           id="tspan112"
           sodipodi:role="line"
           y="0"
           x="0 5.8608665">-1</tspan></text>
<text
         id="text118"
         style="font-variant:normal;font-weight:normal;font-size:21.99970055px;font-family:Helvetica;-inkscape-font-specification:Helvetica;writing-mode:lr-tb;fill:#262626;fill-opacity:1;fill-rule:nonzero;stroke:none"
         transform="matrix(0,1,1,0,38.25,255.86592)"><tspan
           id="tspan116"
           sodipodi:role="line"
           y="0"
           x="0 7.3259001 19.557734 25.673651 37.905483">(1/h)</tspan></text>
</g><path
       inkscape:connector-curvature="0"
       id="path120"
       style="fill:none;stroke:#0073bd;stroke-width:3;stroke-linecap:butt;stroke-linejoin:round;stroke-miterlimit:10;stroke-dasharray:none;stroke-opacity:1"
       d="m 90.6602,72.8199 9.6598,13.5582 19.32,26.8769 38.64,31.245 77.28,96.231 77.28,44.094 115.92,56.755 115.92,67.393" /><path
       inkscape:connector-curvature="0"
       id="path122"
       style="fill:#ffffff;fill-opacity:1;fill-rule:nonzero;stroke:none;stroke-width:0.1"
       d="m 95.6602,72.8195 c 0,2.7618 -2.2387,5.0004 -5,5.0004 -2.7618,0 -5.0004,-2.2386 -5.0004,-5.0004 0,-2.7613 2.2386,-5 5.0004,-5 2.7613,0 5,2.2387 5,5" /><path
       inkscape:connector-curvature="0"
       id="path124"
       style="fill:none;stroke:#0073bd;stroke-width:3;stroke-linecap:butt;stroke-linejoin:miter;stroke-miterlimit:10;stroke-dasharray:none;stroke-opacity:1"
       d="m 95.6602,72.8195 c 0,2.7618 -2.2387,5.0004 -5,5.0004 -2.7618,0 -5.0004,-2.2386 -5.0004,-5.0004 0,-2.7613 2.2386,-5 5.0004,-5 2.7613,0 5,2.2387 5,5 z" /><path
       inkscape:connector-curvature="0"
       id="path126"
       style="fill:#ffffff;fill-opacity:1;fill-rule:nonzero;stroke:none;stroke-width:0.1"
       d="m 105.32,86.3785 c 0,2.7613 -2.238,5 -5,5 -2.7614,0 -5.0001,-2.2387 -5.0001,-5 0,-2.7617 2.2387,-5.0004 5.0001,-5.0004 2.762,0 5,2.2387 5,5.0004" /><path
       inkscape:connector-curvature="0"
       id="path128"
       style="fill:none;stroke:#0073bd;stroke-width:3;stroke-linecap:butt;stroke-linejoin:miter;stroke-miterlimit:10;stroke-dasharray:none;stroke-opacity:1"
       d="m 105.32,86.3785 c 0,2.7613 -2.238,5 -5,5 -2.7614,0 -5.0001,-2.2387 -5.0001,-5 0,-2.7617 2.2387,-5.0004 5.0001,-5.0004 2.762,0 5,2.2387 5,5.0004 z" /><path
       inkscape:connector-curvature="0"
       id="path130"
       style="fill:#ffffff;fill-opacity:1;fill-rule:nonzero;stroke:none;stroke-width:0.1"
       d="m 124.64,113.254 c 0,2.762 -2.238,5.001 -5,5.001 -2.761,0 -5,-2.239 -5,-5.001 0,-2.761 2.239,-5 5,-5 2.762,0 5,2.239 5,5" /><path
       inkscape:connector-curvature="0"
       id="path132"
       style="fill:none;stroke:#0073bd;stroke-width:3;stroke-linecap:butt;stroke-linejoin:miter;stroke-miterlimit:10;stroke-dasharray:none;stroke-opacity:1"
       d="m 124.64,113.254 c 0,2.762 -2.238,5.001 -5,5.001 -2.761,0 -5,-2.239 -5,-5.001 0,-2.761 2.239,-5 5,-5 2.762,0 5,2.239 5,5 z" /><path
       inkscape:connector-curvature="0"
       id="path134"
       style="fill:#ffffff;fill-opacity:1;fill-rule:nonzero;stroke:none;stroke-width:0.1"
       d="m 163.28,144.5 c 0,2.762 -2.239,5.001 -5,5.001 -2.762,0 -5,-2.239 -5,-5.001 0,-2.761 2.238,-5 5,-5 2.761,0 5,2.239 5,5" /><path
       inkscape:connector-curvature="0"
       id="path136"
       style="fill:none;stroke:#0073bd;stroke-width:3;stroke-linecap:butt;stroke-linejoin:miter;stroke-miterlimit:10;stroke-dasharray:none;stroke-opacity:1"
       d="m 163.28,144.5 c 0,2.762 -2.239,5.001 -5,5.001 -2.762,0 -5,-2.239 -5,-5.001 0,-2.761 2.238,-5 5,-5 2.761,0 5,2.239 5,5 z" /><path
       inkscape:connector-curvature="0"
       id="path138"
       style="fill:#ffffff;fill-opacity:1;fill-rule:nonzero;stroke:none;stroke-width:0.1"
       d="m 240.56,240.732 c 0,2.761 -2.239,5 -5,5 -2.762,0 -5,-2.239 -5,-5 0,-2.762 2.238,-5.001 5,-5.001 2.761,0 5,2.239 5,5.001" /><path
       inkscape:connector-curvature="0"
       id="path140"
       style="fill:none;stroke:#0073bd;stroke-width:3;stroke-linecap:butt;stroke-linejoin:miter;stroke-miterlimit:10;stroke-dasharray:none;stroke-opacity:1"
       d="m 240.56,240.732 c 0,2.761 -2.239,5 -5,5 -2.762,0 -5,-2.239 -5,-5 0,-2.762 2.238,-5.001 5,-5.001 2.761,0 5,2.239 5,5.001 z" /><path
       inkscape:connector-curvature="0"
       id="path142"
       style="fill:#ffffff;fill-opacity:1;fill-rule:nonzero;stroke:none;stroke-width:0.1"
       d="m 317.84,284.825 c 0,2.762 -2.238,5.001 -5,5.001 -2.761,0 -5,-2.239 -5,-5.001 0,-2.761 2.239,-5 5,-5 2.762,0 5,2.239 5,5" /><path
       inkscape:connector-curvature="0"
       id="path144"
       style="fill:none;stroke:#0073bd;stroke-width:3;stroke-linecap:butt;stroke-linejoin:miter;stroke-miterlimit:10;stroke-dasharray:none;stroke-opacity:1"
       d="m 317.84,284.825 c 0,2.762 -2.238,5.001 -5,5.001 -2.761,0 -5,-2.239 -5,-5.001 0,-2.761 2.239,-5 5,-5 2.762,0 5,2.239 5,5 z" /><path
       inkscape:connector-curvature="0"
       id="path146"
       style="fill:#ffffff;fill-opacity:1;fill-rule:nonzero;stroke:none;stroke-width:0.1"
       d="m 433.76,341.58 c 0,2.762 -2.239,5 -5,5 -2.762,0 -5,-2.238 -5,-5 0,-2.761 2.238,-5 5,-5 2.761,0 5,2.239 5,5" /><path
       inkscape:connector-curvature="0"
       id="path148"
       style="fill:none;stroke:#0073bd;stroke-width:3;stroke-linecap:butt;stroke-linejoin:miter;stroke-miterlimit:10;stroke-dasharray:none;stroke-opacity:1"
       d="m 433.76,341.58 c 0,2.762 -2.239,5 -5,5 -2.762,0 -5,-2.238 -5,-5 0,-2.761 2.238,-5 5,-5 2.761,0 5,2.239 5,5 z" /><path
       inkscape:connector-curvature="0"
       id="path150"
       style="fill:#ffffff;fill-opacity:1;fill-rule:nonzero;stroke:none;stroke-width:0.1"
       d="m 549.68,408.972 c 0,2.762 -2.239,5.001 -5,5.001 -2.762,0 -5,-2.239 -5,-5.001 0,-2.761 2.238,-5 5,-5 2.761,0 5,2.239 5,5" /><path
       inkscape:connector-curvature="0"
       id="path152"
       style="fill:none;stroke:#0073bd;stroke-width:3;stroke-linecap:butt;stroke-linejoin:miter;stroke-miterlimit:10;stroke-dasharray:none;stroke-opacity:1"
       d="m 549.68,408.972 c 0,2.762 -2.239,5.001 -5,5.001 -2.762,0 -5,-2.239 -5,-5.001 0,-2.761 2.238,-5 5,-5 2.761,0 5,2.239 5,5 z" /></g></svg>