<?xml version="1.0" encoding="UTF-8" standalone="no"?>
<svg
   xmlns:dc="http://purl.org/dc/elements/1.1/"
   xmlns:cc="http://creativecommons.org/ns#"
   xmlns:rdf="http://www.w3.org/1999/02/22-rdf-syntax-ns#"
   xmlns:svg="http://www.w3.org/2000/svg"
   xmlns="http://www.w3.org/2000/svg"
   xmlns:sodipodi="http://sodipodi.sourceforge.net/DTD/sodipodi-0.dtd"
   xmlns:inkscape="http://www.inkscape.org/namespaces/inkscape"
   inkscape:version="1.0beta2 (2b71d25, 2019-12-03)"
   sodipodi:docname="Fig10a.svg"
   id="svg996"
   version="1.1"
   height="467"
   width="666"
   style="fill-opacity:1; color-rendering:auto; color-interpolation:auto; text-rendering:auto; stroke:black; stroke-linecap:square; stroke-miterlimit:10; shape-rendering:auto; stroke-opacity:1; fill:black; stroke-dasharray:none; font-weight:normal; stroke-width:1; font-family:'Dialog'; font-style:normal; stroke-linejoin:miter; font-size:12px; stroke-dashoffset:0; image-rendering:auto;">
  <metadata
     id="metadata1000">
    <rdf:RDF>
      <cc:Work
         rdf:about="">
        <dc:format>image/svg+xml</dc:format>
        <dc:type
           rdf:resource="http://purl.org/dc/dcmitype/StillImage" />
      </cc:Work>
    </rdf:RDF>
  </metadata>
  <sodipodi:namedview
     inkscape:current-layer="svg996"
     inkscape:window-maximized="1"
     inkscape:window-y="23"
     inkscape:window-x="0"
     inkscape:cy="233.5"
     inkscape:cx="333"
     inkscape:zoom="1.4389722"
     showgrid="false"
     id="namedview998"
     inkscape:window-height="1107"
     inkscape:window-width="2048"
     inkscape:pageshadow="2"
     inkscape:pageopacity="0"
     guidetolerance="10"
     gridtolerance="10"
     objecttolerance="10"
     borderopacity="1"
     inkscape:document-rotation="0"
     bordercolor="#666666"
     pagecolor="#ffffff" />
  <!--Generated by the Batik Graphics2D SVG Generator-->
  <defs
     id="genericDefs">
    <defs
       id="defs1">
      <clipPath
         clipPathUnits="userSpaceOnUse"
         id="clipPath1">
        <path
           d="M0 0 L666 0 L666 467 L0 467 L0 0 Z"
           id="path834" />
      </clipPath>
    </defs>
  </defs>
  <g
     style="color-interpolation:linearRGB;fill:#262626;stroke:#262626;stroke-width:0.5;stroke-linejoin:round;color-rendering:optimizeQuality;image-rendering:optimizeQuality;text-rendering:geometricPrecision"
     id="g872">
    <line
       y2="410"
       style="fill:none"
       x1="86.5"
       x2="602.5"
       y1="410"
       id="line848" />
    <line
       y2="35"
       style="fill:none"
       x1="86.5"
       x2="602.5"
       y1="35"
       id="line850" />
    <line
       y2="404.84"
       style="fill:none"
       x1="86.5"
       x2="86.5"
       y1="410"
       id="line852" />
    <line
       y2="404.84"
       style="fill:none"
       x1="201.1667"
       x2="201.1667"
       y1="410"
       id="line854" />
    <line
       y2="404.84"
       style="fill:none"
       x1="315.83331"
       x2="315.83331"
       y1="410"
       id="line856" />
    <line
       y2="404.84"
       style="fill:none"
       x1="430.5"
       x2="430.5"
       y1="410"
       id="line858" />
    <line
       y2="404.84"
       style="fill:none"
       x1="545.16669"
       x2="545.16669"
       y1="410"
       id="line860" />
    <line
       y2="40.16"
       style="fill:none"
       x1="86.5"
       x2="86.5"
       y1="35"
       id="line862" />
    <line
       y2="40.16"
       style="fill:none"
       x1="201.1667"
       x2="201.1667"
       y1="35"
       id="line864" />
    <line
       y2="40.16"
       style="fill:none"
       x1="315.83331"
       x2="315.83331"
       y1="35"
       id="line866" />
    <line
       y2="40.16"
       style="fill:none"
       x1="430.5"
       x2="430.5"
       y1="35"
       id="line868" />
    <line
       y2="40.16"
       style="fill:none"
       x1="545.16669"
       x2="545.16669"
       y1="35"
       id="line870" />
  </g>
  <g
     transform="translate(86.5,416)"
     style="font-size:20px;font-family:'Helvetica Neue';color-interpolation:linearRGB;fill:#262626;stroke:#262626;color-rendering:optimizeQuality;image-rendering:optimizeQuality;text-rendering:geometricPrecision"
     id="g876">
    <path
       style="stroke:none"
       d="m -3.36,13.02 q 0,-0.52 0.01,-1.15 0.01,-0.63 0.1,-1.26 0.09,-0.63 0.26,-1.23 0.17,-0.6 0.5,-1.05 0.33,-0.45 0.83,-0.73 0.5,-0.28 1.22,-0.28 0.72,0 1.22,0.28 0.5,0.28 0.83,0.73 0.33,0.45 0.5,1.05 0.17,0.6 0.26,1.23 0.09,0.63 0.1,1.26 0.01,0.63 0.01,1.15 0,0.8 -0.05,1.79 -0.05,0.99 -0.32,1.86 -0.27,0.87 -0.87,1.47 -0.6,0.6 -1.68,0.6 -1.08,0 -1.68,-0.6 -0.6,-0.6 -0.87,-1.47 -0.27,-0.87 -0.32,-1.86 -0.05,-0.99 -0.05,-1.79 z m -1.8,0.02 q 0,0.78 0.04,1.62 0.04,0.84 0.2,1.64 0.16,0.8 0.46,1.51 0.3,0.71 0.82,1.25 0.52,0.54 1.31,0.85 0.79,0.31 1.89,0.31 1.12,0 1.9,-0.31 0.78,-0.31 1.3,-0.85 0.52,-0.54 0.82,-1.25 0.3,-0.71 0.46,-1.51 0.16,-0.8 0.2,-1.64 0.04,-0.84 0.04,-1.62 0,-0.78 -0.04,-1.62 Q 4.2,10.58 4.04,9.78 3.88,8.98 3.58,8.26 3.28,7.54 2.76,7 2.24,6.46 1.45,6.14 0.66,5.82 -0.44,5.82 q -1.1,0 -1.89,0.32 -0.79,0.32 -1.31,0.86 -0.52,0.54 -0.82,1.26 -0.3,0.72 -0.46,1.52 -0.16,0.8 -0.2,1.64 -0.04,0.84 -0.04,1.62 z"
       id="path874"
       inkscape:connector-curvature="0" />
  </g>
  <g
     transform="translate(201.1667,416)"
     style="font-size:20px;font-family:'Helvetica Neue';color-interpolation:linearRGB;fill:#262626;stroke:#262626;color-rendering:optimizeQuality;image-rendering:optimizeQuality;text-rendering:geometricPrecision"
     id="g880">
    <path
       style="stroke:none"
       d="m -5.12,10.84 h 1.7 q -0.02,-0.64 0.13,-1.27 0.15,-0.63 0.49,-1.13 0.34,-0.5 0.87,-0.81 0.53,-0.31 1.27,-0.31 0.56,0 1.06,0.18 0.5,0.18 0.87,0.52 0.37,0.34 0.59,0.81 0.22,0.47 0.22,1.05 0,0.74 -0.23,1.3 -0.23,0.56 -0.68,1.04 -0.45,0.48 -1.13,0.95 -0.68,0.47 -1.58,1.03 -0.74,0.44 -1.42,0.94 -0.68,0.5 -1.22,1.16 -0.54,0.66 -0.89,1.55 -0.35,0.89 -0.45,2.15 h 9.26 v -1.5 h -7.28 q 0.12,-0.66 0.51,-1.17 0.39,-0.51 0.94,-0.95 0.55,-0.44 1.21,-0.83 0.66,-0.39 1.32,-0.79 Q 1.1,14.34 1.72,13.88 2.34,13.42 2.82,12.85 3.3,12.28 3.59,11.56 3.88,10.84 3.88,9.9 3.88,8.9 3.53,8.14 3.18,7.38 2.58,6.87 1.98,6.36 1.17,6.09 0.36,5.82 -0.56,5.82 q -1.12,0 -2,0.38 -0.88,0.38 -1.47,1.05 -0.59,0.67 -0.87,1.59 -0.28,0.92 -0.22,2 z"
       id="path878"
       inkscape:connector-curvature="0" />
  </g>
  <g
     transform="translate(315.8333,416)"
     style="font-size:20px;font-family:'Helvetica Neue';color-interpolation:linearRGB;fill:#262626;stroke:#262626;color-rendering:optimizeQuality;image-rendering:optimizeQuality;text-rendering:geometricPrecision"
     id="g884">
    <path
       style="stroke:none"
       d="M 0.78,15.18 H -3.98 L 0.74,8.24 h 0.04 z m 1.6,0 V 5.82 H 1.02 l -6.46,9.22 v 1.64 H 0.78 V 20 h 1.6 V 16.68 H 4.3 v -1.5 z"
       id="path882"
       inkscape:connector-curvature="0" />
  </g>
  <g
     transform="translate(430.5,416)"
     style="font-size:20px;font-family:'Helvetica Neue';color-interpolation:linearRGB;fill:#262626;stroke:#262626;color-rendering:optimizeQuality;image-rendering:optimizeQuality;text-rendering:geometricPrecision"
     id="g888">
    <path
       style="stroke:none"
       d="m 2.28,9.44 h 1.7 Q 3.82,7.68 2.78,6.75 1.74,5.82 -0.02,5.82 q -1.52,0 -2.52,0.64 -1,0.64 -1.6,1.7 -0.6,1.06 -0.85,2.43 -0.25,1.37 -0.25,2.83 0,1.12 0.17,2.32 0.17,1.2 0.69,2.2 0.52,1 1.48,1.64 0.96,0.64 2.54,0.64 1.34,0 2.25,-0.45 Q 2.8,19.32 3.35,18.63 3.9,17.94 4.14,17.1 4.38,16.26 4.38,15.48 4.38,14.5 4.08,13.66 3.78,12.82 3.23,12.2 2.68,11.58 1.87,11.23 1.06,10.88 0.04,10.88 q -1.16,0 -2.05,0.44 -0.89,0.44 -1.49,1.42 L -3.54,12.7 q 0.02,-0.82 0.16,-1.76 0.14,-0.94 0.51,-1.75 0.37,-0.81 1.03,-1.34 0.66,-0.53 1.74,-0.53 1.02,0 1.64,0.58 0.62,0.58 0.74,1.54 z m -2.56,2.94 q 0.72,0 1.26,0.26 0.54,0.26 0.9,0.69 0.36,0.43 0.53,1.02 0.17,0.59 0.17,1.25 0,0.62 -0.19,1.19 -0.19,0.57 -0.55,1.01 -0.36,0.44 -0.89,0.69 -0.53,0.25 -1.23,0.25 -0.7,0 -1.25,-0.25 -0.55,-0.25 -0.92,-0.67 -0.37,-0.42 -0.57,-1 -0.2,-0.58 -0.2,-1.24 0,-0.66 0.19,-1.25 0.19,-0.59 0.57,-1.02 0.38,-0.43 0.92,-0.68 0.54,-0.25 1.26,-0.25 z"
       id="path886"
       inkscape:connector-curvature="0" />
  </g>
  <g
     transform="translate(545.1667,416)"
     style="font-size:20px;font-family:'Helvetica Neue';color-interpolation:linearRGB;fill:#262626;stroke:#262626;color-rendering:optimizeQuality;image-rendering:optimizeQuality;text-rendering:geometricPrecision"
     id="g892">
    <path
       style="stroke:none"
       d="m -2.9,9.5 q 0,-0.54 0.2,-0.94 0.2,-0.4 0.53,-0.68 0.33,-0.28 0.79,-0.42 0.46,-0.14 0.96,-0.14 1.04,0 1.71,0.55 0.67,0.55 0.67,1.63 0,1.08 -0.66,1.68 -0.66,0.6 -1.68,0.6 -0.52,0 -0.98,-0.14 Q -1.82,11.5 -2.16,11.22 -2.5,10.94 -2.7,10.51 -2.9,10.08 -2.9,9.5 Z M -4.7,9.44 q 0,0.96 0.54,1.77 0.54,0.81 1.44,1.17 -1.2,0.42 -1.84,1.35 -0.64,0.93 -0.64,2.19 0,1.08 0.37,1.89 0.37,0.81 1.02,1.35 0.65,0.54 1.53,0.8 0.88,0.26 1.9,0.26 0.98,0 1.84,-0.28 0.86,-0.28 1.49,-0.83 0.63,-0.55 1,-1.35 0.37,-0.8 0.37,-1.84 Q 4.32,14.6 3.7,13.69 3.08,12.78 1.8,12.38 2.7,11.98 3.23,11.19 3.76,10.4 3.76,9.44 3.76,8.76 3.52,8.11 3.28,7.46 2.77,6.95 2.26,6.44 1.44,6.13 0.62,5.82 -0.54,5.82 -1.36,5.82 -2.11,6.06 -2.86,6.3 -3.44,6.76 -4.02,7.22 -4.36,7.89 -4.7,8.56 -4.7,9.44 Z M -3.4,16 q 0,-0.62 0.23,-1.12 0.23,-0.5 0.64,-0.86 0.41,-0.36 0.96,-0.55 0.55,-0.19 1.17,-0.19 0.6,0 1.13,0.21 0.53,0.21 0.93,0.57 0.4,0.36 0.63,0.85 0.23,0.49 0.23,1.07 0,0.6 -0.21,1.1 -0.21,0.5 -0.6,0.87 -0.39,0.37 -0.92,0.58 -0.53,0.21 -1.17,0.21 -1.32,0 -2.17,-0.73 Q -3.4,17.28 -3.4,16 Z"
       id="path890"
       inkscape:connector-curvature="0" />
  </g>
  <g
     transform="translate(344.5002,441)"
     style="font-size:22px;font-family:'Helvetica Neue';color-interpolation:linearRGB;fill:#262626;stroke:#262626;color-rendering:optimizeQuality;image-rendering:optimizeQuality;text-rendering:geometricPrecision"
     id="g896">
    <path
       style="stroke:none"
       d="M -23.016,19.57 V 21 h 9.592 v -1.65 h -7.26 l 6.952,-8.448 V 9.626 h -8.844 v 1.65 h 6.424 z m 20.68,5.764 h 1.43 q -1.562,-2.53 -2.233,-5.016 -0.671,-2.486 -0.671,-5.258 0,-2.706 0.66,-5.17 0.66,-2.464 2.244,-4.972 h -1.43 q -1.716,2.266 -2.585,4.906 -0.869,2.64 -0.869,5.236 0,1.452 0.242,2.772 0.242,1.32 0.693,2.574 0.451,1.254 1.089,2.475 0.638,1.221 1.43,2.453 z M 0.282,9.626 V 21 h 1.87 v -7.084 q 0,-0.33 0.165,-0.825 0.165,-0.495 0.528,-0.957 0.363,-0.462 0.946,-0.792 0.583,-0.33 1.397,-0.33 0.638,0 1.045,0.187 0.407,0.187 0.649,0.528 0.242,0.341 0.341,0.803 0.099,0.462 0.099,1.012 V 21 h 1.87 v -7.084 q 0,-1.32 0.792,-2.112 0.792,-0.792 2.178,-0.792 0.682,0 1.111,0.198 0.429,0.198 0.671,0.539 0.242,0.341 0.33,0.803 0.088,0.462 0.088,0.99 V 21 h 1.87 v -8.338 q 0,-0.88 -0.275,-1.507 -0.275,-0.627 -0.77,-1.023 -0.495,-0.396 -1.188,-0.583 -0.693,-0.187 -1.551,-0.187 -1.122,0 -2.057,0.506 -0.935,0.506 -1.507,1.43 Q 8.532,10.242 7.674,9.802 6.816,9.362 5.76,9.362 q -2.398,0 -3.674,1.936 H 2.042 V 9.626 Z m 17.16,15.708 h 1.408 q 1.716,-2.266 2.585,-4.895 0.869,-2.629 0.869,-5.225 0,-1.452 -0.242,-2.772 Q 21.82,11.122 21.369,9.857 20.918,8.592 20.28,7.371 19.642,6.15 18.85,4.918 h -1.408 q 1.54,2.53 2.211,5.027 0.671,2.497 0.671,5.269 0,2.684 -0.66,5.159 -0.66,2.475 -2.222,4.961 z"
       id="path894"
       inkscape:connector-curvature="0" />
  </g>
  <g
     style="color-interpolation:linearRGB;fill:#262626;stroke:#262626;stroke-width:0.5;stroke-linejoin:round;color-rendering:optimizeQuality;image-rendering:optimizeQuality;text-rendering:geometricPrecision"
     id="g926">
    <line
       y2="35"
       style="fill:none"
       x1="86.5"
       x2="86.5"
       y1="410"
       id="line898" />
    <line
       y2="35"
       style="fill:none"
       x1="602.5"
       x2="602.5"
       y1="410"
       id="line900" />
    <line
       y2="410"
       style="fill:none"
       x1="86.5"
       x2="91.660004"
       y1="410"
       id="line902" />
    <line
       y2="335"
       style="fill:none"
       x1="86.5"
       x2="91.660004"
       y1="335"
       id="line904" />
    <line
       y2="260"
       style="fill:none"
       x1="86.5"
       x2="91.660004"
       y1="260"
       id="line906" />
    <line
       y2="185"
       style="fill:none"
       x1="86.5"
       x2="91.660004"
       y1="185"
       id="line908" />
    <line
       y2="110"
       style="fill:none"
       x1="86.5"
       x2="91.660004"
       y1="110"
       id="line910" />
    <line
       y2="35"
       style="fill:none"
       x1="86.5"
       x2="91.660004"
       y1="35"
       id="line912" />
    <line
       y2="410"
       style="fill:none"
       x1="602.5"
       x2="597.34003"
       y1="410"
       id="line914" />
    <line
       y2="335"
       style="fill:none"
       x1="602.5"
       x2="597.34003"
       y1="335"
       id="line916" />
    <line
       y2="260"
       style="fill:none"
       x1="602.5"
       x2="597.34003"
       y1="260"
       id="line918" />
    <line
       y2="185"
       style="fill:none"
       x1="602.5"
       x2="597.34003"
       y1="185"
       id="line920" />
    <line
       y2="110"
       style="fill:none"
       x1="602.5"
       x2="597.34003"
       y1="110"
       id="line922" />
    <line
       y2="35"
       style="fill:none"
       x1="602.5"
       x2="597.34003"
       y1="35"
       id="line924" />
  </g>
  <g
     transform="translate(80.5,410)"
     style="font-size:20px;font-family:'Helvetica Neue';color-interpolation:linearRGB;fill:#262626;stroke:#262626;color-rendering:optimizeQuality;image-rendering:optimizeQuality;text-rendering:geometricPrecision"
     id="g930">
    <path
       style="stroke:none"
       d="m -33.12,-1.66 h 1.7 q -0.02,-0.64 0.13,-1.27 0.15,-0.63 0.49,-1.13 0.34,-0.5 0.87,-0.81 0.53,-0.31 1.27,-0.31 0.56,0 1.06,0.18 0.5,0.18 0.87,0.52 0.37,0.34 0.59,0.81 0.22,0.47 0.22,1.05 0,0.74 -0.23,1.3 -0.23,0.56 -0.68,1.04 -0.45,0.48 -1.13,0.95 -0.68,0.47 -1.58,1.03 -0.74,0.44 -1.42,0.94 -0.68,0.5 -1.22,1.16 -0.54,0.66 -0.89,1.55 -0.35,0.89 -0.45,2.15 h 9.26 V 6 h -7.28 q 0.12,-0.66 0.51,-1.17 0.39,-0.51 0.94,-0.95 0.55,-0.44 1.21,-0.83 0.66,-0.39 1.32,-0.79 0.66,-0.42 1.28,-0.88 0.62,-0.46 1.1,-1.03 0.48,-0.57 0.77,-1.29 0.29,-0.72 0.29,-1.66 0,-1 -0.35,-1.76 -0.35,-0.76 -0.95,-1.27 -0.6,-0.51 -1.41,-0.78 -0.81,-0.27 -1.73,-0.27 -1.12,0 -2,0.38 -0.88,0.38 -1.47,1.05 -0.59,0.67 -0.87,1.59 -0.28,0.92 -0.22,2 z m 19.64,-3.28 v -1.5 h -7 L -21.8,0.92 -20.34,1 q 0.5,-0.6 1.15,-0.97 0.65,-0.37 1.49,-0.37 0.72,0 1.31,0.24 0.59,0.24 1.01,0.67 0.42,0.43 0.65,1.02 0.23,0.59 0.23,1.29 0,0.84 -0.24,1.47 -0.24,0.63 -0.65,1.05 -0.41,0.42 -0.96,0.63 -0.55,0.21 -1.15,0.21 -0.64,0 -1.17,-0.19 -0.53,-0.19 -0.92,-0.54 -0.39,-0.35 -0.62,-0.82 -0.23,-0.47 -0.27,-1.01 h -1.7 q 0.02,0.96 0.38,1.72 0.36,0.76 0.98,1.27 0.62,0.51 1.43,0.78 0.81,0.27 1.73,0.27 1.24,0 2.17,-0.39 0.93,-0.39 1.55,-1.05 0.62,-0.66 0.93,-1.51 0.31,-0.85 0.31,-1.75 0,-1.22 -0.36,-2.13 -0.36,-0.91 -0.98,-1.52 -0.62,-0.61 -1.46,-0.91 -0.84,-0.3 -1.78,-0.3 -0.72,0 -1.45,0.25 -0.73,0.25 -1.19,0.77 l -0.04,-0.04 0.76,-4.08 z m 4.36,5.46 q 0,-0.52 0.01,-1.15 0.01,-0.63 0.1,-1.26 0.09,-0.63 0.26,-1.23 0.17,-0.6 0.5,-1.05 0.33,-0.45 0.83,-0.73 0.5,-0.28 1.22,-0.28 0.72,0 1.22,0.28 0.5,0.28 0.83,0.73 0.33,0.45 0.5,1.05 0.17,0.6 0.26,1.23 0.09,0.63 0.1,1.26 0.01,0.63 0.01,1.15 0,0.8 -0.05,1.79 -0.05,0.99 -0.32,1.86 -0.27,0.87 -0.87,1.47 -0.6,0.6 -1.68,0.6 -1.08,0 -1.68,-0.6 Q -8.48,5.04 -8.75,4.17 -9.02,3.3 -9.07,2.31 -9.12,1.32 -9.12,0.52 Z m -1.8,0.02 q 0,0.78 0.04,1.62 0.04,0.84 0.2,1.64 0.16,0.8 0.46,1.51 0.3,0.71 0.82,1.25 0.52,0.54 1.31,0.85 0.79,0.31 1.89,0.31 1.12,0 1.9,-0.31 Q -3.52,7.1 -3,6.56 -2.48,6.02 -2.18,5.31 -1.88,4.6 -1.72,3.8 -1.56,3 -1.52,2.16 q 0.04,-0.84 0.04,-1.62 0,-0.78 -0.04,-1.62 -0.04,-0.84 -0.2,-1.64 -0.16,-0.8 -0.46,-1.52 Q -2.48,-4.96 -3,-5.5 -3.52,-6.04 -4.31,-6.36 -5.1,-6.68 -6.2,-6.68 q -1.1,0 -1.89,0.32 -0.79,0.32 -1.31,0.86 -0.52,0.54 -0.82,1.26 -0.3,0.72 -0.46,1.52 -0.16,0.8 -0.2,1.64 -0.04,0.84 -0.04,1.62 z"
       id="path928"
       inkscape:connector-curvature="0" />
  </g>
  <g
     transform="translate(80.5,335)"
     style="font-size:20px;font-family:'Helvetica Neue';color-interpolation:linearRGB;fill:#262626;stroke:#262626;color-rendering:optimizeQuality;image-rendering:optimizeQuality;text-rendering:geometricPrecision"
     id="g934">
    <path
       style="stroke:none"
       d="m -29.64,-0.6 v 1.44 q 0.48,-0.06 1.02,-0.06 0.64,0 1.19,0.17 0.55,0.17 0.95,0.52 0.4,0.35 0.64,0.86 0.24,0.51 0.24,1.17 0,0.64 -0.25,1.15 -0.25,0.51 -0.67,0.86 -0.42,0.35 -0.98,0.54 -0.56,0.19 -1.18,0.19 -1.46,0 -2.22,-0.87 -0.76,-0.87 -0.8,-2.25 h -1.7 q -0.02,1.1 0.31,1.96 0.33,0.86 0.95,1.45 0.62,0.59 1.5,0.89 0.88,0.3 1.96,0.3 1,0 1.89,-0.27 0.89,-0.27 1.55,-0.81 0.66,-0.54 1.05,-1.35 0.39,-0.81 0.39,-1.87 0,-1.28 -0.63,-2.22 -0.63,-0.94 -1.93,-1.22 v -0.04 q 0.84,-0.38 1.4,-1.12 0.56,-0.74 0.56,-1.7 0,-0.98 -0.33,-1.7 -0.33,-0.72 -0.91,-1.18 -0.58,-0.46 -1.37,-0.69 -0.79,-0.23 -1.71,-0.23 -1.06,0 -1.87,0.34 -0.81,0.34 -1.35,0.94 -0.54,0.6 -0.83,1.44 -0.29,0.84 -0.33,1.86 h 1.7 q 0,-0.62 0.16,-1.18 0.16,-0.56 0.49,-0.98 0.33,-0.42 0.84,-0.67 0.51,-0.25 1.19,-0.25 1.08,0 1.8,0.57 0.72,0.57 0.72,1.71 0,0.56 -0.22,1 -0.22,0.44 -0.59,0.73 -0.37,0.29 -0.86,0.44 -0.49,0.15 -1.03,0.15 h -0.36 q -0.1,0 -0.2,0 -0.08,0 -0.18,-0.02 z m 9.4,1.12 q 0,-0.52 0.01,-1.15 0.01,-0.63 0.1,-1.26 0.09,-0.63 0.26,-1.23 0.17,-0.6 0.5,-1.05 0.33,-0.45 0.83,-0.73 0.5,-0.28 1.22,-0.28 0.72,0 1.22,0.28 0.5,0.28 0.83,0.73 0.33,0.45 0.5,1.05 0.17,0.6 0.26,1.23 0.09,0.63 0.1,1.26 0.01,0.63 0.01,1.15 0,0.8 -0.05,1.79 -0.05,0.99 -0.32,1.86 -0.27,0.87 -0.87,1.47 -0.6,0.6 -1.68,0.6 -1.08,0 -1.68,-0.6 -0.6,-0.6 -0.87,-1.47 -0.27,-0.87 -0.32,-1.86 -0.05,-0.99 -0.05,-1.79 z m -1.8,0.02 q 0,0.78 0.04,1.62 0.04,0.84 0.2,1.64 0.16,0.8 0.46,1.51 0.3,0.71 0.82,1.25 0.52,0.54 1.31,0.85 0.79,0.31 1.89,0.31 1.12,0 1.9,-0.31 0.78,-0.31 1.3,-0.85 0.52,-0.54 0.82,-1.25 0.3,-0.71 0.46,-1.51 0.16,-0.8 0.2,-1.64 0.04,-0.84 0.04,-1.62 0,-0.78 -0.04,-1.62 -0.04,-0.84 -0.2,-1.64 -0.16,-0.8 -0.46,-1.52 -0.3,-0.72 -0.82,-1.26 -0.52,-0.54 -1.31,-0.86 -0.79,-0.32 -1.89,-0.32 -1.1,0 -1.89,0.32 -0.79,0.32 -1.31,0.86 -0.52,0.54 -0.82,1.26 -0.3,0.72 -0.46,1.52 -0.16,0.8 -0.2,1.64 -0.04,0.84 -0.04,1.62 z M -9.12,0.52 q 0,-0.52 0.01,-1.15 0.01,-0.63 0.1,-1.26 0.09,-0.63 0.26,-1.23 0.17,-0.6 0.5,-1.05 0.33,-0.45 0.83,-0.73 0.5,-0.28 1.22,-0.28 0.72,0 1.22,0.28 0.5,0.28 0.83,0.73 0.33,0.45 0.5,1.05 0.17,0.6 0.26,1.23 0.09,0.63 0.1,1.26 0.01,0.63 0.01,1.15 0,0.8 -0.05,1.79 -0.05,0.99 -0.32,1.86 -0.27,0.87 -0.87,1.47 -0.6,0.6 -1.68,0.6 -1.08,0 -1.68,-0.6 Q -8.48,5.04 -8.75,4.17 -9.02,3.3 -9.07,2.31 -9.12,1.32 -9.12,0.52 Z m -1.8,0.02 q 0,0.78 0.04,1.62 0.04,0.84 0.2,1.64 0.16,0.8 0.46,1.51 0.3,0.71 0.82,1.25 0.52,0.54 1.31,0.85 0.79,0.31 1.89,0.31 1.12,0 1.9,-0.31 Q -3.52,7.1 -3,6.56 -2.48,6.02 -2.18,5.31 -1.88,4.6 -1.72,3.8 -1.56,3 -1.52,2.16 q 0.04,-0.84 0.04,-1.62 0,-0.78 -0.04,-1.62 -0.04,-0.84 -0.2,-1.64 -0.16,-0.8 -0.46,-1.52 Q -2.48,-4.96 -3,-5.5 -3.52,-6.04 -4.31,-6.36 -5.1,-6.68 -6.2,-6.68 q -1.1,0 -1.89,0.32 -0.79,0.32 -1.31,0.86 -0.52,0.54 -0.82,1.26 -0.3,0.72 -0.46,1.52 -0.16,0.8 -0.2,1.64 -0.04,0.84 -0.04,1.62 z"
       id="path932"
       inkscape:connector-curvature="0" />
  </g>
  <g
     transform="translate(80.5,260)"
     style="font-size:20px;font-family:'Helvetica Neue';color-interpolation:linearRGB;fill:#262626;stroke:#262626;color-rendering:optimizeQuality;image-rendering:optimizeQuality;text-rendering:geometricPrecision"
     id="g938">
    <path
       style="stroke:none"
       d="m -29.64,-0.6 v 1.44 q 0.48,-0.06 1.02,-0.06 0.64,0 1.19,0.17 0.55,0.17 0.95,0.52 0.4,0.35 0.64,0.86 0.24,0.51 0.24,1.17 0,0.64 -0.25,1.15 -0.25,0.51 -0.67,0.86 -0.42,0.35 -0.98,0.54 -0.56,0.19 -1.18,0.19 -1.46,0 -2.22,-0.87 -0.76,-0.87 -0.8,-2.25 h -1.7 q -0.02,1.1 0.31,1.96 0.33,0.86 0.95,1.45 0.62,0.59 1.5,0.89 0.88,0.3 1.96,0.3 1,0 1.89,-0.27 0.89,-0.27 1.55,-0.81 0.66,-0.54 1.05,-1.35 0.39,-0.81 0.39,-1.87 0,-1.28 -0.63,-2.22 -0.63,-0.94 -1.93,-1.22 v -0.04 q 0.84,-0.38 1.4,-1.12 0.56,-0.74 0.56,-1.7 0,-0.98 -0.33,-1.7 -0.33,-0.72 -0.91,-1.18 -0.58,-0.46 -1.37,-0.69 -0.79,-0.23 -1.71,-0.23 -1.06,0 -1.87,0.34 -0.81,0.34 -1.35,0.94 -0.54,0.6 -0.83,1.44 -0.29,0.84 -0.33,1.86 h 1.7 q 0,-0.62 0.16,-1.18 0.16,-0.56 0.49,-0.98 0.33,-0.42 0.84,-0.67 0.51,-0.25 1.19,-0.25 1.08,0 1.8,0.57 0.72,0.57 0.72,1.71 0,0.56 -0.22,1 -0.22,0.44 -0.59,0.73 -0.37,0.29 -0.86,0.44 -0.49,0.15 -1.03,0.15 h -0.36 q -0.1,0 -0.2,0 -0.08,0 -0.18,-0.02 z m 16.16,-4.34 v -1.5 h -7 L -21.8,0.92 -20.34,1 q 0.5,-0.6 1.15,-0.97 0.65,-0.37 1.49,-0.37 0.72,0 1.31,0.24 0.59,0.24 1.01,0.67 0.42,0.43 0.65,1.02 0.23,0.59 0.23,1.29 0,0.84 -0.24,1.47 -0.24,0.63 -0.65,1.05 -0.41,0.42 -0.96,0.63 -0.55,0.21 -1.15,0.21 -0.64,0 -1.17,-0.19 -0.53,-0.19 -0.92,-0.54 -0.39,-0.35 -0.62,-0.82 -0.23,-0.47 -0.27,-1.01 h -1.7 q 0.02,0.96 0.38,1.72 0.36,0.76 0.98,1.27 0.62,0.51 1.43,0.78 0.81,0.27 1.73,0.27 1.24,0 2.17,-0.39 0.93,-0.39 1.55,-1.05 0.62,-0.66 0.93,-1.51 0.31,-0.85 0.31,-1.75 0,-1.22 -0.36,-2.13 -0.36,-0.91 -0.98,-1.52 -0.62,-0.61 -1.46,-0.91 -0.84,-0.3 -1.78,-0.3 -0.72,0 -1.45,0.25 -0.73,0.25 -1.19,0.77 l -0.04,-0.04 0.76,-4.08 z m 4.36,5.46 q 0,-0.52 0.01,-1.15 0.01,-0.63 0.1,-1.26 0.09,-0.63 0.26,-1.23 0.17,-0.6 0.5,-1.05 0.33,-0.45 0.83,-0.73 0.5,-0.28 1.22,-0.28 0.72,0 1.22,0.28 0.5,0.28 0.83,0.73 0.33,0.45 0.5,1.05 0.17,0.6 0.26,1.23 0.09,0.63 0.1,1.26 0.01,0.63 0.01,1.15 0,0.8 -0.05,1.79 -0.05,0.99 -0.32,1.86 -0.27,0.87 -0.87,1.47 -0.6,0.6 -1.68,0.6 -1.08,0 -1.68,-0.6 Q -8.48,5.04 -8.75,4.17 -9.02,3.3 -9.07,2.31 -9.12,1.32 -9.12,0.52 Z m -1.8,0.02 q 0,0.78 0.04,1.62 0.04,0.84 0.2,1.64 0.16,0.8 0.46,1.51 0.3,0.71 0.82,1.25 0.52,0.54 1.31,0.85 0.79,0.31 1.89,0.31 1.12,0 1.9,-0.31 Q -3.52,7.1 -3,6.56 -2.48,6.02 -2.18,5.31 -1.88,4.6 -1.72,3.8 -1.56,3 -1.52,2.16 q 0.04,-0.84 0.04,-1.62 0,-0.78 -0.04,-1.62 -0.04,-0.84 -0.2,-1.64 -0.16,-0.8 -0.46,-1.52 Q -2.48,-4.96 -3,-5.5 -3.52,-6.04 -4.31,-6.36 -5.1,-6.68 -6.2,-6.68 q -1.1,0 -1.89,0.32 -0.79,0.32 -1.31,0.86 -0.52,0.54 -0.82,1.26 -0.3,0.72 -0.46,1.52 -0.16,0.8 -0.2,1.64 -0.04,0.84 -0.04,1.62 z"
       id="path936"
       inkscape:connector-curvature="0" />
  </g>
  <g
     transform="translate(80.5,185)"
     style="font-size:20px;font-family:'Helvetica Neue';color-interpolation:linearRGB;fill:#262626;stroke:#262626;color-rendering:optimizeQuality;image-rendering:optimizeQuality;text-rendering:geometricPrecision"
     id="g942">
    <path
       style="stroke:none"
       d="m -27.22,2.68 h -4.76 l 4.72,-6.94 h 0.04 z m 1.6,0 v -9.36 h -1.36 l -6.46,9.22 v 1.64 h 6.22 V 7.5 h 1.6 V 4.18 h 1.92 v -1.5 z m 5.38,-2.16 q 0,-0.52 0.01,-1.15 0.01,-0.63 0.1,-1.26 0.09,-0.63 0.26,-1.23 0.17,-0.6 0.5,-1.05 0.33,-0.45 0.83,-0.73 0.5,-0.28 1.22,-0.28 0.72,0 1.22,0.28 0.5,0.28 0.83,0.73 0.33,0.45 0.5,1.05 0.17,0.6 0.26,1.23 0.09,0.63 0.1,1.26 0.01,0.63 0.01,1.15 0,0.8 -0.05,1.79 -0.05,0.99 -0.32,1.86 -0.27,0.87 -0.87,1.47 -0.6,0.6 -1.68,0.6 -1.08,0 -1.68,-0.6 -0.6,-0.6 -0.87,-1.47 -0.27,-0.87 -0.32,-1.86 -0.05,-0.99 -0.05,-1.79 z m -1.8,0.02 q 0,0.78 0.04,1.62 0.04,0.84 0.2,1.64 0.16,0.8 0.46,1.51 0.3,0.71 0.82,1.25 0.52,0.54 1.31,0.85 0.79,0.31 1.89,0.31 1.12,0 1.9,-0.31 0.78,-0.31 1.3,-0.85 0.52,-0.54 0.82,-1.25 0.3,-0.71 0.46,-1.51 0.16,-0.8 0.2,-1.64 0.04,-0.84 0.04,-1.62 0,-0.78 -0.04,-1.62 -0.04,-0.84 -0.2,-1.64 -0.16,-0.8 -0.46,-1.52 -0.3,-0.72 -0.82,-1.26 -0.52,-0.54 -1.31,-0.86 -0.79,-0.32 -1.89,-0.32 -1.1,0 -1.89,0.32 -0.79,0.32 -1.31,0.86 -0.52,0.54 -0.82,1.26 -0.3,0.72 -0.46,1.52 -0.16,0.8 -0.2,1.64 -0.04,0.84 -0.04,1.62 z M -9.12,0.52 q 0,-0.52 0.01,-1.15 0.01,-0.63 0.1,-1.26 0.09,-0.63 0.26,-1.23 0.17,-0.6 0.5,-1.05 0.33,-0.45 0.83,-0.73 0.5,-0.28 1.22,-0.28 0.72,0 1.22,0.28 0.5,0.28 0.83,0.73 0.33,0.45 0.5,1.05 0.17,0.6 0.26,1.23 0.09,0.63 0.1,1.26 0.01,0.63 0.01,1.15 0,0.8 -0.05,1.79 -0.05,0.99 -0.32,1.86 -0.27,0.87 -0.87,1.47 -0.6,0.6 -1.68,0.6 -1.08,0 -1.68,-0.6 Q -8.48,5.04 -8.75,4.17 -9.02,3.3 -9.07,2.31 -9.12,1.32 -9.12,0.52 Z m -1.8,0.02 q 0,0.78 0.04,1.62 0.04,0.84 0.2,1.64 0.16,0.8 0.46,1.51 0.3,0.71 0.82,1.25 0.52,0.54 1.31,0.85 0.79,0.31 1.89,0.31 1.12,0 1.9,-0.31 Q -3.52,7.1 -3,6.56 -2.48,6.02 -2.18,5.31 -1.88,4.6 -1.72,3.8 -1.56,3 -1.52,2.16 q 0.04,-0.84 0.04,-1.62 0,-0.78 -0.04,-1.62 -0.04,-0.84 -0.2,-1.64 -0.16,-0.8 -0.46,-1.52 Q -2.48,-4.96 -3,-5.5 -3.52,-6.04 -4.31,-6.36 -5.1,-6.68 -6.2,-6.68 q -1.1,0 -1.89,0.32 -0.79,0.32 -1.31,0.86 -0.52,0.54 -0.82,1.26 -0.3,0.72 -0.46,1.52 -0.16,0.8 -0.2,1.64 -0.04,0.84 -0.04,1.62 z"
       id="path940"
       inkscape:connector-curvature="0" />
  </g>
  <g
     transform="translate(80.5,110)"
     style="font-size:20px;font-family:'Helvetica Neue';color-interpolation:linearRGB;fill:#262626;stroke:#262626;color-rendering:optimizeQuality;image-rendering:optimizeQuality;text-rendering:geometricPrecision"
     id="g946">
    <path
       style="stroke:none"
       d="m -27.22,2.68 h -4.76 l 4.72,-6.94 h 0.04 z m 1.6,0 v -9.36 h -1.36 l -6.46,9.22 v 1.64 h 6.22 V 7.5 h 1.6 V 4.18 h 1.92 v -1.5 z m 12.14,-7.62 v -1.5 h -7 L -21.8,0.92 -20.34,1 q 0.5,-0.6 1.15,-0.97 0.65,-0.37 1.49,-0.37 0.72,0 1.31,0.24 0.59,0.24 1.01,0.67 0.42,0.43 0.65,1.02 0.23,0.59 0.23,1.29 0,0.84 -0.24,1.47 -0.24,0.63 -0.65,1.05 -0.41,0.42 -0.96,0.63 -0.55,0.21 -1.15,0.21 -0.64,0 -1.17,-0.19 -0.53,-0.19 -0.92,-0.54 -0.39,-0.35 -0.62,-0.82 -0.23,-0.47 -0.27,-1.01 h -1.7 q 0.02,0.96 0.38,1.72 0.36,0.76 0.98,1.27 0.62,0.51 1.43,0.78 0.81,0.27 1.73,0.27 1.24,0 2.17,-0.39 0.93,-0.39 1.55,-1.05 0.62,-0.66 0.93,-1.51 0.31,-0.85 0.31,-1.75 0,-1.22 -0.36,-2.13 -0.36,-0.91 -0.98,-1.52 -0.62,-0.61 -1.46,-0.91 -0.84,-0.3 -1.78,-0.3 -0.72,0 -1.45,0.25 -0.73,0.25 -1.19,0.77 l -0.04,-0.04 0.76,-4.08 z m 4.36,5.46 q 0,-0.52 0.01,-1.15 0.01,-0.63 0.1,-1.26 0.09,-0.63 0.26,-1.23 0.17,-0.6 0.5,-1.05 0.33,-0.45 0.83,-0.73 0.5,-0.28 1.22,-0.28 0.72,0 1.22,0.28 0.5,0.28 0.83,0.73 0.33,0.45 0.5,1.05 0.17,0.6 0.26,1.23 0.09,0.63 0.1,1.26 0.01,0.63 0.01,1.15 0,0.8 -0.05,1.79 -0.05,0.99 -0.32,1.86 -0.27,0.87 -0.87,1.47 -0.6,0.6 -1.68,0.6 -1.08,0 -1.68,-0.6 Q -8.48,5.04 -8.75,4.17 -9.02,3.3 -9.07,2.31 -9.12,1.32 -9.12,0.52 Z m -1.8,0.02 q 0,0.78 0.04,1.62 0.04,0.84 0.2,1.64 0.16,0.8 0.46,1.51 0.3,0.71 0.82,1.25 0.52,0.54 1.31,0.85 0.79,0.31 1.89,0.31 1.12,0 1.9,-0.31 Q -3.52,7.1 -3,6.56 -2.48,6.02 -2.18,5.31 -1.88,4.6 -1.72,3.8 -1.56,3 -1.52,2.16 q 0.04,-0.84 0.04,-1.62 0,-0.78 -0.04,-1.62 -0.04,-0.84 -0.2,-1.64 -0.16,-0.8 -0.46,-1.52 Q -2.48,-4.96 -3,-5.5 -3.52,-6.04 -4.31,-6.36 -5.1,-6.68 -6.2,-6.68 q -1.1,0 -1.89,0.32 -0.79,0.32 -1.31,0.86 -0.52,0.54 -0.82,1.26 -0.3,0.72 -0.46,1.52 -0.16,0.8 -0.2,1.64 -0.04,0.84 -0.04,1.62 z"
       id="path944"
       inkscape:connector-curvature="0" />
  </g>
  <g
     transform="translate(80.5,35)"
     style="font-size:20px;font-family:'Helvetica Neue';color-interpolation:linearRGB;fill:#262626;stroke:#262626;color-rendering:optimizeQuality;image-rendering:optimizeQuality;text-rendering:geometricPrecision"
     id="g950">
    <path
       style="stroke:none"
       d="m -24.6,-4.94 v -1.5 h -7 l -1.32,7.36 1.46,0.08 q 0.5,-0.6 1.15,-0.97 0.65,-0.37 1.49,-0.37 0.72,0 1.31,0.24 0.59,0.24 1.01,0.67 0.42,0.43 0.65,1.02 0.23,0.59 0.23,1.29 0,0.84 -0.24,1.47 -0.24,0.63 -0.65,1.05 -0.41,0.42 -0.96,0.63 -0.55,0.21 -1.15,0.21 -0.64,0 -1.17,-0.19 -0.53,-0.19 -0.92,-0.54 -0.39,-0.35 -0.62,-0.82 -0.23,-0.47 -0.27,-1.01 h -1.7 q 0.02,0.96 0.38,1.72 0.36,0.76 0.98,1.27 0.62,0.51 1.43,0.78 0.81,0.27 1.73,0.27 1.24,0 2.17,-0.39 0.93,-0.39 1.55,-1.05 0.62,-0.66 0.93,-1.51 0.31,-0.85 0.31,-1.75 0,-1.22 -0.36,-2.13 -0.36,-0.91 -0.98,-1.52 -0.62,-0.61 -1.46,-0.91 -0.84,-0.3 -1.78,-0.3 -0.72,0 -1.45,0.25 -0.73,0.25 -1.19,0.77 l -0.04,-0.04 0.76,-4.08 z m 4.36,5.46 q 0,-0.52 0.01,-1.15 0.01,-0.63 0.1,-1.26 0.09,-0.63 0.26,-1.23 0.17,-0.6 0.5,-1.05 0.33,-0.45 0.83,-0.73 0.5,-0.28 1.22,-0.28 0.72,0 1.22,0.28 0.5,0.28 0.83,0.73 0.33,0.45 0.5,1.05 0.17,0.6 0.26,1.23 0.09,0.63 0.1,1.26 0.01,0.63 0.01,1.15 0,0.8 -0.05,1.79 -0.05,0.99 -0.32,1.86 -0.27,0.87 -0.87,1.47 -0.6,0.6 -1.68,0.6 -1.08,0 -1.68,-0.6 -0.6,-0.6 -0.87,-1.47 -0.27,-0.87 -0.32,-1.86 -0.05,-0.99 -0.05,-1.79 z m -1.8,0.02 q 0,0.78 0.04,1.62 0.04,0.84 0.2,1.64 0.16,0.8 0.46,1.51 0.3,0.71 0.82,1.25 0.52,0.54 1.31,0.85 0.79,0.31 1.89,0.31 1.12,0 1.9,-0.31 0.78,-0.31 1.3,-0.85 0.52,-0.54 0.82,-1.25 0.3,-0.71 0.46,-1.51 0.16,-0.8 0.2,-1.64 0.04,-0.84 0.04,-1.62 0,-0.78 -0.04,-1.62 -0.04,-0.84 -0.2,-1.64 -0.16,-0.8 -0.46,-1.52 -0.3,-0.72 -0.82,-1.26 -0.52,-0.54 -1.31,-0.86 -0.79,-0.32 -1.89,-0.32 -1.1,0 -1.89,0.32 -0.79,0.32 -1.31,0.86 -0.52,0.54 -0.82,1.26 -0.3,0.72 -0.46,1.52 -0.16,0.8 -0.2,1.64 -0.04,0.84 -0.04,1.62 z M -9.12,0.52 q 0,-0.52 0.01,-1.15 0.01,-0.63 0.1,-1.26 0.09,-0.63 0.26,-1.23 0.17,-0.6 0.5,-1.05 0.33,-0.45 0.83,-0.73 0.5,-0.28 1.22,-0.28 0.72,0 1.22,0.28 0.5,0.28 0.83,0.73 0.33,0.45 0.5,1.05 0.17,0.6 0.26,1.23 0.09,0.63 0.1,1.26 0.01,0.63 0.01,1.15 0,0.8 -0.05,1.79 -0.05,0.99 -0.32,1.86 -0.27,0.87 -0.87,1.47 -0.6,0.6 -1.68,0.6 -1.08,0 -1.68,-0.6 Q -8.48,5.04 -8.75,4.17 -9.02,3.3 -9.07,2.31 -9.12,1.32 -9.12,0.52 Z m -1.8,0.02 q 0,0.78 0.04,1.62 0.04,0.84 0.2,1.64 0.16,0.8 0.46,1.51 0.3,0.71 0.82,1.25 0.52,0.54 1.31,0.85 0.79,0.31 1.89,0.31 1.12,0 1.9,-0.31 Q -3.52,7.1 -3,6.56 -2.48,6.02 -2.18,5.31 -1.88,4.6 -1.72,3.8 -1.56,3 -1.52,2.16 q 0.04,-0.84 0.04,-1.62 0,-0.78 -0.04,-1.62 -0.04,-0.84 -0.2,-1.64 -0.16,-0.8 -0.46,-1.52 Q -2.48,-4.96 -3,-5.5 -3.52,-6.04 -4.31,-6.36 -5.1,-6.68 -6.2,-6.68 q -1.1,0 -1.89,0.32 -0.79,0.32 -1.31,0.86 -0.52,0.54 -0.82,1.26 -0.3,0.72 -0.46,1.52 -0.16,0.8 -0.2,1.64 -0.04,0.84 -0.04,1.62 z"
       id="path948"
       inkscape:connector-curvature="0" />
  </g>
  <g
     transform="rotate(-90,145.5,116.5)"
     style="font-size:22px;font-family:mwb_cmmi10;color-interpolation:linearRGB;fill:#262626;stroke:#262626;color-rendering:optimizeQuality;image-rendering:optimizeQuality;text-rendering:geometricPrecision"
     id="g954">
    <path
       style="stroke:none"
       d="m 4.1094,0.25 q -0.9688,0 -1.7266,-0.4688 -0.7578,-0.4687 -1.1719,-1.2656 -0.414,-0.7968 -0.414,-1.75 0,-1.0156 0.4609,-2.1484 0.461,-1.1328 1.2578,-2.0625 0.7969,-0.9297 1.8125,-1.4844 1.0157,-0.5547 2.0781,-0.5547 h 5.5469 q 0.2188,0 0.3828,0.1485 0.1641,0.1484 0.1641,0.414 0,0.3125 -0.2344,0.5547 -0.2344,0.2422 -0.5625,0.2422 H 9.0312 q 0.625,0.9531 0.625,2.2969 0,1.0937 -0.4296,2.1719 Q 8.7969,-2.5781 8.0312,-1.6953 7.2656,-0.8125 6.2578,-0.2812 5.25,0.25 4.1094,0.25 Z m 0.0312,-0.5781 q 1.2032,0 2.1328,-0.9453 0.9297,-0.9454 1.4219,-2.3047 0.4922,-1.3594 0.4922,-2.5157 0,-0.9374 -0.5234,-1.4843 -0.5235,-0.5469 -1.461,-0.5469 -1.2656,0 -2.164,0.8594 -0.8985,0.8594 -1.3438,2.164 -0.4453,1.3047 -0.4453,2.5078 0,0.9376 0.5,1.6016 0.5,0.6641 1.3906,0.6641 z"
       id="path952"
       inkscape:connector-curvature="0" />
  </g>
  <g
     transform="rotate(-90,144.5,104.5)"
     style="font-size:17.6px;font-family:'Helvetica Neue';color-interpolation:linearRGB;fill:#262626;stroke:#262626;color-rendering:optimizeQuality;image-rendering:optimizeQuality;text-rendering:geometricPrecision"
     id="g958">
    <path
       style="stroke:none"
       d="M 3.5728,-4.7872 0.1584,0 H 1.9712 L 4.5056,-3.7664 7.04,0 h 1.9184 l -3.52,-4.9104 3.1328,-4.1888 H 6.776 L 4.5056,-5.9136 2.3232,-9.0992 H 0.4048 Z"
       id="path956"
       inkscape:connector-curvature="0" />
  </g>
  <g
     transform="rotate(-90,134,105)"
     style="font-size:22px;font-family:'Helvetica Neue';color-interpolation:linearRGB;fill:#262626;stroke:#262626;color-rendering:optimizeQuality;image-rendering:optimizeQuality;text-rendering:geometricPrecision"
     id="g962">
    <path
       style="stroke:none"
       d="m 10.604,4.334 h 1.43 Q 10.472,1.804 9.801,-0.682 9.13,-3.168 9.13,-5.94 q 0,-2.706 0.66,-5.17 0.66,-2.464 2.244,-4.972 h -1.43 q -1.716,2.266 -2.585,4.906 -0.869,2.64 -0.869,5.236 0,1.452 0.242,2.772 0.242,1.32 0.693,2.574 0.451,1.254 1.089,2.475 0.638,1.221 1.43,2.453 z m 2.618,-15.708 V 0 h 1.87 v -7.084 q 0,-0.33 0.165,-0.825 0.165,-0.495 0.528,-0.957 0.363,-0.462 0.946,-0.792 0.583,-0.33 1.397,-0.33 0.638,0 1.045,0.187 0.407,0.187 0.649,0.528 0.242,0.341 0.341,0.803 0.099,0.462 0.099,1.012 V 0 h 1.87 v -7.084 q 0,-1.32 0.792,-2.112 0.792,-0.792 2.178,-0.792 0.682,0 1.111,0.198 0.429,0.198 0.671,0.539 0.242,0.341 0.33,0.803 0.088,0.462 0.088,0.99 V 0 h 1.87 v -8.338 q 0,-0.88 -0.275,-1.507 -0.275,-0.627 -0.77,-1.023 -0.495,-0.396 -1.188,-0.583 -0.693,-0.187 -1.551,-0.187 -1.122,0 -2.057,0.506 -0.935,0.506 -1.507,1.43 -0.352,-1.056 -1.21,-1.496 -0.858,-0.44 -1.914,-0.44 -2.398,0 -3.674,1.936 h -0.044 v -1.672 z m 18.766,0 V 0 h 1.87 v -7.084 q 0,-0.33 0.165,-0.825 0.165,-0.495 0.528,-0.957 0.363,-0.462 0.946,-0.792 0.583,-0.33 1.397,-0.33 0.638,0 1.045,0.187 0.407,0.187 0.649,0.528 0.242,0.341 0.341,0.803 0.099,0.462 0.099,1.012 V 0 h 1.87 v -7.084 q 0,-1.32 0.792,-2.112 0.792,-0.792 2.178,-0.792 0.682,0 1.111,0.198 0.429,0.198 0.671,0.539 0.242,0.341 0.33,0.803 0.088,0.462 0.088,0.99 V 0 h 1.87 v -8.338 q 0,-0.88 -0.275,-1.507 -0.275,-0.627 -0.77,-1.023 -0.495,-0.396 -1.188,-0.583 -0.693,-0.187 -1.551,-0.187 -1.122,0 -2.057,0.506 -0.935,0.506 -1.507,1.43 -0.352,-1.056 -1.21,-1.496 -0.858,-0.44 -1.914,-0.44 -2.398,0 -3.674,1.936 h -0.044 v -1.672 z m 17.16,15.708 h 1.408 q 1.716,-2.266 2.585,-4.895 0.869,-2.629 0.869,-5.225 0,-1.452 -0.242,-2.772 -0.242,-1.32 -0.693,-2.585 -0.451,-1.265 -1.089,-2.486 -0.638,-1.221 -1.43,-2.453 h -1.408 q 1.54,2.53 2.211,5.027 0.671,2.497 0.671,5.269 0,2.684 -0.66,5.159 -0.66,2.475 -2.222,4.961 z"
       id="path960"
       inkscape:connector-curvature="0" />
  </g>
  <g
     style="color-interpolation:linearRGB;fill:#0072bd;stroke:#0072bd;stroke-width:3;stroke-linecap:butt;stroke-linejoin:round;color-rendering:optimizeQuality;image-rendering:optimizeQuality;text-rendering:geometricPrecision"
     id="g968">
    <path
       d="m 87.0784,395.1927 h 0.2893 0.2892 l 0.2892,-10e-5 0.2892,-1e-4 0.2893,-10e-5 0.2892,-3e-4 0.2892,-5e-4 0.2892,-6e-4 0.2892,-8e-4 0.2893,-9e-4 0.2892,-10e-4 0.2892,-0.001 0.2892,-0.002 0.2893,-0.002 0.2892,-0.002 0.2892,-0.002 0.2892,-0.003 0.2892,-0.003 0.2893,-0.003 0.2892,-0.004 0.2892,-0.004 0.2892,-0.004 0.2893,-0.004 0.2892,-0.005 0.2892,-0.005 0.2892,-0.005 0.2892,-0.005 0.2893,-0.005 0.2892,-0.006 0.2892,-0.006 0.2892,-0.006 0.2893,-0.006 0.2892,-0.006 0.2892,-0.007 0.2892,-0.007 0.2892,-0.007 0.2893,-0.007 0.2892,-0.007 0.2892,-0.008 0.2892,-0.008 0.2893,-0.008 0.2892,-0.008 0.2892,-0.009 0.2892,-0.009 0.2892,-0.009 0.2893,-0.009 0.2892,-0.01 0.2892,-0.01 0.2892,-0.01 0.2893,-0.01 0.2892,-0.0103 0.2892,-0.0105 0.2892,-0.0107 0.2892,-0.0109 0.2893,-0.011 0.2892,-0.0114 0.2892,-0.0114 0.2892,-0.0118 0.2893,-0.0119 0.2892,-0.0121 0.2892,-0.0123 0.2892,-0.0126 0.2892,-0.0127 0.2893,-0.013 0.2892,-0.0132 0.2892,-0.0133 0.2892,-0.0136 0.2893,-0.0137 0.2892,-0.014 0.2892,-0.0142 0.2892,-0.0144 0.2892,-0.0146 0.2893,-0.0148 0.2892,-0.015 0.2892,-0.0152 0.2892,-0.0154 0.2893,-0.0157 0.2892,-0.0158 0.2892,-0.0161 0.2892,-0.0162 0.2892,-0.0164 0.2893,-0.0167 0.2892,-0.0169 0.2892,-0.017 0.2892,-0.0173 0.2893,-0.0175 0.2892,-0.0176 0.2892,-0.018 0.2892,-0.018 0.2892,-0.0183 0.2893,-0.0185 0.2892,-0.0187 0.2892,-0.0189 0.2892,-0.0192 0.2893,-0.0193 0.2892,-0.0195 0.2892,-0.0197 0.2892,-0.02 0.2892,-0.0201 0.2893,-0.0203 0.2892,-0.0206 0.2892,-0.0207 0.2892,-0.021 0.2893,-0.0211 0.2892,-0.0214 0.2892,-0.0216 0.2892,-0.0218 0.2892,-0.0219 0.2893,-0.0222 0.2892,-0.0223 0.2892,-0.0226 0.2892,-0.0228 0.2893,-0.0231 0.2892,-0.0231 0.2892,-0.0234 0.2892,-0.0236 0.2892,-0.0239 0.2893,-0.0239 0.2892,-0.0243 0.2892,-0.0244 0.2892,-0.0247 0.2893,-0.0248 0.2892,-0.025 0.2892,-0.0252 0.2892,-0.0255 0.2892,-0.0256 0.2893,-0.0259 0.2892,-0.026 0.2892,-0.0263 0.2892,-0.0265 0.2893,-0.0266 0.2892,-0.0269 0.2892,-0.027 0.2892,-0.0273 0.2892,-0.0275 0.2893,-0.0277 0.2892,-0.0278 0.2892,-0.0282 0.2892,-0.0282 0.2893,-0.0285 0.2892,-0.0287 0.2892,-0.0289 0.2892,-0.0291 0.2892,-0.0293 0.2893,-0.0296 0.2892,-0.0296 0.2892,-0.0299 0.2892,-0.0302 0.2893,-0.0303 0.2892,-0.0305 0.2892,-0.0308 0.2892,-0.0309 0.2893,-0.0311 0.2892,-0.0313 0.2892,-0.0316 0.2892,-0.0318 0.2892,-0.0319 0.2893,-0.0322 0.2892,-0.0323 0.2892,-0.0325 0.2892,-0.0328 0.2892,-0.0329 0.2893,-0.0332 0.2892,-0.0334 0.2892,-0.0336 0.2892,-0.0337 0.2893,-0.034 0.2892,-0.0342 0.2892,-0.0344 0.2892,-0.0345 0.2892,-0.0348 0.2893,-0.035 0.2892,-0.0352 0.2892,-0.0354 0.2892,-0.0356 0.2893,-0.0358 0.2892,-0.036 0.2892,-0.0362 0.2892,-0.0364 0.2892,-0.0367 0.2893,-0.0368 0.2892,-0.037 0.2892,-0.0372 0.2892,-0.0375 0.2893,-0.0376 0.2892,-0.0378 0.2892,-0.038 0.2892,-0.0382 0.2892,-0.0385 0.2893,-0.0386 0.2892,-0.0389 0.2892,-0.039 0.2892,-0.0392 0.2893,-0.0395 0.2892,-0.0396 0.2892,-0.0399 0.2892,-0.04 0.2893,-0.0403 0.2892,-0.0405 0.2892,-0.0406 0.2892,-0.0409 0.2892,-0.0411 0.2893,-0.0412 0.2892,-0.0416 0.2892,-0.0416 0.2892,-0.0419 0.2892,-0.0421 0.2893,-0.0423 0.2892,-0.0425 0.2892,-0.0427 0.2892,-0.0429 0.2893,-0.043 0.2892,-0.0433 0.2892,-0.0435 0.2892,-0.0437 0.2892,-0.0439 0.2893,-0.0441 0.2892,-0.0443 0.2892,-0.0446 0.2892,-0.0447 0.2893,-0.0449 0.2892,-0.0451 0.2892,-0.0453 0.2892,-0.0456 0.2892,-0.0457 0.2893,-0.0459 0.2892,-0.0461 0.2892,-0.0464 0.2892,-0.0465 0.2893,-0.0468 0.2892,-0.0469 0.2892,-0.0471 0.2892,-0.0473 0.2893,-0.0476 0.2892,-0.0478 0.2892,-0.0479 0.2892,-0.0481 0.2892,-0.0485 0.2893,-0.0485 0.2892,-0.0487 0.2892,-0.049 0.2892,-0.0492 0.2893,-0.0494 0.2892,-0.0495 0.2892,-0.0498 0.2892,-0.0499 0.2892,-0.0502 0.2893,-0.0504 0.2892,-0.0506 0.2892,-0.0508 0.2892,-0.0509 0.2892,-0.0512 0.2893,-0.0514 0.2892,-0.0516 0.2892,-0.0518 0.2892,-0.052 0.2893,-0.0522 0.2892,-0.0524 0.2892,-0.0526 0.2892,-0.0528 0.2892,-0.053 0.2893,-0.0532 0.2892,-0.0534 0.2892,-0.0536 0.2892,-0.0538 0.2893,-0.0541 0.2892,-0.0542 0.2892,-0.0544 0.2892,-0.0546 0.2892,-0.0548 0.2893,-0.0551 0.2892,-0.0552 0.2892,-0.0554 0.2892,-0.0556 0.2893,-0.0559 0.2892,-0.056 0.2892,-0.0563 0.2892,-0.0564 0.2893,-0.0567 0.2892,-0.0568 0.2892,-0.0571 0.2892,-0.0571 0.2892,-0.0575 0.2893,-0.0577 0.2892,-0.0579 0.2892,-0.058 0.2892,-0.0582 0.2893,-0.0585 0.2892,-0.0587 0.2892,-0.0588 0.2892,-0.0591 0.2892,-0.0593 0.2893,-0.0594 0.2892,-0.0597 0.2892,-0.0599 0.2892,-0.06 0.2892,-0.0603 0.2893,-0.0605 0.2892,-0.0607 0.2892,-0.0609 0.2892,-0.061 0.2893,-0.0613 0.2892,-0.0615 0.2892,-0.0617 0.2892,-0.0619 0.2893,-0.0621 0.2892,-0.0623 0.2892,-0.0624 0.2892,-0.0628 0.2892,-0.0629 0.2893,-0.063 0.2892,-0.0633 0.2892,-0.0635 0.2892,-0.0638 0.2892,-0.0639 0.2893,-0.0641 0.2892,-0.0643 0.2892,-0.0645 0.2892,-0.0647 0.2893,-0.0649 0.2892,-0.0651 0.2892,-0.0654 0.2892,-0.0655 0.2893,-0.0657 0.2892,-0.0659 0.2892,-0.0661 0.2892,-0.0664 0.2892,-0.0665 0.2893,-0.0667 0.2892,-0.0669 0.2892,-0.0672 0.2892,-0.0673 0.2893,-0.0675 0.2892,-0.0678 0.2892,-0.0679 0.2892,-0.0681 0.2892,-0.0684 0.2893,-0.0685 0.2892,-0.0688 0.2892,-0.0689 0.2892,-0.0692 0.2892,-0.0693 0.2893,-0.0696 0.2892,-0.0697 0.2892,-0.07 0.2892,-0.0701 0.2893,-0.0704 0.2892,-0.0705 0.2892,-0.0708 0.2892,-0.0709 0.2892,-0.0712 0.2893,-0.0713 0.2892,-0.0716 0.2892,-0.0718 0.2892,-0.0719 0.2893,-0.0722 0.2892,-0.0724 0.2892,-0.0725 0.2892,-0.0728 0.2893,-0.0729 0.2892,-0.0732 0.2892,-0.0734 0.2892,-0.0736 0.2892,-0.0737 0.2893,-0.074 0.2892,-0.0742 0.2892,-0.0744 0.2892,-0.0746 0.2893,-0.0747 0.2892,-0.075 0.2892,-0.0751 0.2892,-0.0754 0.2892,-0.0756 0.2893,-0.0758 0.2892,-0.076 0.2892,-0.0762 0.2892,-0.0764 0.2892,-0.0766 0.2893,-0.0767 0.2892,-0.077 0.2892,-0.0772 0.2892,-0.0774 0.2893,-0.0776 0.2892,-0.0778 0.2892,-0.078 0.2892,-0.0782 0.2892,-0.0784 0.2893,-0.0785 0.2892,-0.0789 0.2892,-0.0789 0.2892,-0.0792 0.2893,-0.0794 0.2892,-0.0797 0.2892,-0.0797 0.2892,-0.0801 0.2893,-0.0802 0.2892,-0.0803 0.2892,-0.0807 0.2892,-0.0808 0.2892,-0.0809 0.2893,-0.0813 0.2892,-0.0813 0.2892,-0.0816 0.2892,-0.0819 0.2893,-0.082 0.2892,-0.0821 0.2892,-0.0825 0.2892,-0.0826 0.2892,-0.0828 0.2893,-0.083 0.2892,-0.0832 0.2892,-0.0834 0.2892,-0.0836 0.2893,-0.0838 0.2892,-0.084 0.2892,-0.0842 0.2892,-0.0844 0.2892,-0.0846 0.2893,-0.0849 0.2892,-0.085 0.2892,-0.0852 0.2892,-0.0854 0.2893,-0.0856 0.2892,-0.0858 0.2892,-0.086 0.2892,-0.0862 0.2892,-0.0865 0.2893,-0.0865 0.2892,-0.0869 0.2892,-0.087 0.2892,-0.0872 0.2893,-0.0874 0.2892,-0.0876 0.2892,-0.0878 0.2892,-0.088 0.2892,-0.0883 0.2893,-0.0884 0.2892,-0.0886 0.2892,-0.0888 0.2892,-0.089 0.2892,-0.0892 0.2893,-0.0894 0.2892,-0.0896 0.2892,-0.0898 0.2892,-0.09 0.2893,-0.0902 0.2892,-0.0905 0.2892,-0.0906 0.2892,-0.0908 0.2892,-0.091 0.2893,-0.0912 0.2892,-0.0914 0.2892,-0.0916 0.2892,-0.0918 0.2893,-0.092 0.2892,-0.0922 0.2892,-0.0924 0.2892,-0.0926 0.2893,-0.0928 0.2892,-0.093 0.2892,-0.0932 0.2892,-0.0935 0.2892,-0.0935 0.2893,-0.0939 0.2892,-0.094 0.2892,-0.0942 0.2892,-0.0944 0.2892,-0.0946 0.2893,-0.0948 0.2892,-0.095 0.2892,-0.0952 0.2892,-0.0953 0.2893,-0.0956 0.2892,-0.0959 0.2892,-0.096 0.2892,-0.0961 0.2892,-0.0964 0.2893,-0.0966 0.2892,-0.0968 0.2892,-0.097 0.2892,-0.0972 0.2893,-0.0974 0.2892,-0.0976 0.2892,-0.0978 0.2892,-0.0979 0.2893,-0.0982 0.2892,-0.0984 0.2892,-0.0986 0.2892,-0.0988 0.2892,-0.099 0.2893,-0.0991 0.2892,-0.0994 0.2892,-0.0996 0.2892,-0.0997 0.2893,-0.1 0.2892,-0.1002 0.2892,-0.1004 0.2892,-0.1005 0.2892,-0.1008 0.2893,-0.101 0.2892,-0.1012 0.2892,-0.1013 0.2892,-0.1016 0.2893,-0.1017 0.2892,-0.102 0.2892,-0.1021 0.2892,-0.1024 0.2892,-0.1025 0.2893,-0.1028 0.2892,-0.103 0.2892,-0.1031 0.2892,-0.1034 0.2892,-0.1035 0.2893,-0.1038 0.2892,-0.1039 0.2892,-0.1041 0.2892,-0.1044 0.2893,-0.1045 0.2892,-0.1047 0.2892,-0.105 0.2892,-0.1051 0.2893,-0.1053 0.2892,-0.1056 0.2892,-0.1057 0.2892,-0.1059 0.2893,-0.1062 0.2892,-0.1063 0.2892,-0.1065 0.2892,-0.1067 0.2892,-0.1069 0.2893,-0.1072 0.2892,-0.1073 0.2892,-0.1074 0.2892,-0.1078 0.2892,-0.1078 0.2893,-0.1082 0.2892,-0.1083 0.2892,-0.1085 0.2892,-0.1086 0.2893,-0.109 0.2892,-0.109 0.2892,-0.1093 0.2892,-0.1095 0.2892,-0.1097 0.2893,-0.1099 0.2892,-0.11 0.2892,-0.1103 0.2892,-0.1105 0.2893,-0.1106 0.2892,-0.1109 0.2892,-0.1111 0.2892,-0.1112 0.2892,-0.1115 0.2893,-0.1117 0.2892,-0.1118 0.2892,-0.1121 0.2892,-0.1122 0.2893,-0.1124 0.2892,-0.1127 0.2892,-0.1128 0.2892,-0.113 0.2892,-0.1133 0.2893,-0.1134 0.2892,-0.1137 0.2892,-0.1138 0.2892,-0.114 0.2892,-0.1142 0.2893,-0.1144 0.2892,-0.1147 0.2892,-0.1148 0.2892,-0.115 0.2893,-0.1151 0.2892,-0.1154 0.2892,-0.1156 0.2892,-0.1158 0.2892,-0.116 0.2893,-0.1162 0.2892,-0.1164 0.2892,-0.1166 0.2892,-0.1167 0.2893,-0.117 0.2892,-0.1171 0.2892,-0.1174 0.2892,-0.1176 0.2893,-0.1177 0.2892,-0.118 0.2892,-0.1181 0.2892,-0.1184 0.2893,-0.1185 0.2892,-0.1187 0.2892,-0.119 0.2892,-0.1191 0.2892,-0.1193 0.2893,-0.1195 0.2892,-0.1197 0.2892,-0.12 0.2892,-0.1201 0.2893,-0.1203 0.2892,-0.1205 0.2892,-0.1207 0.2892,-0.1208 0.2892,-0.1212 0.2893,-0.1212 0.2892,-0.1215 0.2892,-0.1217 0.2892,-0.1219 0.2893,-0.122 0.2892,-0.1223 0.2892,-0.1225 0.2892,-0.1226 0.2892,-0.1229 0.2893,-0.123 0.2892,-0.1233 0.2892,-0.1234 0.2892,-0.1236 0.2892,-0.1238 0.2893,-0.124 0.2892,-0.1243 0.2892,-0.1244 0.2892,-0.1246 0.2893,-0.1248 0.2892,-0.1249 0.2892,-0.1253 0.2892,-0.1253 0.2892,-0.1256 0.2893,-0.1258 0.2892,-0.1259 0.2892,-0.1262 0.2892,-0.1264 0.2893,-0.1265 0.2892,-0.1268 0.2892,-0.1269 0.2892,-0.1272 0.2892,-0.1273 0.2893,-0.1275 0.2892,-0.1278 0.2892,-0.1279 0.2892,-0.1281 0.2892,-0.1283 0.2893,-0.1285 0.2892,-0.1287 0.2892,-0.1289 0.2892,-0.129 0.2893,-0.1294 0.2892,-0.1294 0.2892,-0.1297 0.2892,-0.1299 0.2892,-0.13 0.2893,-0.1303 0.2892,-0.1304 0.2892,-0.1306 0.2892,-0.1309 0.2893,-0.131 0.2892,-0.1312 0.2892,-0.1314 0.2892,-0.1316 0.2892,-0.1318 0.2893,-0.1321 0.2892,-0.1321 0.2892,-0.1324 0.2892,-0.1326 0.2892,-0.1327 0.2893,-0.133 0.2892,-0.1332 0.2892,-0.1333 0.2892,-0.1336 0.2893,-0.1337 0.2892,-0.134 0.2892,-0.1341 0.2892,-0.1343 0.2893,-0.1345 0.2892,-0.1347 0.2892,-0.1349 0.2892,-0.1351 0.2893,-0.1353 0.2892,-0.1355 0.2892,-0.1357 0.2892,-0.1358 0.2893,-0.1361 0.2892,-0.1362 0.2892,-0.1365 0.2892,-0.1366 0.2892,-0.1368 0.2893,-0.1371 0.2892,-0.1371 0.2892,-0.1375 0.2892,-0.1376 0.2893,-0.1378 0.2892,-0.1379 0.2892,-0.1382 0.2892,-0.1384 0.2892,-0.1386 0.2893,-0.1387 0.2892,-0.139 0.2892,-0.1391 0.2892,-0.1393 0.2893,-0.1396 0.2892,-0.1397 0.2892,-0.1399 0.2892,-0.1401 0.2892,-0.1403 0.2893,-0.1405 0.2892,-0.1407 0.2892,-0.1408 0.2892,-0.1411 0.2892,-0.1412 0.2893,-0.1415 0.2892,-0.1416 0.2892,-0.1419 0.2892,-0.142 0.2893,-0.1422 0.2892,-0.1424 0.2892,-0.1426 0.2892,-0.1428 0.2892,-0.143 0.2893,-0.1431 0.2892,-0.1434 0.2892,-0.1436 0.2892,-0.1437 0.2893,-0.144 0.2892,-0.1441 0.2892,-0.1443 0.2892,-0.1445 0.2892,-0.1447 0.2893,-0.1449 0.2892,-0.1451 0.2892,-0.1453 0.2892,-0.1454 0.2892,-0.1457 0.2893,-0.1458 0.2892,-0.1461 0.2892,-0.1462 0.2892,-0.1465 0.2893,-0.1466 0.2892,-0.1468 0.2892,-0.147 0.2892,-0.1472 0.2893,-0.1474 0.2892,-0.1475 0.2892,-0.1478 0.2892,-0.1479 0.2893,-0.1481 0.2892,-0.1483 0.2892,-0.1486 0.2892,-0.1487 0.2892,-0.1489 0.2893,-0.1491 0.2892,-0.1492 0.2892,-0.1495 0.2892,-0.1497 0.2892,-0.1498 0.2893,-0.1501 0.2892,-0.1502 0.2892,-0.1505 0.2892,-0.1505 0.2892,-0.1509 0.2893,-0.151 0.2892,-0.1511 0.2892,-0.1514 0.2892,-0.1516 0.2893,-0.1517 0.2892,-0.1519 0.2892,-0.1522 0.2892,-0.1523 0.2893,-0.1525 0.2892,-0.1527 0.2892,-0.1528 0.2892,-0.1531 0.2892,-0.1533 0.2893,-0.1535 0.2892,-0.1536 0.2892,-0.1538 0.2892,-0.154 0.2893,-0.1543 0.2892,-0.1543 0.2892,-0.1546 0.2892,-0.1548 0.2893,-0.155 0.2892,-0.1551 0.2892,-0.1554 0.2892,-0.1555 0.2892,-0.1557 0.2893,-0.1559 0.2892,-0.1561 0.2892,-0.1563 0.2892,-0.1565 0.2893,-0.1566 0.2892,-0.1569 0.2892,-0.157 0.2892,-0.1572 0.2892,-0.1575 0.2893,-0.1576 0.2892,-0.1577 0.2892,-0.158 0.2892,-0.1582 0.2892,-0.1583 0.2893,-0.1586 0.2892,-0.1587 0.2892,-0.1589 0.2892,-0.1591 0.2893,-0.1593 0.2892,-0.1595 0.2892,-0.1597 0.2892,-0.1598 0.2892,-0.1601 0.2893,-0.1602 0.2892,-0.1604 0.2892,-0.1606 0.2892,-0.1608 0.2892,-0.161 0.2893,-0.1612 0.2892,-0.1613 0.2892,-0.1616 0.2892,-0.1617 0.2893,-0.1619 0.2892,-0.1621 0.2892,-0.1623 0.2892,-0.1625 0.2893,-0.1626 0.2892,-0.1629 0.2892,-0.163 0.2892,-0.1632 0.2893,-0.1635 0.2892,-0.1635 0.2892,-0.1638 0.2892,-0.164 0.2893,-0.1641 0.2892,-0.1644 0.2892,-0.1645 0.2892,-0.1647 0.2892,-0.1649 0.2893,-0.1651 0.2892,-0.1653 0.2892,-0.1654 0.2892,-0.1657 0.2893,-0.1658 0.2892,-0.166 0.2892,-0.1662 0.2892,-0.1664 0.2892,-0.1666 0.2893,-0.1667 0.2892,-0.167 0.2892,-0.1671 0.2892,-0.1673 0.2893,-0.1675 0.2892,-0.1677 0.2892,-0.1679 0.2892,-0.1681 0.2892,-0.1682 0.2893,-0.1684 0.2892,-0.1686 0.2892,-0.1689 0.2892,-0.1689 0.2892,-0.1692 0.2893,-0.1693 0.2892,-0.1696 0.2892,-0.1697 0.2892,-0.1699 0.2893,-0.1701 0.2892,-0.1703 0.2892,-0.1704 0.2892,-0.1706 0.2892,-0.1709 0.2893,-0.171 0.2892,-0.1712 0.2892,-0.1714 0.2892,-0.1716 0.2893,-0.1717 0.2892,-0.172 0.2892,-0.1721 0.2892,-0.1723 0.2892,-0.1725 0.2893,-0.1726 0.2892,-0.1729 0.2892,-0.173 0.2892,-0.1733 0.2892,-0.1734 0.2893,-0.1736 0.2892,-0.1737 0.2892,-0.174 0.2892,-0.1742 0.2893,-0.1743 0.2892,-0.1745 0.2892,-0.1747 0.2892,-0.1749 0.2892,-0.175 0.2893,-0.1753 0.2892,-0.1754 0.2892,-0.1756 0.2892,-0.1758 0.2893,-0.176 0.2892,-0.1761 0.2892,-0.1764 0.2892,-0.1765 0.2892,-0.1767 0.2893,-0.1769 0.2892,-0.177 0.2892,-0.1774 0.2892,-0.1774 0.2892,-0.1776 0.2893,-0.1778 0.2892,-0.178 0.2892,-0.1782 0.2892,-0.1783 0.2893,-0.1785 0.2892,-0.1787 0.2892,-0.1789 0.2892,-0.1791 0.2892,-0.1793 0.2893,-0.1794 0.2892,-0.1796 0.2892,-0.1799 0.2892,-0.1799 0.2893,-0.1802 0.2892,-0.1804 0.2892,-0.1805 0.2892,-0.1807 0.2892,-0.1809 0.2893,-0.1811 0.2892,-0.1812 0.2892,-0.1815 0.2892,-0.1816 0.2892,-0.1818 0.2893,-0.182 0.2892,-0.1822 0.2892,-0.1823 0.2892,-0.1826 0.2893,-0.1826 0.2892,-0.1829 0.2892,-0.1831 0.2892,-0.1833 0.2893,-0.1834 0.2892,-0.1836 0.2892,-0.1838 0.2892,-0.184 0.2893,-0.1841 0.2892,-0.1844 0.2892,-0.1844 0.2892,-0.1848 0.2892,-0.1848 0.2893,-0.1851 0.2892,-0.1852 0.2892,-0.1854 0.2892,-0.1856 0.2893,-0.1858 0.2892,-0.1859 0.2892,-0.1862 0.2892,-0.1863 0.2893,-0.1865 0.2892,-0.1867 0.2892,-0.1869 0.2892,-0.187 0.2892,-0.1872 0.2893,-0.1874 0.2892,-0.1875 0.2892,-0.1878 0.2892,-0.1879 0.2893,-0.1882 0.2892,-0.1883 0.2892,-0.1884 0.2892,-0.1887 0.2892,-0.1888 0.2893,-0.189 0.2892,-0.1892 0.2892,-0.1894 0.2892,-0.1895 0.2892,-0.1897 0.2893,-0.1899 0.2892,-0.1901 0.2892,-0.1903 0.2892,-0.1904 0.2893,-0.1906 0.2892,-0.1908 0.2892,-0.191 0.2892,-0.1911 0.2892,-0.1913 0.2893,-0.1915 0.2892,-0.1917 0.2892,-0.1919 0.2892,-0.192 0.2893,-0.1922 0.2892,-0.1924 0.2892,-0.1926 0.2892,-0.1928 0.2892,-0.1928 0.2893,-0.1932 0.2892,-0.1933 0.2892,-0.1934 0.2892,-0.1936 0.2892,-0.1939 0.2893,-0.194 0.2892,-0.1941 0.2892,-0.1944 0.2892,-0.1945 0.2893,-0.1947 0.2892,-0.1949 0.2892,-0.195 0.2892,-0.1953 0.2893,-0.1954 0.2892,-0.1956 0.2892,-0.1957 0.2892,-0.1959 0.2892,-0.1962 0.2893,-0.1963 0.2892,-0.1965 0.2892,-0.1966 0.2892,-0.1968 0.2893,-0.197 0.2892,-0.1972 0.2892,-0.1973 0.2892,-0.1976 0.2893,-0.1976 0.2892,-0.198 0.2892,-0.198 0.2892,-0.1982 0.2893,-0.1984 0.2892,-0.1986 0.2892,-0.1988 0.2892,-0.1989 0.2892,-0.1991 0.2893,-0.1993 0.2892,-0.1995 0.2892,-0.1996 0.2892,-0.1998 0.2892,-0.2 0.2893,-0.2001 0.2892,-0.2003 0.2892,-0.2006 0.2892,-0.2006 0.2893,-0.2009 0.2892,-0.2011 0.2892,-0.2012 0.2892,-0.2014 0.2892,-0.2015 0.2893,-0.2017 0.2892,-0.202 0.2892,-0.202 0.2892,-0.2023 0.2893,-0.2024 0.2892,-0.2026 0.2892,-0.2028 0.2892,-0.203 0.2892,-0.2031 0.2893,-0.2033 0.2892,-0.2035 0.2892,-0.2036 0.2892,-0.2038 0.2892,-0.204 0.2893,-0.2042 0.2892,-0.2044 0.2892,-0.2044 0.2892,-0.2047 0.2893,-0.2049 0.2892,-0.2051 0.2892,-0.2052 0.2892,-0.2053 0.2892,-0.2056 0.2893,-0.2058 0.2892,-0.2059 0.2892,-0.206 0.2892,-0.2063 0.2893,-0.2064 0.2892,-0.2066 0.2892,-0.2068 0.2892,-0.2069 0.2892,-0.2071 0.2893,-0.2073 0.2892,-0.2075 0.2892,-0.2076 0.2892,-0.2078 0.2893,-0.208 0.2892,-0.2082 0.2892,-0.2083 0.2892,-0.2085 0.2893,-0.2087 0.2892,-0.2088 0.2892,-0.209 0.2892,-0.2092 0.2893,-0.2093 0.2892,-0.2096 0.2892,-0.2097 0.2892,-0.2098 0.2893,-0.2101 0.2892,-0.2102 0.2892,-0.2104 0.2892,-0.2105 0.2892,-0.2107 0.2893,-0.211 0.2892,-0.211 0.2892,-0.2113 0.2892,-0.2114 0.2892,-0.2115 0.2893,-0.2118 0.2892,-0.212 0.2892,-0.212 0.2892,-0.2123 0.2893,-0.2124 0.2892,-0.2126 0.2892,-0.2128 0.2892,-0.213 0.2892,-0.2131 0.2893,-0.2133 0.2892,-0.2135 0.2892,-0.2136 0.2892,-0.2138 0.2893,-0.214 0.2892,-0.2141 0.2892,-0.2143 0.2892,-0.2145 0.2892,-0.2147 0.2893,-0.2148 0.2892,-0.2149 0.2892,-0.2152 0.2892,-0.2153 0.2892,-0.2155 0.2893,-0.2157 0.2892,-0.2158 0.2892,-0.2161 0.2892,-0.2162 0.2893,-0.2163 0.2892,-0.2165 0.2892,-0.2167 0.2892,-0.2168 0.2892,-0.2171 0.2893,-0.2171 0.2892,-0.2174 0.2892,-0.2175 0.2892,-0.2177 0.2893,-0.2179 0.2892,-0.218 0.2892,-0.2183 0.2892,-0.2183 0.2892,-0.2186 0.2893,-0.2186 0.2892,-0.219 0.2892,-0.219 0.2892,-0.2192 0.2892,-0.2194 0.2893,-0.2195 0.2892,-0.2197 0.2892,-0.2199 0.2892,-0.2201 0.2893,-0.2202 0.2892,-0.2204 0.2892,-0.2206 0.2892,-0.2207 0.2892,-0.2208 0.2893,-0.2211 0.2892,-0.2212 0.2892,-0.2214 0.2892,-0.2216 0.2893,-0.2217 0.2892,-0.2219 0.2892,-0.2221 0.2892,-0.2222 0.2892,-0.2224 0.2893,-0.2226 0.2892,-0.2227 0.2892,-0.2229 0.2892,-0.223 0.2892,-0.2233 0.2893,-0.2234 0.2892,-0.2236 0.2892,-0.2236 0.2892,-0.224 0.2893,-0.224 0.2892,-0.2243 0.2892,-0.2244 0.2892,-0.2245 0.2892,-0.2247 0.2893,-0.225 0.2892,-0.225 0.2892,-0.2252 0.2892,-0.2254 0.2893,-0.2255 0.2892,-0.2257 0.2892,-0.226 0.2892,-0.226 0.2892,-0.2262 0.2893,-0.2264 0.2892,-0.2265 0.2892,-0.2268 0.2892,-0.2269 0.2893,-0.227 0.2892,-0.2272 0.2892,-0.2274 0.2892,-0.2275 0.2893,-0.2277 0.2892,-0.2279 0.2892,-0.228 0.2892,-0.2282 0.2893,-0.2284 0.2892,-0.2285 0.2892,-0.2287 0.2892,-0.2288 0.2892,-0.229 0.2893,-0.2292 0.2892,-0.2294 0.2892,-0.2295 0.2892,-0.2297 0.2893,-0.2298 0.2892,-0.23 0.2892,-0.2301 0.2892,-0.2304 0.2892,-0.2305 0.2893,-0.2306 0.2892,-0.2308 0.2892,-0.231 0.2892,-0.2312 0.2893,-0.2313 0.2892,-0.2315 0.2892,-0.2316 0.2892,-0.2318 0.2892,-0.232 0.2893,-0.2321 0.2892,-0.2323 0.2892,-0.2324 0.2892,-0.2326 0.2893,-0.2328 0.2892,-0.233 0.2892,-0.2331 0.2892,-0.2332 0.2892,-0.2334 0.2893,-0.2336 0.2892,-0.2338 0.2892,-0.2339 0.2892,-0.2341 0.2892,-0.2342 0.2893,-0.2345 0.2892,-0.2345 0.2892,-0.2347 0.2892,-0.2349 0.2893,-0.235 0.2892,-0.2353 0.2892,-0.2353 0.2892,-0.2356 0.2892,-0.2356 0.2893,-0.2359 0.2892,-0.2361 0.2892,-0.2361 0.2892,-0.2364 0.2892,-0.2365 0.2893,-0.2366 0.2892,-0.2369 0.2892,-0.2369 0.2892,-0.2372 0.2893,-0.2373 0.2892,-0.2375 0.2892,-0.2376 0.2892,-0.2378 0.2893,-0.2379 0.2892,-0.2381 0.2892,-0.2383 0.2892,-0.2384 0.2893,-0.2386 0.2892,-0.2388 0.2892,-0.2389 0.2892,-0.239 0.2892,-0.2393 0.2893,-0.2394 0.2892,-0.2395 0.2892,-0.2398 0.2892,-0.2398 0.2893,-0.24 0.2892,-0.2402 0.2892,-0.2404 0.2892,-0.2405 0.2893,-0.2406 0.2892,-0.2409 0.2892,-0.241 0.2892,-0.2411 0.2892,-0.2413 0.2893,-0.2415 0.2892,-0.2416 0.2892,-0.2418 0.2892,-0.2419 0.2893,-0.2421 0.2892,-0.2423 0.2892,-0.2424 0.2892,-0.2426 0.2892,-0.2427 0.2893,-0.2429 0.2892,-0.243 0.2892,-0.2433 0.2892,-0.2433 0.2892,-0.2436 0.2893,-0.2436 0.2892,-0.2439 0.2892,-0.244 0.2892,-0.2442 0.2893,-0.2443 0.2892,-0.2445 0.2892,-0.2446 0.2892,-0.2448 0.2892,-0.2449 0.2893,-0.2451 0.2892,-0.2453 0.2892,-0.2454 0.2892,-0.2456 0.2893,-0.2457 0.2892,-0.2459 0.2892,-0.246 0.2892,-0.2463 0.2892,-0.2463 0.2893,-0.2465 0.2892,-0.2467 0.2892,-0.2469 0.2892,-0.2469 0.2892,-0.2472 0.2893,-0.2473 0.2892,-0.2474 0.2892,-0.2477 0.2892,-0.2477 0.2893,-0.2479 0.2892,-0.2481 0.2892,-0.2483 0.2892,-0.2484 0.2893,-0.2485 0.2892,-0.2487 0.2892,-0.2489 0.2892,-0.249 0.2892,-0.2492 0.2893,-0.2493 0.2892,-0.2495 0.2892,-0.2497 0.2892,-0.2498 0.2893,-0.2499 0.2892,-0.2501 0.2892,-0.2503 0.2892,-0.2504 0.2893,-0.2506 0.2892,-0.2507 0.2892,-0.2509 0.2892,-0.2511 0.2893,-0.2511 0.2892,-0.2514 0.2892,-0.2515 0.2892,-0.2517 0.2892,-0.2518 0.2893,-0.2519 0.2892,-0.2522 0.2892,-0.2522 0.2892,-0.2525 0.2893,-0.2525 0.2892,-0.2528 0.2892,-0.2529 0.2892,-0.253 0.2892,-0.2532 0.2893,-0.2534 0.2892,-0.2535 0.2892,-0.2537 0.2892,-0.2538 0.2892,-0.254 0.2893,-0.2541 0.2892,-0.2543 0.2892,-0.2544 0.2892,-0.2546 0.2893,-0.2547 0.2892,-0.2549 0.2892,-0.255 0.2892,-0.2552 0.2892,-0.2554 0.2893,-0.2555 0.2892,-0.2557 0.2892,-0.2558 0.2892,-0.2559 0.2893,-0.2562 0.2892,-0.2562 0.2892,-0.2565 0.2892,-0.2565 0.2892,-0.2567 0.2893,-0.2569 0.2892,-0.257 0.2892,-0.2572 0.2892,-0.2574 0.2892,-0.2574 0.2893,-0.2577 0.2892,-0.2578 0.2892,-0.2579 0.2892,-0.2581 0.2893,-0.2583 0.2892,-0.2584 0.2892,-0.2585 0.2892,-0.2587 0.2892,-0.2589 0.2893,-0.259 0.2892,-0.2591 0.2892,-0.2593 0.2892,-0.2595 0.2893,-0.2596 0.2892,-0.2598 0.2892,-0.2599 0.2892,-0.26 0.2892,-0.2602 0.2893,-0.2604 0.2892,-0.2605 0.2892,-0.2607 0.2892,-0.2608 0.2892,-0.261 0.2893,-0.2611 0.2892,-0.2612 0.2892,-0.2615 0.2892,-0.2615 0.2893,-0.2617 0.2892,-0.2619 0.2892,-0.262 0.2892,-0.2622 0.2892,-0.2623 0.2893,-0.2625 0.2892,-0.2626 0.2892,-0.2627 0.2892,-0.263 0.2893,-0.263 0.2892,-0.2632 0.2892,-0.2634 0.2892,-0.2635 0.2892,-0.2637 0.2893,-0.2638 0.2892,-0.264 0.2892,-0.2641 0.2892,-0.2642 0.2892,-0.2644 0.2893,-0.2646 0.2892,-0.2647 0.2892,-0.2649 0.2892,-0.265 0.2893,-0.2651 0.2892,-0.2653 0.2892,-0.2655 0.2892,-0.2656 0.2892,-0.2657 0.2893,-0.2659 0.2892,-0.2661 0.2892,-0.2662 0.2892,-0.2663 0.2893,-0.2665 0.2892,-0.2666 0.2892,-0.2668 0.2892,-0.2669 0.2893,-0.2671 0.2892,-0.2672 0.2892,-0.2674 0.2892,-0.2675 0.2893,-0.2677 0.2892,-0.2678 0.2892,-0.268 0.2892,-0.2681 0.2893,-0.2682 0.2892,-0.2684 0.2892,-0.2686 0.2892,-0.2687 0.2892,-0.2689 0.2893,-0.2689 0.2892,-0.2692 0.2892,-0.2693 0.2892,-0.2694 0.2893,-0.2696 0.2892,-0.2697 0.2892,-0.2699 0.2892,-0.27 0.2892,-0.2701 0.2893,-0.2704 0.2892,-0.2704 0.2892,-0.2706 0.2892,-0.2708 0.2892,-0.2709 0.2893,-0.271 0.2892,-0.2712 0.2892,-0.2713 0.2893,-0.2715 0.2892,-0.2716 0.2892,-0.2718 0.2892,-0.2719 0.2892,-0.2721 0.2893,-0.2722 0.2892,-0.2723 0.2892,-0.2725 0.2893,-0.2727 0.2891,-0.2728 0.2893,-0.2729 0.2892,-0.2731 0.2892,-0.2732 0.2893,-0.2733 0.2891,-0.2736 0.2893,-0.2736 0.2892,-0.2738 0.2892,-0.274 0.2893,-0.2741 0.2891,-0.2742 0.2893,-0.2744 0.2892,-0.2745 0.2892,-0.2746 0.2893,-0.2749 0.2892,-0.2749 0.2892,-0.2751 0.2892,-0.2753 0.2892,-0.2754 0.2893,-0.2755 0.2892,-0.2757 0.2892,-0.2758 0.2892,-0.276 0.2892,-0.276 0.2893,-0.2763 0.2892,-0.2764 0.2892,-0.2765 0.2893,-0.2767 0.2891,-0.2768 0.2893,-0.277 0.2892,-0.2771 0.2892,-0.2773 0.2893,-0.2774 0.2891,-0.2775 0.2893,-0.2777 0.2892,-0.2778 0.2892,-0.278 0.2893,-0.278 0.2892,-0.2783 0.2892,-0.2784 0.2892,-0.2785 0.2892,-0.2787 0.2893,-0.2788 0.2892,-0.279 0.2892,-0.2791 0.2892,-0.2792 0.2892,-0.2795 0.2893,-0.2795 0.2892,-0.2797 0.2892,-0.2797 0.2893,-0.28 0.2891,-0.2801 0.2893,-0.2803 0.2892,-0.2803 0.2892,-0.2806 0.2893,-0.2806 0.2891,-0.2808 0.2893,-0.281 0.2892,-0.2811 0.2892,-0.2812 0.2893,-0.2813 0.2892,-0.2816 0.2892,-0.2816 0.2892,-0.2818 0.2892,-0.282 0.2893,-0.282 0.2892,-0.2823 0.2892,-0.2823 0.2892,-0.2825 0.2892,-0.2827 0.2893,-0.2827 0.2892,-0.2829 0.2892,-0.2831 0.2893,-0.2832 0.2892,-0.2833 0.2892,-0.2835 0.2892,-0.2836 0.2892,-0.2838 0.2893,-0.2839 0.2892,-0.284 0.2892,-0.2842 0.2892,-0.2843 0.2892,-0.2845 0.2893,-0.2846 0.2892,-0.2847 0.2892,-0.2849 0.2892,-0.285 0.2893,-0.2851 0.2892,-0.2853 0.2892,-0.2855 0.2892,-0.2855 0.2892,-0.2858 0.2893,-0.2858 0.2892,-0.286 0.2892,-0.2861 0.2893,-0.2863 0.2892,-0.2864 0.2892,-0.2865 0.2892,-0.2867 0.2892,-0.2868 0.2893,-0.287 0.2892,-0.2871 0.2892,-0.2873 0.2892,-0.2873 0.2892,-0.2875 0.2893,-0.2877 0.2892,-0.2878 0.2892,-0.2879 0.2893,-0.2881 0.2891,-0.2882 0.2893,-0.2883 0.2892,-0.2885 0.2892,-0.2886 0.2893,-0.2887 0.2892,-0.2889 0.2892,-0.2891 0.2892,-0.2891 0.2892,-0.2893 0.2893,-0.2895 0.2892,-0.2896 0.2892,-0.2897 0.2892,-0.2898 0.2892,-0.29 0.2893,-0.2901 0.2892,-0.2903 0.2892,-0.2904 0.2893,-0.2905 0.2892,-0.2907 0.2892,-0.2908 0.2892,-0.2909 0.2892,-0.2911 0.2893,-0.2913 0.2892,-0.2913 0.2892,-0.2915 0.2892,-0.2916 0.2893,-0.2918 0.2892,-0.2919 0.2892,-0.292 0.2892,-0.2922 0.2892,-0.2923 0.2893,-0.2925 0.2892,-0.2925 0.2892,-0.2928 0.2892,-0.2928 0.2892,-0.293 0.2893,-0.2931 0.2892,-0.2933 0.2892,-0.2933 0.2893,-0.2936 0.2892,-0.2937 0.2892,-0.2938 0.2892,-0.2939 0.2892,-0.294 0.2893,-0.2943 0.2892,-0.2943 0.2892,-0.2945 0.2892,-0.2945 0.2892,-0.2948 0.2893,-0.2949 0.2892,-0.295 0.2892,-0.2951 0.2893,-0.2953 0.2891,-0.2954 0.2893,-0.2956 0.2892,-0.2957 0.2892,-0.2958 0.2893,-0.2959 0.2891,-0.2961 0.2893,-0.2962 0.2892,-0.2964 0.2892,-0.2965 0.2893,-0.2966 0.2892,-0.2968 0.2892,-0.2968 0.2892,-0.2971 0.2892,-0.2971 0.2893,-0.2973 0.2892,-0.2974 0.2892,-0.2976 0.2892,-0.2977 0.2892,-0.2978 0.2893,-0.298 0.2892,-0.2981 0.2892,-0.2982 0.2893,-0.2984 0.2891,-0.2984 0.2893,-0.2987 0.2892,-0.2987 0.2892,-0.2989 0.2893,-0.299 0.2892,-0.2992 0.2892,-0.2993 0.2892,-0.2994 0.2892,-0.2995 0.2893,-0.2997 0.2892,-0.2998 0.2892,-0.3 0.2892,-0.3 0.2893,-0.3003 0.2892,-0.3003 0.2892,-0.3005 0.2892,-0.3006 0.2892,-0.3007 0.2893,-0.3009 0.2892,-0.301 0.2892,-0.3011 0.2892,-0.3013 0.2893,-0.3014 0.2892,-0.3015 0.2892,-0.3017 0.2892,-0.3018 0.2893,-0.3019 0.2892,-0.3021 0.2892,-0.3021 0.2892,-0.3023 0.2892,-0.3025 0.2893,-0.3026 0.2892,-0.3027 0.2892,-0.3028 0.2893,-0.303 0.2891,-0.3031 0.2893,-0.3032 0.2892,-0.3034 0.2892,-0.3034 0.2893,-0.3037 0.2891,-0.3038 0.2893,-0.3038 0.2892,-0.304 0.2892,-0.3042 0.2893,-0.3043 0.2892,-0.3043 0.2892,-0.3046 0.2892,-0.3046 0.2892,-0.3049 0.2893,-0.3049 0.2892,-0.305 0.2892,-0.3052 0.2893,-0.3053 0.2891,-0.3055 0.2893,-0.3055 0.2892,-0.3057 0.2892,-0.3059 0.2893,-0.3059 0.2891,-0.3061 0.2893,-0.3062 0.2892,-0.3064 0.2892,-0.3065 0.2893,-0.3066 0.2891,-0.3067 0.2893,-0.3069 0.2892,-0.307 0.2892,-0.3071 0.2893,-0.3072 0.2892,-0.3074 0.2892,-0.3075 0.2892,-0.3077 0.2892,-0.3077 0.2893,-0.3079 0.2892,-0.308 0.2892,-0.3082 0.2892,-0.3083 0.2892,-0.3083 0.2893,-0.3086 0.2892,-0.3087 0.2892,-0.3088 0.2893,-0.3089 0.2891,-0.309 0.2893,-0.3092 0.2892,-0.3093 0.2892,-0.3094 0.2893,-0.3096 0.2891,-0.3096 0.2893,-0.3099 0.2892,-0.3099 0.2892,-0.3101 0.2893,-0.3102 0.2892,-0.3103 0.2892,-0.3104 0.2892,-0.3106 0.2892,-0.3107 0.2893,-0.3108 0.2892,-0.311 0.2892,-0.3111 0.2892,-0.3112 0.2892,-0.3113 0.2893,-0.3115 0.2892,-0.3116 0.2892,-0.3117 0.2893,-0.3118 0.2891,-0.312 0.2893,-0.3121 0.2892,-0.3122 0.2892,-0.3123 0.2892,-0.3125 0.2892,-0.3126 0.2893,-0.3128 0.2892,-0.3128 0.2892,-0.313 0.2893,-0.3131 0.2892,-0.3132 0.2892,-0.3134 0.2892,-0.3134 0.2892,-0.3137 0.2893,-0.3137"
       style="fill:none;fill-rule:evenodd"
       id="path964"
       inkscape:connector-curvature="0" />
    <path
       d="m 86.5,395 h 0.516 0.5156 0.5157 0.5156 l 0.5156,-0.015 h 0.5156 0.5156 0.5156 l 0.5157,-0.015 h 0.5156 l 0.5156,-0.015 h 0.5158 l 0.5154,-0.015 h 0.5154 l 0.516,-0.015 0.5212,-0.015 h 0.5154 l 0.516,-0.015 0.5155,-0.015 0.5154,-0.015 0.516,-0.015 0.5154,-0.015 0.5154,-0.015 0.516,-0.015 0.5155,-0.015 0.5154,-0.015 0.516,-0.015 0.5154,-0.015 0.5154,-0.015 0.516,-0.03 0.5212,-0.015 0.5154,-0.015 0.516,-0.03 0.5155,-0.015 0.5154,-0.03 0.516,-0.015 0.5154,-0.03 0.5154,-0.03 0.516,-0.015 0.5155,-0.03 0.5154,-0.03 0.516,-0.03 0.5154,-0.015 0.5154,-0.03 0.516,-0.03 0.5212,-0.03 0.5154,-0.03 0.516,-0.03 0.5155,-0.045 0.5154,-0.03 0.516,-0.03 0.5154,-0.03 0.5154,-0.03 0.516,-0.045 0.5155,-0.03 0.5154,-0.045 0.516,-0.03 0.5154,-0.045 0.5154,-0.03 0.516,-0.045 0.5212,-0.03 0.5154,-0.045 0.516,-0.045 0.5155,-0.045 0.5154,-0.03 0.516,-0.045 0.5154,-0.045 0.5154,-0.045 0.516,-0.045 0.5155,-0.045 0.5154,-0.045 0.516,-0.045 0.5154,-0.06 0.5154,-0.045 0.516,-0.045 0.5212,-0.045 0.5154,-0.06 0.516,-0.045 0.5155,-0.06 0.5154,-0.045 0.516,-0.06 0.5154,-0.045 0.5154,-0.06 0.516,-0.045 0.5155,-0.06 0.5154,-0.06 0.516,-0.06 0.5154,-0.045 0.5154,-0.06 0.516,-0.06 0.5212,-0.06 0.5154,-0.06 0.516,-0.06 0.5155,-0.06 0.5154,-0.075 0.516,-0.06 0.5154,-0.06 0.5154,-0.06 0.516,-0.06 0.5155,-0.075 0.5154,-0.06 0.516,-0.075 0.5154,-0.06 0.5154,-0.075 0.516,-0.06 0.5212,-0.075 0.5154,-0.075 0.516,-0.06 0.5155,-0.075 0.5154,-0.075 0.516,-0.075 0.5177,-0.06 0.516,-0.075 0.5103,-0.075 0.516,-0.075 0.516,-0.075 0.516,-0.09 0.516,-0.075 0.516,-0.075 0.516,-0.075 0.5217,-0.075 0.516,-0.09 0.516,-0.075 0.516,-0.075 0.516,-0.09 0.516,-0.075 0.516,-0.09 0.516,-0.075 0.5103,-0.09 0.516,-0.09 0.516,-0.075 0.516,-0.09 0.516,-0.09 0.516,-0.09 0.516,-0.09 0.5217,-0.09 0.516,-0.09 0.516,-0.09 0.516,-0.09 0.516,-0.09 0.516,-0.09 0.516,-0.09 0.516,-0.09 0.5103,-0.105 0.516,-0.09 0.516,-0.09 0.516,-0.105 0.516,-0.09 0.516,-0.105 0.516,-0.09 0.5217,-0.105 0.516,-0.09 0.516,-0.105 0.516,-0.105 0.516,-0.09 0.516,-0.105 0.516,-0.105 0.516,-0.105 0.5103,-0.105 0.516,-0.105 0.516,-0.105 0.516,-0.105 0.516,-0.105 0.516,-0.105 0.516,-0.105 0.5217,-0.105 0.516,-0.12 0.516,-0.105 0.516,-0.105 0.516,-0.12 0.516,-0.105 0.516,-0.12 0.516,-0.105 0.5103,-0.12 0.516,-0.105 0.516,-0.12 0.516,-0.12 0.516,-0.12 0.516,-0.105 0.516,-0.12 0.5217,-0.12 0.516,-0.12 0.516,-0.12 0.516,-0.12 0.516,-0.12 0.516,-0.12 0.516,-0.12 0.516,-0.12 0.5103,-0.135 0.516,-0.12 0.516,-0.12 0.516,-0.12 0.516,-0.135 0.516,-0.12 0.516,-0.135 0.5217,-0.12 0.516,-0.135 0.516,-0.135 0.516,-0.12 0.516,-0.135 0.516,-0.135 0.516,-0.12 0.516,-0.135 0.5103,-0.135 0.516,-0.135 0.516,-0.135 0.516,-0.135 0.516,-0.135 0.516,-0.135 0.516,-0.135 0.5217,-0.135 0.516,-0.15 0.516,-0.135 0.516,-0.135 0.516,-0.15 0.516,-0.135 0.516,-0.135 0.516,-0.15 0.5103,-0.135 0.516,-0.15 0.516,-0.135 0.516,-0.15 0.516,-0.15 0.516,-0.15 0.516,-0.135 0.5217,-0.15 0.516,-0.15 0.516,-0.15 0.516,-0.15 0.516,-0.15 0.516,-0.15 0.516,-0.15 0.516,-0.15 0.5103,-0.15 0.516,-0.15 0.516,-0.165 0.516,-0.15 0.516,-0.15 0.516,-0.165 0.516,-0.15 0.5217,-0.165 0.516,-0.15 0.516,-0.165 0.516,-0.15 0.516,-0.165 0.516,-0.165 0.516,-0.15 0.516,-0.165 0.5103,-0.165 0.516,-0.165 0.516,-0.15 0.516,-0.165 0.516,-0.165 0.516,-0.165 0.516,-0.165 0.5217,-0.18 0.516,-0.165 0.516,-0.165 0.516,-0.165 0.516,-0.165 0.516,-0.18 0.516,-0.165 0.516,-0.165 0.5103,-0.18 0.516,-0.165 0.516,-0.18 0.516,-0.165 0.516,-0.18 0.516,-0.18 0.516,-0.165 0.5217,-0.18 0.516,-0.18 0.516,-0.18 0.516,-0.18 0.516,-0.18 0.516,-0.18 0.516,-0.18 0.516,-0.18 0.5103,-0.18 0.516,-0.18 0.516,-0.18 0.516,-0.18 0.516,-0.18 0.516,-0.195 0.516,-0.18 0.5217,-0.18 0.516,-0.195 0.516,-0.18 0.516,-0.195 0.516,-0.18 0.516,-0.195 0.516,-0.195 0.516,-0.18 0.5103,-0.195 0.516,-0.195 0.516,-0.18 0.516,-0.195 0.516,-0.195 0.516,-0.195 0.516,-0.195 0.5217,-0.195 0.516,-0.195 0.516,-0.195 0.516,-0.195 0.516,-0.21 0.516,-0.195 0.516,-0.195 0.516,-0.195 0.5103,-0.21 0.516,-0.195 0.516,-0.21 0.516,-0.195 0.516,-0.195 0.516,-0.21 0.516,-0.21 0.5217,-0.195 0.516,-0.21 0.516,-0.21 0.516,-0.21 0.516,-0.195 0.516,-0.21 0.516,-0.21 0.516,-0.21 0.5103,-0.21 0.516,-0.21 0.516,-0.21 0.516,-0.21 0.516,-0.21 0.516,-0.21 0.516,-0.225 0.5217,-0.21 0.516,-0.21 0.516,-0.225 0.516,-0.21 0.516,-0.21 0.516,-0.225 0.516,-0.21 0.516,-0.225 0.5103,-0.225 0.516,-0.21 0.516,-0.225 0.5159,-0.225 0.5161,-0.21 0.516,-0.225 0.516,-0.225 0.5217,-0.225 0.516,-0.225 0.516,-0.225 0.516,-0.225 0.516,-0.225 0.516,-0.225 0.516,-0.225 0.516,-0.225 0.5103,-0.24 0.516,-0.225 0.516,-0.225 0.516,-0.24 0.516,-0.225 0.516,-0.225 0.516,-0.24 0.5217,-0.225 0.516,-0.24 0.516,-0.24 0.516,-0.225 0.516,-0.24 0.516,-0.24 0.516,-0.225 0.516,-0.24 0.5103,-0.24 0.516,-0.24 0.516,-0.24 0.516,-0.24 0.516,-0.24 0.516,-0.24 0.516,-0.24 0.5217,-0.24 0.516,-0.24 0.516,-0.255 0.516,-0.24 0.516,-0.24 0.516,-0.24 0.516,-0.255 0.516,-0.24 0.5103,-0.255 0.516,-0.24 0.516,-0.255 0.5159,-0.24 0.5161,-0.255 0.516,-0.24 0.516,-0.255 0.5217,-0.255 0.516,-0.255 0.516,-0.255 0.516,-0.255 0.516,-0.24 0.516,-0.255 0.516,-0.255 0.516,-0.255 0.5103,-0.255 0.516,-0.27 0.516,-0.255 0.516,-0.255 0.516,-0.255 0.516,-0.255 0.516,-0.27 0.5217,-0.255 0.516,-0.27 0.516,-0.255 0.516,-0.255 0.516,-0.27 0.516,-0.27 0.516,-0.255 0.516,-0.27 0.5103,-0.255 0.516,-0.27 0.516,-0.27 0.516,-0.27 0.516,-0.27 0.516,-0.255 0.516,-0.27 0.5217,-0.27 0.516,-0.27 0.516,-0.27 0.516,-0.285 0.516,-0.27 0.516,-0.27 0.516,-0.27 0.516,-0.27 0.5103,-0.285 0.516,-0.27 0.516,-0.27 0.516,-0.285 0.516,-0.27 0.516,-0.27 0.516,-0.285 0.5217,-0.285 0.516,-0.27 0.516,-0.285 0.516,-0.285 0.516,-0.27 0.516,-0.285 0.516,-0.285 0.516,-0.285 0.5103,-0.285 0.516,-0.285 0.5159,-0.27 0.5161,-0.285 0.516,-0.3 0.516,-0.285 0.516,-0.285 0.5217,-0.285 0.516,-0.285 0.516,-0.285 0.516,-0.3 0.516,-0.285 0.516,-0.285 0.516,-0.3 0.516,-0.285 0.5103,-0.3 0.516,-0.285 0.516,-0.3 0.516,-0.285 0.516,-0.3 0.516,-0.3 0.516,-0.285 0.5217,-0.3 0.516,-0.3 0.516,-0.3 0.516,-0.3 0.516,-0.3 0.516,-0.3 0.516,-0.3 0.516,-0.3 0.5103,-0.3 0.516,-0.3 0.516,-0.3 0.516,-0.3 0.516,-0.3 0.516,-0.315 0.516,-0.3 0.5217,-0.3 0.516,-0.315 0.516,-0.3 0.516,-0.315 0.516,-0.3 0.516,-0.315 0.516,-0.3 0.516,-0.315 0.5103,-0.3 0.516,-0.315 0.516,-0.315 0.516,-0.315 0.516,-0.3 0.516,-0.315 0.5159,-0.315 0.5218,-0.315 0.516,-0.315 0.516,-0.315 0.516,-0.315 0.516,-0.315 0.516,-0.315 0.516,-0.33 0.516,-0.315 0.5103,-0.315 0.5159,-0.315 0.516,-0.33 0.5161,-0.315 0.516,-0.315 0.516,-0.33 0.516,-0.315 0.5217,-0.33 0.516,-0.315 0.516,-0.33 0.516,-0.33 0.516,-0.315 0.516,-0.33 0.516,-0.33 0.516,-0.33 0.5102,-0.315 0.5161,-0.33 0.516,-0.33 0.516,-0.33 0.516,-0.33 0.516,-0.33 0.516,-0.33 0.5217,-0.33 0.516,-0.33 0.516,-0.33 0.516,-0.345 0.516,-0.33 0.516,-0.33 0.516,-0.33 0.516,-0.345 0.5103,-0.33 0.516,-0.345 0.516,-0.33 0.516,-0.345 0.516,-0.33 0.516,-0.345 0.516,-0.33 0.5217,-0.345 0.516,-0.345 0.516,-0.33 0.516,-0.345 0.516,-0.345 0.516,-0.345 0.516,-0.345 0.516,-0.345 0.5103,-0.345 0.516,-0.345 0.516,-0.345 0.516,-0.345 0.516,-0.345 0.516,-0.345 0.516,-0.345 0.5217,-0.345 0.516,-0.36 0.516,-0.345 0.516,-0.345 0.516,-0.36 0.516,-0.345 0.516,-0.345 0.516,-0.36 0.5103,-0.345 0.516,-0.36 0.516,-0.345 0.516,-0.36 0.5159,-0.36 0.5161,-0.345 0.516,-0.36 0.5217,-0.36 0.516,-0.36 0.516,-0.36 0.516,-0.36 0.516,-0.36 0.516,-0.36 0.516,-0.345 0.516,-0.375 0.5103,-0.36 0.516,-0.36 0.516,-0.36 0.5159,-0.36 0.5161,-0.36 0.516,-0.36 0.516,-0.375 0.5217,-0.36 0.516,-0.375 0.516,-0.36 0.516,-0.36 0.516,-0.375 0.516,-0.36 0.516,-0.375 0.516,-0.36 0.5103,-0.375 0.516,-0.375 0.516,-0.36 0.516,-0.375 0.516,-0.375 0.516,-0.375 0.516,-0.36 0.5217,-0.39 0.516,-0.36 0.516,-0.375 0.516,-0.375 0.516,-0.375 0.516,-0.375 0.516,-0.375 0.516,-0.39 0.5103,-0.375 0.516,-0.375 0.516,-0.375 0.516,-0.375 0.516,-0.39 0.516,-0.375 0.516,-0.375 0.5217,-0.39 0.516,-0.375 0.516,-0.39 0.516,-0.375 0.516,-0.39 0.516,-0.39 0.516,-0.375 0.516,-0.39 0.5103,-0.375 0.516,-0.39 0.516,-0.39 0.516,-0.39 0.516,-0.39 0.516,-0.375 0.5159,-0.39 0.5218,-0.405 0.516,-0.39 0.516,-0.39 0.516,-0.39 0.516,-0.39 0.516,-0.39 0.516,-0.39 0.516,-0.39 0.5103,-0.39 0.516,-0.405 0.516,-0.39 0.516,-0.39 0.516,-0.39 0.5159,-0.405 0.5161,-0.39 0.5217,-0.405 0.516,-0.405 0.516,-0.39 0.516,-0.405 0.516,-0.39 0.516,-0.405 0.516,-0.405 0.516,-0.39 0.5103,-0.405 0.5159,-0.405 0.5161,-0.405 0.516,-0.39 0.5159,-0.405 0.5161,-0.405 0.516,-0.405 0.5217,-0.405 0.516,-0.405 0.516,-0.405 0.516,-0.42 0.516,-0.405 0.516,-0.405 0.516,-0.405 0.516,-0.405 0.5102,-0.42 0.5161,-0.405 0.516,-0.405 0.516,-0.405 0.516,-0.42 0.516,-0.405 0.516,-0.42 0.5217,-0.42 0.516,-0.405 0.516,-0.42 0.516,-0.405 0.516,-0.42 0.516,-0.42 0.516,-0.405 0.516,-0.42 0.5103,-0.42 0.516,-0.42 0.516,-0.405 0.516,-0.42 0.516,-0.42 0.516,-0.42 0.516,-0.42 0.5217,-0.42 0.516,-0.435 0.516,-0.42 0.516,-0.42 0.516,-0.42 0.516,-0.42 0.516,-0.42 0.516,-0.42 0.5103,-0.435 0.516,-0.42 0.516,-0.42 0.516,-0.435 0.516,-0.42 0.516,-0.435 0.516,-0.42 0.5217,-0.435 0.516,-0.42 0.516,-0.435 0.516,-0.435 0.516,-0.42 0.516,-0.435 0.516,-0.435 0.516,-0.42 0.5103,-0.435 0.516,-0.435 0.516,-0.435 0.5159,-0.435 0.5161,-0.435 0.516,-0.435 0.516,-0.435 0.5217,-0.435 0.516,-0.435 0.516,-0.435 0.516,-0.435 0.516,-0.435 0.516,-0.45 0.516,-0.435 0.516,-0.435 0.5103,-0.435 0.516,-0.45 0.5159,-0.435 0.5161,-0.435 0.516,-0.45 0.516,-0.435 0.516,-0.45 0.5217,-0.435 0.516,-0.45 0.516,-0.45 0.516,-0.435 0.516,-0.45 0.516,-0.435 0.516,-0.45 0.516,-0.45 0.5103,-0.45 0.5159,-0.435 0.5161,-0.45 0.516,-0.45 0.516,-0.45 0.516,-0.45 0.516,-0.45 0.5217,-0.45 0.516,-0.45 0.516,-0.45 0.516,-0.45 0.516,-0.45 0.516,-0.465 0.516,-0.45 0.516,-0.45 0.5103,-0.45 0.516,-0.465 0.516,-0.45 0.516,-0.45 0.516,-0.465 0.516,-0.45 0.516,-0.45 0.5217,-0.465 0.516,-0.465 0.516,-0.45 0.516,-0.465 0.516,-0.45 0.516,-0.465 0.516,-0.465 0.516,-0.45 0.5103,-0.465 0.516,-0.465 0.516,-0.465 0.516,-0.465 0.516,-0.45 0.516,-0.465 0.5159,-0.465 0.5218,-0.465 0.516,-0.465 0.516,-0.465 0.516,-0.48 0.516,-0.465 0.516,-0.465 0.516,-0.465 0.516,-0.465 0.5103,-0.465 0.516,-0.465 0.516,-0.48 0.516,-0.465 0.516,-0.465 0.5159,-0.48 0.5161,-0.465 0.5217,-0.48 0.516,-0.465 0.516,-0.48 0.516,-0.465 0.516,-0.48 0.516,-0.465 0.516,-0.48 0.516,-0.48 0.5103,-0.465 0.516,-0.48 0.516,-0.48 0.5159,-0.465 0.5161,-0.48 0.516,-0.48 0.516,-0.48 0.5217,-0.48 0.516,-0.48 0.516,-0.48 0.516,-0.48 0.516,-0.48 0.516,-0.48 0.516,-0.48 0.516,-0.48 0.5103,-0.48 0.516,-0.48 0.5159,-0.48 0.5161,-0.495 0.516,-0.48 0.516,-0.48 0.516,-0.48 0.5217,-0.495 0.516,-0.495 0.516,-0.48 0.516,-0.48 0.516,-0.495 0.516,-0.48 0.516,-0.495 0.516,-0.48 0.5103,-0.495 0.5159,-0.495 0.516,-0.48 0.516,-0.495 0.5161,-0.495 0.516,-0.48 0.516,-0.495 0.5217,-0.495 0.516,-0.495 0.516,-0.495 0.516,-0.495 0.516,-0.495 0.516,-0.495 0.516,-0.48 0.516,-0.495 0.5102,-0.495 0.516,-0.51 0.516,-0.495 0.5161,-0.495 0.516,-0.495 0.516,-0.495 0.516,-0.495 0.5217,-0.51 0.516,-0.495 0.516,-0.495 0.516,-0.51 0.516,-0.495 0.516,-0.495 0.516,-0.51 0.516,-0.495 0.5102,-0.51 0.5161,-0.495 0.516,-0.51 0.516,-0.495 0.516,-0.51 0.516,-0.495 0.5159,-0.51 0.5218,-0.51 0.516,-0.51 0.516,-0.51 0.516,-0.495 0.516,-0.51 0.516,-0.51 0.516,-0.51 0.516,-0.51 0.5103,-0.51 0.516,-0.495 0.516,-0.51 0.516,-0.51 0.516,-0.51 0.516,-0.51 0.516,-0.51 0.5217,-0.525 0.516,-0.51 0.516,-0.51 0.516,-0.51 0.516,-0.525 0.516,-0.51 0.516,-0.51 0.516,-0.51 0.5103,-0.525 0.516,-0.51 0.516,-0.525 0.516,-0.51 0.5159,-0.51 0.5161,-0.525 0.516,-0.51 0.5217,-0.525 0.516,-0.525 0.516,-0.51 0.516,-0.525 0.516,-0.525 0.516,-0.51 0.516,-0.525 0.516,-0.525 0.5103,-0.525 0.516,-0.51 0.516,-0.525 0.5159,-0.525 0.516,-0.525 0.516,-0.525 0.5161,-0.525 0.5217,-0.525 0.516,-0.525 0.516,-0.525 0.516,-0.525 0.516,-0.525 0.516,-0.525 0.516,-0.525 0.516,-0.525 0.5103,-0.54 0.516,-0.525 0.516,-0.525 0.516,-0.525 0.516,-0.525 0.516,-0.54 0.516,-0.525 0.5217,-0.54 0.516,-0.525 0.516,-0.54 0.516,-0.525 0.516,-0.54 0.516,-0.525 0.516,-0.54 0.516,-0.525 0.5102,-0.54 0.516,-0.525 0.516,-0.54 0.516,-0.54 0.5161,-0.525 0.516,-0.54 0.516,-0.54 0.5217,-0.54 0.516,-0.54 0.516,-0.54 0.516,-0.54 0.516,-0.525 0.516,-0.54 0.516,-0.54 0.516,-0.54 0.5103,-0.54 0.516,-0.54 0.516,-0.54 0.516,-0.54 0.516,-0.54 0.516,-0.555 0.5159,-0.54 0.5218,-0.54 0.516,-0.54 0.516,-0.555 0.516,-0.54 0.516,-0.54 0.516,-0.555 0.516,-0.54 0.516,-0.54 0.5102,-0.555 0.5161,-0.54 0.516,-0.555 0.516,-0.54 0.516,-0.555 0.5159,-0.54 0.5161,-0.555 0.5217,-0.555 0.516,-0.54 0.516,-0.555 0.516,-0.54 0.516,-0.555 0.516,-0.555 0.516,-0.555 0.516,-0.54 0.5103,-0.555 0.516,-0.555 0.516,-0.555 0.516,-0.555 0.5159,-0.555 0.516,-0.54 0.516,-0.555 0.5218,-0.57 0.516,-0.555 0.516,-0.555 0.516,-0.555 0.516,-0.555 0.516,-0.555 0.516,-0.555 0.516,-0.555 1.032,-1.125"
       style="fill:none;fill-rule:evenodd;stroke:#d95319"
       id="path966"
       inkscape:connector-curvature="0" />
  </g>
  <g
     style="color-interpolation:sRGB;fill:#ffffff;stroke:#ffffff;color-rendering:optimizeSpeed;image-rendering:optimizeSpeed;shape-rendering:crispEdges;text-rendering:optimizeSpeed"
     id="g972">
    <path
       style="stroke:none"
       d="M 200.5,85.5 V 43 h -106 v 42.5 z"
       id="path970"
       inkscape:connector-curvature="0" />
  </g>
  <g
     transform="translate(131.5,54.5)"
     style="font-size:16px;font-family:'Helvetica Neue';color-interpolation:linearRGB;color-rendering:optimizeQuality;image-rendering:optimizeQuality;text-rendering:geometricPrecision"
     id="g976">
    <path
       style="stroke:none"
       d="M 5.728,-5.424 V 6 h 1.44 V -3.504 H 7.2 L 10.768,6 h 1.296 l 3.568,-9.504 h 0.032 V 6 h 1.44 V -5.424 h -2.08 l -3.616,9.6 -3.6,-9.6 z m 13.968,0 V 6 h 1.52 V -5.424 Z m 6.672,1.28 V 6 h 1.52 V -4.144 h 3.808 v -1.28 H 22.56 v 1.28 z m 6.592,-1.28 V 6 h 1.52 V 0.768 h 6.016 V 6 h 1.52 V -5.424 h -1.52 v 4.912 H 34.48 v -4.912 z m 11.552,0 V 6 h 1.52 V 1.12 h 3.712 q 0.56,0 0.896,0.168 0.336,0.168 0.544,0.448 0.208,0.28 0.304,0.656 0.096,0.376 0.16,0.792 0.08,0.416 0.096,0.848 0.016,0.432 0.032,0.808 0.016,0.376 0.072,0.68 0.056,0.304 0.216,0.48 H 53.76 Q 53.52,5.712 53.4,5.336 53.28,4.96 53.216,4.544 53.152,4.128 53.136,3.696 53.12,3.264 53.088,2.848 53.04,2.432 52.952,2.048 52.864,1.664 52.68,1.352 52.496,1.04 52.184,0.816 51.872,0.592 51.376,0.496 V 0.464 q 1.04,-0.288 1.512,-1.072 0.472,-0.784 0.472,-1.824 0,-1.392 -0.92,-2.192 -0.92,-0.8 -2.552,-0.8 z M 49.2,-0.16 h -3.168 v -3.984 h 3.776 q 1.072,0 1.552,0.544 0.48,0.544 0.48,1.408 0,0.624 -0.216,1.016 -0.216,0.392 -0.576,0.624 -0.36,0.232 -0.84,0.312 -0.48,0.08 -1.008,0.08 z m 8.24,1.44 1.936,-5.328 h 0.032 L 61.312,1.28 Z M 58.576,-5.424 54.128,6 h 1.552 l 1.28,-3.44 h 4.832 L 63.04,6 h 1.68 L 60.256,-5.424 Z"
       id="path974"
       inkscape:connector-curvature="0" />
  </g>
  <g
     style="color-interpolation:linearRGB;fill:#0072bd;stroke:#0072bd;stroke-width:3;stroke-linecap:butt;stroke-linejoin:round;color-rendering:optimizeQuality;image-rendering:optimizeQuality;text-rendering:geometricPrecision"
     id="g980">
    <line
       y2="54.5"
       style="fill:none"
       x1="98.5"
       x2="128.5"
       y1="54.5"
       id="line978" />
  </g>
  <g
     transform="translate(131.5,74)"
     style="font-size:16px;font-family:'Helvetica Neue';color-interpolation:linearRGB;color-rendering:optimizeQuality;image-rendering:optimizeQuality;text-rendering:geometricPrecision"
     id="g984">
    <path
       style="stroke:none"
       d="M 7.664,1.28 9.6,-4.048 H 9.632 L 11.536,1.28 Z M 8.8,-5.424 4.352,6 h 1.552 l 1.28,-3.44 h 4.832 L 13.264,6 h 1.68 L 10.48,-5.424 Z m 13.872,3.344 h 1.44 q -0.032,-0.944 -0.36,-1.624 -0.328,-0.68 -0.896,-1.128 -0.568,-0.448 -1.32,-0.656 -0.752,-0.208 -1.632,-0.208 -0.784,0 -1.528,0.2 -0.744,0.2 -1.328,0.608 -0.584,0.408 -0.936,1.04 -0.352,0.632 -0.352,1.496 0,0.784 0.312,1.304 0.312,0.52 0.832,0.848 0.52,0.328 1.176,0.528 0.656,0.2 1.336,0.352 0.68,0.152 1.336,0.296 0.656,0.144 1.176,0.376 0.52,0.232 0.832,0.6 0.312,0.368 0.312,0.96 0,0.624 -0.256,1.024 -0.256,0.4 -0.672,0.632 -0.416,0.232 -0.936,0.328 -0.52,0.096 -1.032,0.096 -0.64,0 -1.248,-0.16 Q 18.32,4.672 17.864,4.336 17.408,4 17.128,3.48 16.848,2.96 16.848,2.24 h -1.44 q 0,1.04 0.376,1.8 0.376,0.76 1.024,1.248 0.648,0.488 1.504,0.728 0.856,0.24 1.816,0.24 0.784,0 1.576,-0.184 0.792,-0.184 1.432,-0.592 0.64,-0.408 1.048,-1.056 0.408,-0.648 0.408,-1.56 0,-0.848 -0.312,-1.408 -0.312,-0.56 -0.832,-0.928 -0.52,-0.368 -1.176,-0.584 -0.656,-0.216 -1.336,-0.376 -0.68,-0.16 -1.336,-0.296 -0.656,-0.136 -1.176,-0.344 -0.52,-0.208 -0.832,-0.536 -0.312,-0.328 -0.312,-0.856 0,-0.56 0.216,-0.936 0.216,-0.376 0.576,-0.6 0.36,-0.224 0.824,-0.32 0.464,-0.096 0.944,-0.096 1.184,0 1.944,0.552 0.76,0.552 0.888,1.784 z m 6.352,-2.064 V 6 h 1.52 V -4.144 h 3.808 v -1.28 h -9.136 v 1.28 z m 6.592,-1.28 V 6 h 1.52 V 1.12 h 3.712 q 0.56,0 0.896,0.168 0.336,0.168 0.544,0.448 0.208,0.28 0.304,0.656 0.096,0.376 0.16,0.792 0.08,0.416 0.096,0.848 0.016,0.432 0.032,0.808 0.016,0.376 0.072,0.68 0.056,0.304 0.216,0.48 h 1.696 Q 44.624,5.712 44.504,5.336 44.384,4.96 44.32,4.544 44.256,4.128 44.24,3.696 44.224,3.264 44.192,2.848 44.144,2.432 44.056,2.048 43.968,1.664 43.784,1.352 43.6,1.04 43.288,0.816 42.976,0.592 42.48,0.496 V 0.464 q 1.04,-0.288 1.512,-1.072 0.472,-0.784 0.472,-1.824 0,-1.392 -0.92,-2.192 -0.92,-0.8 -2.552,-0.8 z m 4.688,5.264 h -3.168 v -3.984 h 3.776 q 1.072,0 1.552,0.544 0.48,0.544 0.48,1.408 0,0.624 -0.216,1.016 -0.216,0.392 -0.576,0.624 -0.36,0.232 -0.84,0.312 -0.48,0.08 -1.008,0.08 z m 8.24,1.44 1.936,-5.328 h 0.032 L 52.416,1.28 Z M 49.68,-5.424 45.232,6 h 1.552 l 1.28,-3.44 h 4.832 L 54.144,6 h 1.68 L 51.36,-5.424 Z"
       id="path982"
       inkscape:connector-curvature="0" />
  </g>
  <g
     style="color-interpolation:linearRGB;fill:#d95319;stroke:#d95319;stroke-width:3;stroke-linecap:butt;stroke-linejoin:round;color-rendering:optimizeQuality;image-rendering:optimizeQuality;text-rendering:geometricPrecision"
     id="g988">
    <line
       y2="74"
       style="fill:none"
       x1="98.5"
       x2="128.5"
       y1="74"
       id="line986" />
  </g>
  <g
     style="color-interpolation:linearRGB;fill:#262626;stroke:#262626;stroke-width:0.5;stroke-linecap:butt;color-rendering:optimizeQuality;image-rendering:optimizeQuality;text-rendering:geometricPrecision"
     id="g992">
    <path
       d="M 94.5,85.5 V 43 h 106 v 42.5 z"
       style="fill:none;fill-rule:evenodd"
       id="path990"
       inkscape:connector-curvature="0" />
  </g>
</svg>
