<?xml version="1.0" encoding="UTF-8" standalone="no"?>
<svg
   xmlns:dc="http://purl.org/dc/elements/1.1/"
   xmlns:cc="http://creativecommons.org/ns#"
   xmlns:rdf="http://www.w3.org/1999/02/22-rdf-syntax-ns#"
   xmlns:svg="http://www.w3.org/2000/svg"
   xmlns="http://www.w3.org/2000/svg"
   xmlns:sodipodi="http://sodipodi.sourceforge.net/DTD/sodipodi-0.dtd"
   xmlns:inkscape="http://www.inkscape.org/namespaces/inkscape"
   inkscape:version="1.0beta2 (2b71d25, 2019-12-03)"
   sodipodi:docname="Fig10a.svg"
   id="svg1036"
   version="1.1"
   height="400"
   width="566"
   style="fill-opacity:1; color-rendering:auto; color-interpolation:auto; text-rendering:auto; stroke:black; stroke-linecap:square; stroke-miterlimit:10; shape-rendering:auto; stroke-opacity:1; fill:black; stroke-dasharray:none; font-weight:normal; stroke-width:1; font-family:'Dialog'; font-style:normal; stroke-linejoin:miter; font-size:12px; stroke-dashoffset:0; image-rendering:auto;">
  <metadata
     id="metadata1040">
    <rdf:RDF>
      <cc:Work
         rdf:about="">
        <dc:format>image/svg+xml</dc:format>
        <dc:type
           rdf:resource="http://purl.org/dc/dcmitype/StillImage" />
      </cc:Work>
    </rdf:RDF>
  </metadata>
  <sodipodi:namedview
     inkscape:current-layer="svg1036"
     inkscape:window-maximized="1"
     inkscape:window-y="203"
     inkscape:window-x="0"
     inkscape:cy="200"
     inkscape:cx="283"
     inkscape:zoom="1.590106"
     showgrid="false"
     id="namedview1038"
     inkscape:window-height="855"
     inkscape:window-width="1440"
     inkscape:pageshadow="2"
     inkscape:pageopacity="0"
     guidetolerance="10"
     gridtolerance="10"
     objecttolerance="10"
     borderopacity="1"
     inkscape:document-rotation="0"
     bordercolor="#666666"
     pagecolor="#ffffff" />
  <!--Generated by the Batik Graphics2D SVG Generator-->
  <defs
     id="genericDefs">
    <defs
       id="defs1">
      <clipPath
         clipPathUnits="userSpaceOnUse"
         id="clipPath1">
        <path
           d="M0 0 L566 0 L566 400 L0 400 L0 0 Z"
           id="path834" />
      </clipPath>
    </defs>
  </defs>
  <g
     style="color-interpolation:linearRGB;fill:#262626;stroke:#262626;stroke-width:0.5;stroke-linejoin:round;color-rendering:optimizeQuality;image-rendering:optimizeQuality;text-rendering:geometricPrecision"
     id="g892">
    <line
       y2="354"
       style="fill:none"
       x1="73.5"
       x2="512"
       y1="354"
       id="line848" />
    <line
       y2="30"
       style="fill:none"
       x1="73.5"
       x2="512"
       y1="30"
       id="line850" />
    <line
       y2="349.61499"
       style="fill:none"
       x1="73.5"
       x2="73.5"
       y1="354"
       id="line852" />
    <line
       y2="349.61499"
       style="fill:none"
       x1="122.2222"
       x2="122.2222"
       y1="354"
       id="line854" />
    <line
       y2="349.61499"
       style="fill:none"
       x1="170.9444"
       x2="170.9444"
       y1="354"
       id="line856" />
    <line
       y2="349.61499"
       style="fill:none"
       x1="219.6667"
       x2="219.6667"
       y1="354"
       id="line858" />
    <line
       y2="349.61499"
       style="fill:none"
       x1="268.38889"
       x2="268.38889"
       y1="354"
       id="line860" />
    <line
       y2="349.61499"
       style="fill:none"
       x1="317.11111"
       x2="317.11111"
       y1="354"
       id="line862" />
    <line
       y2="349.61499"
       style="fill:none"
       x1="365.83331"
       x2="365.83331"
       y1="354"
       id="line864" />
    <line
       y2="349.61499"
       style="fill:none"
       x1="414.55551"
       x2="414.55551"
       y1="354"
       id="line866" />
    <line
       y2="349.61499"
       style="fill:none"
       x1="463.2778"
       x2="463.2778"
       y1="354"
       id="line868" />
    <line
       y2="349.61499"
       style="fill:none"
       x1="512"
       x2="512"
       y1="354"
       id="line870" />
    <line
       y2="34.384998"
       style="fill:none"
       x1="73.5"
       x2="73.5"
       y1="30"
       id="line872" />
    <line
       y2="34.384998"
       style="fill:none"
       x1="122.2222"
       x2="122.2222"
       y1="30"
       id="line874" />
    <line
       y2="34.384998"
       style="fill:none"
       x1="170.9444"
       x2="170.9444"
       y1="30"
       id="line876" />
    <line
       y2="34.384998"
       style="fill:none"
       x1="219.6667"
       x2="219.6667"
       y1="30"
       id="line878" />
    <line
       y2="34.384998"
       style="fill:none"
       x1="268.38889"
       x2="268.38889"
       y1="30"
       id="line880" />
    <line
       y2="34.384998"
       style="fill:none"
       x1="317.11111"
       x2="317.11111"
       y1="30"
       id="line882" />
    <line
       y2="34.384998"
       style="fill:none"
       x1="365.83331"
       x2="365.83331"
       y1="30"
       id="line884" />
    <line
       y2="34.384998"
       style="fill:none"
       x1="414.55551"
       x2="414.55551"
       y1="30"
       id="line886" />
    <line
       y2="34.384998"
       style="fill:none"
       x1="463.2778"
       x2="463.2778"
       y1="30"
       id="line888" />
    <line
       y2="34.384998"
       style="fill:none"
       x1="512"
       x2="512"
       y1="30"
       id="line890" />
  </g>
  <g
     transform="translate(73.5,359.2)"
     style="font-size:16px;font-family:'Helvetica Neue';color-interpolation:linearRGB;fill:#262626;stroke:#262626;color-rendering:optimizeQuality;image-rendering:optimizeQuality;text-rendering:geometricPrecision"
     id="g896">
    <path
       style="stroke:none"
       d="m -2.388,10.416 q 0,-0.416 0.008,-0.92 0.008,-0.504 0.08,-1.008 0.072,-0.504 0.208,-0.984 0.136,-0.48 0.4,-0.84 0.264,-0.36 0.664,-0.584 0.4,-0.224 0.976,-0.224 0.576,0 0.976,0.224 0.4,0.224 0.664,0.584 0.264,0.36 0.4,0.84 0.136,0.48 0.208,0.984 0.072,0.504 0.08,1.008 0.008,0.504 0.008,0.92 0,0.64 -0.04,1.432 -0.04,0.792 -0.256,1.488 -0.216,0.696 -0.696,1.176 -0.48,0.48 -1.344,0.48 -0.864,0 -1.344,-0.48 -0.48,-0.48 -0.696,-1.176 -0.216,-0.696 -0.256,-1.488 -0.04,-0.792 -0.04,-1.432 z m -1.44,0.016 q 0,0.624 0.032,1.296 0.032,0.672 0.16,1.312 0.128,0.64 0.368,1.208 0.24,0.568 0.656,1 0.416,0.432 1.048,0.68 0.632,0.248 1.512,0.248 0.896,0 1.52,-0.248 0.624,-0.248 1.04,-0.68 0.416,-0.432 0.656,-1 Q 3.404,13.68 3.532,13.04 3.66,12.4 3.692,11.728 3.724,11.056 3.724,10.432 3.724,9.808 3.692,9.136 3.66,8.464 3.532,7.824 3.404,7.184 3.164,6.608 2.924,6.032 2.508,5.6 2.092,5.168 1.46,4.912 0.828,4.656 -0.052,4.656 q -0.88,0 -1.512,0.256 -0.632,0.256 -1.048,0.688 -0.416,0.432 -0.656,1.008 -0.24,0.576 -0.368,1.216 -0.128,0.64 -0.16,1.312 -0.032,0.672 -0.032,1.296 z"
       id="path894"
       inkscape:connector-curvature="0" />
  </g>
  <g
     transform="translate(122.2222,359.2)"
     style="font-size:16px;font-family:'Helvetica Neue';color-interpolation:linearRGB;fill:#262626;stroke:#262626;color-rendering:optimizeQuality;image-rendering:optimizeQuality;text-rendering:geometricPrecision"
     id="g900">
    <path
       style="stroke:none"
       d="M 1.196,16 V 4.656 h -1.04 q -0.112,0.64 -0.416,1.056 -0.304,0.416 -0.744,0.656 -0.44,0.24 -0.984,0.328 -0.544,0.088 -1.12,0.088 v 1.088 h 2.944 V 16 Z"
       id="path898"
       inkscape:connector-curvature="0" />
  </g>
  <g
     transform="translate(170.9444,359.2)"
     style="font-size:16px;font-family:'Helvetica Neue';color-interpolation:linearRGB;fill:#262626;stroke:#262626;color-rendering:optimizeQuality;image-rendering:optimizeQuality;text-rendering:geometricPrecision"
     id="g904">
    <path
       style="stroke:none"
       d="m -3.796,8.672 h 1.36 Q -2.452,8.16 -2.332,7.656 -2.212,7.152 -1.94,6.752 -1.668,6.352 -1.244,6.104 -0.82,5.856 -0.228,5.856 0.22,5.856 0.62,6 q 0.4,0.144 0.696,0.416 0.296,0.272 0.472,0.648 0.176,0.376 0.176,0.84 0,0.592 -0.184,1.04 -0.184,0.448 -0.544,0.832 -0.36,0.384 -0.904,0.76 -0.544,0.376 -1.264,0.824 -0.592,0.352 -1.136,0.752 -0.544,0.4 -0.976,0.928 -0.432,0.528 -0.712,1.24 -0.28,0.712 -0.36,1.72 h 7.408 v -1.2 h -5.824 q 0.096,-0.528 0.408,-0.936 0.312,-0.408 0.752,-0.76 0.44,-0.352 0.968,-0.664 Q 0.124,12.128 0.652,11.808 1.18,11.472 1.676,11.104 2.172,10.736 2.556,10.28 2.94,9.824 3.172,9.248 3.404,8.672 3.404,7.92 3.404,7.12 3.124,6.512 2.844,5.904 2.364,5.496 1.884,5.088 1.236,4.872 0.588,4.656 -0.148,4.656 q -0.896,0 -1.6,0.304 -0.704,0.304 -1.176,0.84 -0.472,0.536 -0.696,1.272 -0.224,0.736 -0.176,1.6 z"
       id="path902"
       inkscape:connector-curvature="0" />
  </g>
  <g
     transform="translate(219.6667,359.2)"
     style="font-size:16px;font-family:'Helvetica Neue';color-interpolation:linearRGB;fill:#262626;stroke:#262626;color-rendering:optimizeQuality;image-rendering:optimizeQuality;text-rendering:geometricPrecision"
     id="g908">
    <path
       style="stroke:none"
       d="m -1.012,9.52 v 1.152 q 0.384,-0.048 0.816,-0.048 0.512,0 0.952,0.136 0.44,0.136 0.76,0.416 0.32,0.28 0.512,0.688 0.192,0.408 0.192,0.936 0,0.512 -0.2,0.92 -0.2,0.408 -0.536,0.688 -0.336,0.28 -0.784,0.432 -0.448,0.152 -0.944,0.152 -1.168,0 -1.776,-0.696 -0.608,-0.696 -0.64,-1.8 h -1.36 q -0.016,0.88 0.248,1.568 0.264,0.688 0.76,1.16 0.496,0.472 1.2,0.712 0.704,0.24 1.568,0.24 0.8,0 1.512,-0.216 0.712,-0.216 1.24,-0.648 0.528,-0.432 0.84,-1.08 Q 3.66,13.584 3.66,12.736 3.66,11.712 3.156,10.96 2.652,10.208 1.612,9.984 V 9.952 Q 2.284,9.648 2.732,9.056 3.18,8.464 3.18,7.696 3.18,6.912 2.916,6.336 2.652,5.76 2.188,5.392 1.724,5.024 1.092,4.84 0.46,4.656 -0.276,4.656 -1.124,4.656 -1.772,4.928 -2.42,5.2 -2.852,5.68 -3.284,6.16 -3.516,6.832 -3.748,7.504 -3.78,8.32 h 1.36 q 0,-0.496 0.128,-0.944 0.128,-0.448 0.392,-0.784 0.264,-0.336 0.672,-0.536 0.408,-0.2 0.952,-0.2 0.864,0 1.44,0.456 Q 1.74,6.768 1.74,7.68 1.74,8.128 1.564,8.48 1.388,8.832 1.092,9.064 0.796,9.296 0.404,9.416 0.012,9.536 -0.42,9.536 h -0.288 q -0.08,0 -0.16,0 -0.064,0 -0.144,-0.016 z"
       id="path906"
       inkscape:connector-curvature="0" />
  </g>
  <g
     transform="translate(268.3889,359.2)"
     style="font-size:16px;font-family:'Helvetica Neue';color-interpolation:linearRGB;fill:#262626;stroke:#262626;color-rendering:optimizeQuality;image-rendering:optimizeQuality;text-rendering:geometricPrecision"
     id="g912">
    <path
       style="stroke:none"
       d="M 0.924,12.144 H -2.884 L 0.892,6.592 h 0.032 z m 1.28,0 V 4.656 H 1.116 l -5.168,7.376 v 1.312 H 0.924 V 16 h 1.28 V 13.344 H 3.74 v -1.2 z"
       id="path910"
       inkscape:connector-curvature="0" />
  </g>
  <g
     transform="translate(317.1111,359.2)"
     style="font-size:16px;font-family:'Helvetica Neue';color-interpolation:linearRGB;fill:#262626;stroke:#262626;color-rendering:optimizeQuality;image-rendering:optimizeQuality;text-rendering:geometricPrecision"
     id="g916">
    <path
       style="stroke:none"
       d="m 3.02,6.048 v -1.2 h -5.6 l -1.056,5.888 1.168,0.064 q 0.4,-0.48 0.92,-0.776 0.52,-0.296 1.192,-0.296 0.576,0 1.048,0.192 0.472,0.192 0.808,0.536 0.336,0.344 0.52,0.816 0.184,0.472 0.184,1.032 0,0.672 -0.192,1.176 -0.192,0.504 -0.52,0.84 -0.328,0.336 -0.768,0.504 -0.44,0.168 -0.92,0.168 -0.512,0 -0.936,-0.152 -0.424,-0.152 -0.736,-0.432 -0.312,-0.28 -0.496,-0.656 -0.184,-0.376 -0.216,-0.808 h -1.36 q 0.016,0.768 0.304,1.376 0.288,0.608 0.784,1.016 0.496,0.408 1.144,0.624 0.648,0.216 1.384,0.216 0.992,0 1.736,-0.312 0.744,-0.312 1.24,-0.84 0.496,-0.528 0.744,-1.208 0.248,-0.68 0.248,-1.4 0,-0.976 -0.288,-1.704 Q 3.068,9.984 2.572,9.496 2.076,9.008 1.404,8.768 0.732,8.528 -0.02,8.528 q -0.576,0 -1.16,0.2 -0.584,0.2 -0.952,0.616 L -2.164,9.312 -1.556,6.048 Z"
       id="path914"
       inkscape:connector-curvature="0" />
  </g>
  <g
     transform="translate(365.8333,359.2)"
     style="font-size:16px;font-family:'Helvetica Neue';color-interpolation:linearRGB;fill:#262626;stroke:#262626;color-rendering:optimizeQuality;image-rendering:optimizeQuality;text-rendering:geometricPrecision"
     id="g920">
    <path
       style="stroke:none"
       d="m 2.124,7.552 h 1.36 Q 3.356,6.144 2.524,5.4 1.692,4.656 0.284,4.656 q -1.216,0 -2.016,0.512 -0.8,0.512 -1.28,1.36 -0.48,0.848 -0.68,1.944 -0.2,1.096 -0.2,2.264 0,0.896 0.136,1.856 0.136,0.96 0.552,1.76 0.416,0.8 1.184,1.312 0.768,0.512 2.032,0.512 1.072,0 1.8,-0.36 Q 2.54,15.456 2.98,14.904 3.42,14.352 3.612,13.68 3.804,13.008 3.804,12.384 3.804,11.6 3.564,10.928 3.324,10.256 2.884,9.76 2.444,9.264 1.796,8.984 1.148,8.704 0.332,8.704 q -0.928,0 -1.64,0.352 Q -2.02,9.408 -2.5,10.192 L -2.532,10.16 Q -2.516,9.504 -2.404,8.752 -2.292,8 -1.996,7.352 -1.7,6.704 -1.172,6.28 -0.644,5.856 0.22,5.856 q 0.816,0 1.312,0.464 0.496,0.464 0.592,1.232 z M 0.076,9.904 q 0.576,0 1.008,0.208 0.432,0.208 0.72,0.552 0.288,0.344 0.424,0.816 0.136,0.472 0.136,1 0,0.496 -0.152,0.952 -0.152,0.456 -0.44,0.808 -0.288,0.352 -0.712,0.552 -0.424,0.2 -0.984,0.2 -0.56,0 -1,-0.2 -0.44,-0.2 -0.736,-0.536 -0.296,-0.336 -0.456,-0.8 -0.16,-0.464 -0.16,-0.992 0,-0.528 0.152,-1 0.152,-0.472 0.456,-0.816 0.304,-0.344 0.736,-0.544 0.432,-0.2 1.008,-0.2 z"
       id="path918"
       inkscape:connector-curvature="0" />
  </g>
  <g
     transform="translate(414.5555,359.2)"
     style="font-size:16px;font-family:'Helvetica Neue';color-interpolation:linearRGB;fill:#262626;stroke:#262626;color-rendering:optimizeQuality;image-rendering:optimizeQuality;text-rendering:geometricPrecision"
     id="g924">
    <path
       style="stroke:none"
       d="M 3.644,6.016 V 4.848 H -3.7 v 1.28 H 2.252 Q 1.356,7.072 0.58,8.192 -0.196,9.312 -0.788,10.568 -1.38,11.824 -1.756,13.192 -2.132,14.56 -2.228,16 h 1.52 Q -0.628,14.672 -0.26,13.264 0.108,11.856 0.692,10.528 1.276,9.2 2.028,8.032 2.78,6.864 3.644,6.016 Z"
       id="path922"
       inkscape:connector-curvature="0" />
  </g>
  <g
     transform="translate(463.2778,359.2)"
     style="font-size:16px;font-family:'Helvetica Neue';color-interpolation:linearRGB;fill:#262626;stroke:#262626;color-rendering:optimizeQuality;image-rendering:optimizeQuality;text-rendering:geometricPrecision"
     id="g928">
    <path
       style="stroke:none"
       d="m -2.02,7.6 q 0,-0.432 0.16,-0.752 0.16,-0.32 0.424,-0.544 0.264,-0.224 0.632,-0.336 0.368,-0.112 0.768,-0.112 0.832,0 1.368,0.44 0.536,0.44 0.536,1.304 0,0.864 -0.528,1.344 -0.528,0.48 -1.344,0.48 -0.416,0 -0.784,-0.112 Q -1.156,9.2 -1.428,8.976 -1.7,8.752 -1.86,8.408 -2.02,8.064 -2.02,7.6 Z M -3.46,7.552 q 0,0.768 0.432,1.416 0.432,0.648 1.152,0.936 -0.96,0.336 -1.472,1.08 -0.512,0.744 -0.512,1.752 0,0.864 0.296,1.512 0.296,0.648 0.816,1.08 0.52,0.432 1.224,0.64 0.704,0.208 1.52,0.208 0.784,0 1.472,-0.224 0.688,-0.224 1.192,-0.664 0.504,-0.44 0.8,-1.08 0.296,-0.64 0.296,-1.472 0,-1.056 -0.496,-1.784 Q 2.764,10.224 1.74,9.904 2.46,9.584 2.884,8.952 3.308,8.32 3.308,7.552 3.308,7.008 3.116,6.488 2.924,5.968 2.516,5.56 2.108,5.152 1.452,4.904 0.796,4.656 -0.132,4.656 q -0.656,0 -1.256,0.192 -0.6,0.192 -1.064,0.56 -0.464,0.368 -0.736,0.904 -0.272,0.536 -0.272,1.24 z m 1.04,5.248 q 0,-0.496 0.184,-0.896 0.184,-0.4 0.512,-0.688 0.328,-0.288 0.768,-0.44 0.44,-0.152 0.936,-0.152 0.48,0 0.904,0.168 0.424,0.168 0.744,0.456 0.32,0.288 0.504,0.68 0.184,0.392 0.184,0.856 0,0.48 -0.168,0.88 -0.168,0.4 -0.48,0.696 -0.312,0.296 -0.736,0.464 -0.424,0.168 -0.936,0.168 -1.056,0 -1.736,-0.584 -0.68,-0.584 -0.68,-1.608 z"
       id="path926"
       inkscape:connector-curvature="0" />
  </g>
  <g
     transform="translate(512,359.2)"
     style="font-size:16px;font-family:'Helvetica Neue';color-interpolation:linearRGB;fill:#262626;stroke:#262626;color-rendering:optimizeQuality;image-rendering:optimizeQuality;text-rendering:geometricPrecision"
     id="g932">
    <path
       style="stroke:none"
       d="m -2.356,13.264 h -1.36 q 0.128,1.472 1.072,2.192 0.944,0.72 2.368,0.72 2.064,0 3,-1.576 Q 3.66,13.024 3.66,10.08 3.66,8.464 3.348,7.416 3.036,6.368 2.508,5.76 1.98,5.152 1.276,4.904 0.572,4.656 -0.228,4.656 q -0.816,0 -1.504,0.272 -0.688,0.272 -1.184,0.76 -0.496,0.488 -0.768,1.168 -0.272,0.68 -0.272,1.496 0,0.832 0.232,1.536 0.232,0.704 0.688,1.2 0.456,0.496 1.128,0.776 0.672,0.28 1.536,0.28 0.832,0 1.536,-0.424 0.704,-0.424 1.088,-1.144 l 0.032,0.032 q -0.064,2.224 -0.688,3.304 -0.624,1.08 -1.872,1.08 -0.816,0 -1.408,-0.448 -0.592,-0.448 -0.672,-1.28 z m 4.4,-4.816 q 0,0.496 -0.16,0.952 -0.16,0.456 -0.464,0.8 -0.304,0.344 -0.736,0.544 -0.432,0.2 -0.96,0.2 -0.496,0 -0.904,-0.2 -0.408,-0.2 -0.704,-0.536 Q -2.18,9.872 -2.348,9.44 -2.516,9.008 -2.516,8.544 q 0,-0.528 0.12,-1.008 0.12,-0.48 0.384,-0.856 0.264,-0.376 0.688,-0.6 0.424,-0.224 1.032,-0.224 0.576,0 1.008,0.208 0.432,0.208 0.728,0.568 0.296,0.36 0.448,0.824 0.152,0.464 0.152,0.992 z"
       id="path930"
       inkscape:connector-curvature="0" />
  </g>
  <g
     transform="translate(292.7502,379.2)"
     style="font-size:17.6px;font-family:'Helvetica Neue';color-interpolation:linearRGB;fill:#262626;stroke:#262626;color-rendering:optimizeQuality;image-rendering:optimizeQuality;text-rendering:geometricPrecision"
     id="g936">
    <path
       style="stroke:none"
       d="M -18.6128,15.856 V 17 h 7.6736 v -1.32 h -5.808 l 5.5616,-6.7584 V 7.9008 h -7.0752 v 1.32 h 5.1392 z m 16.544,4.6112 h 1.144 q -1.2496,-2.024 -1.7864,-4.0128 -0.5368,-1.9888 -0.5368,-4.2064 0,-2.1648 0.528,-4.136 0.528,-1.9712 1.7952,-3.9776 h -1.144 q -1.3728,1.8128 -2.068,3.9248 -0.6952,2.112 -0.6952,4.1888 0,1.1616 0.1936,2.2176 0.1936,1.056 0.5544,2.0592 0.3608,1.0032 0.8712,1.98 0.5104,0.9768 1.144,1.9624 z M 0.0256,7.9008 V 17 h 1.496 v -5.6672 q 0,-0.264 0.132,-0.66 0.132,-0.396 0.4224,-0.7656 0.2904,-0.3696 0.7568,-0.6336 0.4664,-0.264 1.1176,-0.264 0.5104,0 0.836,0.1496 0.3256,0.1496 0.5192,0.4224 0.1936,0.2728 0.2728,0.6424 0.0792,0.3696 0.0792,0.8096 V 17 h 1.496 v -5.6672 q 0,-1.056 0.6336,-1.6896 0.6336,-0.6336 1.7424,-0.6336 0.5456,0 0.8888,0.1584 0.3432,0.1584 0.5368,0.4312 0.1936,0.2728 0.264,0.6424 0.0704,0.3696 0.0704,0.792 V 17 h 1.496 v -6.6704 q 0,-0.704 -0.22,-1.2056 -0.22,-0.5016 -0.616,-0.8184 Q 11.5536,7.9888 10.9992,7.8392 10.4448,7.6896 9.7584,7.6896 8.8608,7.6896 8.1128,8.0944 7.3648,8.4992 6.9072,9.2384 6.6256,8.3936 5.9392,8.0416 5.2528,7.6896 4.408,7.6896 q -1.9184,0 -2.9392,1.5488 H 1.4336 V 7.9008 Z m 13.728,12.5664 H 14.88 q 1.3728,-1.8128 2.068,-3.916 0.6952,-2.1032 0.6952,-4.18 0,-1.1616 -0.1936,-2.2176 Q 17.256,9.0976 16.8952,8.0856 16.5344,7.0736 16.024,6.0968 15.5136,5.12 14.88,4.1344 h -1.1264 q 1.232,2.024 1.7688,4.0216 0.5368,1.9976 0.5368,4.2152 0,2.1472 -0.528,4.1272 -0.528,1.98 -1.7776,3.9688 z"
       id="path934"
       inkscape:connector-curvature="0" />
  </g>
  <g
     style="color-interpolation:linearRGB;fill:#262626;stroke:#262626;stroke-width:0.5;stroke-linejoin:round;color-rendering:optimizeQuality;image-rendering:optimizeQuality;text-rendering:geometricPrecision"
     id="g966">
    <line
       y2="30"
       style="fill:none"
       x1="73.5"
       x2="73.5"
       y1="354"
       id="line938" />
    <line
       y2="30"
       style="fill:none"
       x1="512"
       x2="512"
       y1="354"
       id="line940" />
    <line
       y2="354"
       style="fill:none"
       x1="73.5"
       x2="77.885002"
       y1="354"
       id="line942" />
    <line
       y2="289.20001"
       style="fill:none"
       x1="73.5"
       x2="77.885002"
       y1="289.20001"
       id="line944" />
    <line
       y2="224.39999"
       style="fill:none"
       x1="73.5"
       x2="77.885002"
       y1="224.39999"
       id="line946" />
    <line
       y2="159.60001"
       style="fill:none"
       x1="73.5"
       x2="77.885002"
       y1="159.60001"
       id="line948" />
    <line
       y2="94.800003"
       style="fill:none"
       x1="73.5"
       x2="77.885002"
       y1="94.800003"
       id="line950" />
    <line
       y2="30"
       style="fill:none"
       x1="73.5"
       x2="77.885002"
       y1="30"
       id="line952" />
    <line
       y2="354"
       style="fill:none"
       x1="512"
       x2="507.61499"
       y1="354"
       id="line954" />
    <line
       y2="289.20001"
       style="fill:none"
       x1="512"
       x2="507.61499"
       y1="289.20001"
       id="line956" />
    <line
       y2="224.39999"
       style="fill:none"
       x1="512"
       x2="507.61499"
       y1="224.39999"
       id="line958" />
    <line
       y2="159.60001"
       style="fill:none"
       x1="512"
       x2="507.61499"
       y1="159.60001"
       id="line960" />
    <line
       y2="94.800003"
       style="fill:none"
       x1="512"
       x2="507.61499"
       y1="94.800003"
       id="line962" />
    <line
       y2="30"
       style="fill:none"
       x1="512"
       x2="507.61499"
       y1="30"
       id="line964" />
  </g>
  <g
     transform="translate(68.3,354)"
     style="font-size:16px;font-family:'Helvetica Neue';color-interpolation:linearRGB;fill:#262626;stroke:#262626;color-rendering:optimizeQuality;image-rendering:optimizeQuality;text-rendering:geometricPrecision"
     id="g970">
    <path
       style="stroke:none"
       d="m -26.296,-1.328 h 1.36 q -0.016,-0.512 0.104,-1.016 0.12,-0.504 0.392,-0.904 0.272,-0.4 0.696,-0.648 0.424,-0.248 1.016,-0.248 0.448,0 0.848,0.144 0.4,0.144 0.696,0.416 0.296,0.272 0.472,0.648 0.176,0.376 0.176,0.84 0,0.592 -0.184,1.04 -0.184,0.448 -0.544,0.832 -0.36,0.384 -0.904,0.76 -0.544,0.376 -1.264,0.824 -0.592,0.352 -1.136,0.752 -0.544,0.4 -0.976,0.928 -0.432,0.528 -0.712,1.24 -0.28,0.712 -0.36,1.72 h 7.408 V 4.8 h -5.824 q 0.096,-0.528 0.408,-0.936 0.312,-0.408 0.752,-0.76 0.44,-0.352 0.968,-0.664 0.528,-0.312 1.056,-0.632 0.528,-0.336 1.024,-0.704 0.496,-0.368 0.88,-0.824 0.384,-0.456 0.616,-1.032 0.232,-0.576 0.232,-1.328 0,-0.8 -0.28,-1.408 -0.28,-0.608 -0.76,-1.016 -0.48,-0.408 -1.128,-0.624 -0.648,-0.216 -1.384,-0.216 -0.896,0 -1.6,0.304 -0.704,0.304 -1.176,0.84 -0.472,0.536 -0.696,1.272 -0.224,0.736 -0.176,1.6 z m 15.712,-2.624 v -1.2 h -5.6 l -1.056,5.888 1.168,0.064 q 0.4,-0.48 0.92,-0.776 0.52,-0.296 1.192,-0.296 0.576,0 1.048,0.192 0.472,0.192 0.808,0.536 0.336,0.344 0.52,0.816 0.184,0.472 0.184,1.032 0,0.672 -0.192,1.176 -0.192,0.504 -0.52,0.84 -0.328,0.336 -0.768,0.504 -0.44,0.168 -0.92,0.168 -0.512,0 -0.936,-0.152 -0.424,-0.152 -0.736,-0.432 -0.312,-0.28 -0.496,-0.656 -0.184,-0.376 -0.216,-0.808 h -1.36 q 0.016,0.768 0.304,1.376 0.288,0.608 0.784,1.016 0.496,0.408 1.144,0.624 0.648,0.216 1.384,0.216 0.992,0 1.736,-0.312 0.744,-0.312 1.24,-0.84 0.496,-0.528 0.744,-1.208 0.248,-0.68 0.248,-1.4 0,-0.976 -0.288,-1.704 -0.288,-0.728 -0.784,-1.216 -0.496,-0.488 -1.168,-0.728 -0.672,-0.24 -1.424,-0.24 -0.576,0 -1.16,0.2 -0.584,0.2 -0.952,0.616 l -0.032,-0.032 0.608,-3.264 z m 3.488,4.368 q 0,-0.416 0.008,-0.92 0.008,-0.504 0.08,-1.008 0.072,-0.504 0.208,-0.984 0.136,-0.48 0.4,-0.84 0.264,-0.36 0.664,-0.584 0.4,-0.224 0.976,-0.224 0.576,0 0.976,0.224 0.4,0.224 0.664,0.584 0.264,0.36 0.4,0.84 0.136,0.48 0.208,0.984 0.072,0.504 0.08,1.008 0.008,0.504 0.008,0.92 0,0.64 -0.04,1.432 -0.04,0.792 -0.256,1.488 -0.216,0.696 -0.696,1.176 -0.48,0.48 -1.344,0.48 -0.864,0 -1.344,-0.48 Q -6.584,4.032 -6.8,3.336 -7.016,2.64 -7.056,1.848 -7.096,1.056 -7.096,0.416 Z m -1.44,0.016 q 0,0.624 0.032,1.296 0.032,0.672 0.16,1.312 0.128,0.64 0.368,1.208 0.24,0.568 0.656,1 0.416,0.432 1.048,0.68 0.632,0.248 1.512,0.248 0.896,0 1.52,-0.248 0.624,-0.248 1.04,-0.68 0.416,-0.432 0.656,-1 0.24,-0.568 0.368,-1.208 0.128,-0.64 0.16,-1.312 0.032,-0.672 0.032,-1.296 0,-0.624 -0.032,-1.296 -0.032,-0.672 -0.16,-1.312 -0.128,-0.64 -0.368,-1.216 Q -1.784,-3.968 -2.2,-4.4 -2.616,-4.832 -3.248,-5.088 -3.88,-5.344 -4.76,-5.344 q -0.88,0 -1.512,0.256 -0.632,0.256 -1.048,0.688 -0.416,0.432 -0.656,1.008 -0.24,0.576 -0.368,1.216 -0.128,0.64 -0.16,1.312 -0.032,0.672 -0.032,1.296 z"
       id="path968"
       inkscape:connector-curvature="0" />
  </g>
  <g
     transform="translate(68.3,289.2)"
     style="font-size:16px;font-family:'Helvetica Neue';color-interpolation:linearRGB;fill:#262626;stroke:#262626;color-rendering:optimizeQuality;image-rendering:optimizeQuality;text-rendering:geometricPrecision"
     id="g974">
    <path
       style="stroke:none"
       d="m -23.512,-0.48 v 1.152 q 0.384,-0.048 0.816,-0.048 0.512,0 0.952,0.136 0.44,0.136 0.76,0.416 0.32,0.28 0.512,0.688 0.192,0.408 0.192,0.936 0,0.512 -0.2,0.92 -0.2,0.408 -0.536,0.688 -0.336,0.28 -0.784,0.432 -0.448,0.152 -0.944,0.152 -1.168,0 -1.776,-0.696 -0.608,-0.696 -0.64,-1.8 h -1.36 q -0.016,0.88 0.248,1.568 0.264,0.688 0.76,1.16 0.496,0.472 1.2,0.712 0.704,0.24 1.568,0.24 0.8,0 1.512,-0.216 0.712,-0.216 1.24,-0.648 0.528,-0.432 0.84,-1.08 0.312,-0.648 0.312,-1.496 0,-1.024 -0.504,-1.776 -0.504,-0.752 -1.544,-0.976 v -0.032 q 0.672,-0.304 1.12,-0.896 0.448,-0.592 0.448,-1.36 0,-0.784 -0.264,-1.36 -0.264,-0.576 -0.728,-0.944 -0.464,-0.368 -1.096,-0.552 -0.632,-0.184 -1.368,-0.184 -0.848,0 -1.496,0.272 -0.648,0.272 -1.08,0.752 -0.432,0.48 -0.664,1.152 -0.232,0.672 -0.264,1.488 h 1.36 q 0,-0.496 0.128,-0.944 0.128,-0.448 0.392,-0.784 0.264,-0.336 0.672,-0.536 0.408,-0.2 0.952,-0.2 0.864,0 1.44,0.456 0.576,0.456 0.576,1.368 0,0.448 -0.176,0.8 -0.176,0.352 -0.472,0.584 -0.296,0.232 -0.688,0.352 -0.392,0.12 -0.824,0.12 h -0.288 q -0.08,0 -0.16,0 -0.064,0 -0.144,-0.016 z m 7.52,0.896 q 0,-0.416 0.008,-0.92 0.008,-0.504 0.08,-1.008 0.072,-0.504 0.208,-0.984 0.136,-0.48 0.4,-0.84 0.264,-0.36 0.664,-0.584 0.4,-0.224 0.976,-0.224 0.576,0 0.976,0.224 0.4,0.224 0.664,0.584 0.264,0.36 0.4,0.84 0.136,0.48 0.208,0.984 0.072,0.504 0.08,1.008 0.008,0.504 0.008,0.92 0,0.64 -0.04,1.432 -0.04,0.792 -0.256,1.488 -0.216,0.696 -0.696,1.176 -0.48,0.48 -1.344,0.48 -0.864,0 -1.344,-0.48 -0.48,-0.48 -0.696,-1.176 -0.216,-0.696 -0.256,-1.488 -0.04,-0.792 -0.04,-1.432 z m -1.44,0.016 q 0,0.624 0.032,1.296 0.032,0.672 0.16,1.312 0.128,0.64 0.368,1.208 0.24,0.568 0.656,1 0.416,0.432 1.048,0.68 0.632,0.248 1.512,0.248 0.896,0 1.52,-0.248 0.624,-0.248 1.04,-0.68 0.416,-0.432 0.656,-1 0.24,-0.568 0.368,-1.208 0.128,-0.64 0.16,-1.312 0.032,-0.672 0.032,-1.296 0,-0.624 -0.032,-1.296 -0.032,-0.672 -0.16,-1.312 -0.128,-0.64 -0.368,-1.216 -0.24,-0.576 -0.656,-1.008 -0.416,-0.432 -1.048,-0.688 -0.632,-0.256 -1.512,-0.256 -0.88,0 -1.512,0.256 -0.632,0.256 -1.048,0.688 -0.416,0.432 -0.656,1.008 -0.24,0.576 -0.368,1.216 -0.128,0.64 -0.16,1.312 -0.032,0.672 -0.032,1.296 z M -7.096,0.416 q 0,-0.416 0.008,-0.92 0.008,-0.504 0.08,-1.008 0.072,-0.504 0.208,-0.984 0.136,-0.48 0.4,-0.84 0.264,-0.36 0.664,-0.584 0.4,-0.224 0.976,-0.224 0.576,0 0.976,0.224 0.4,0.224 0.664,0.584 0.264,0.36 0.4,0.84 0.136,0.48 0.208,0.984 0.072,0.504 0.08,1.008 0.008,0.504 0.008,0.92 0,0.64 -0.04,1.432 -0.04,0.792 -0.256,1.488 -0.216,0.696 -0.696,1.176 -0.48,0.48 -1.344,0.48 -0.864,0 -1.344,-0.48 Q -6.584,4.032 -6.8,3.336 -7.016,2.64 -7.056,1.848 -7.096,1.056 -7.096,0.416 Z m -1.44,0.016 q 0,0.624 0.032,1.296 0.032,0.672 0.16,1.312 0.128,0.64 0.368,1.208 0.24,0.568 0.656,1 0.416,0.432 1.048,0.68 0.632,0.248 1.512,0.248 0.896,0 1.52,-0.248 0.624,-0.248 1.04,-0.68 0.416,-0.432 0.656,-1 0.24,-0.568 0.368,-1.208 0.128,-0.64 0.16,-1.312 0.032,-0.672 0.032,-1.296 0,-0.624 -0.032,-1.296 -0.032,-0.672 -0.16,-1.312 -0.128,-0.64 -0.368,-1.216 Q -1.784,-3.968 -2.2,-4.4 -2.616,-4.832 -3.248,-5.088 -3.88,-5.344 -4.76,-5.344 q -0.88,0 -1.512,0.256 -0.632,0.256 -1.048,0.688 -0.416,0.432 -0.656,1.008 -0.24,0.576 -0.368,1.216 -0.128,0.64 -0.16,1.312 -0.032,0.672 -0.032,1.296 z"
       id="path972"
       inkscape:connector-curvature="0" />
  </g>
  <g
     transform="translate(68.3,224.4)"
     style="font-size:16px;font-family:'Helvetica Neue';color-interpolation:linearRGB;fill:#262626;stroke:#262626;color-rendering:optimizeQuality;image-rendering:optimizeQuality;text-rendering:geometricPrecision"
     id="g978">
    <path
       style="stroke:none"
       d="m -23.512,-0.48 v 1.152 q 0.384,-0.048 0.816,-0.048 0.512,0 0.952,0.136 0.44,0.136 0.76,0.416 0.32,0.28 0.512,0.688 0.192,0.408 0.192,0.936 0,0.512 -0.2,0.92 -0.2,0.408 -0.536,0.688 -0.336,0.28 -0.784,0.432 -0.448,0.152 -0.944,0.152 -1.168,0 -1.776,-0.696 -0.608,-0.696 -0.64,-1.8 h -1.36 q -0.016,0.88 0.248,1.568 0.264,0.688 0.76,1.16 0.496,0.472 1.2,0.712 0.704,0.24 1.568,0.24 0.8,0 1.512,-0.216 0.712,-0.216 1.24,-0.648 0.528,-0.432 0.84,-1.08 0.312,-0.648 0.312,-1.496 0,-1.024 -0.504,-1.776 -0.504,-0.752 -1.544,-0.976 v -0.032 q 0.672,-0.304 1.12,-0.896 0.448,-0.592 0.448,-1.36 0,-0.784 -0.264,-1.36 -0.264,-0.576 -0.728,-0.944 -0.464,-0.368 -1.096,-0.552 -0.632,-0.184 -1.368,-0.184 -0.848,0 -1.496,0.272 -0.648,0.272 -1.08,0.752 -0.432,0.48 -0.664,1.152 -0.232,0.672 -0.264,1.488 h 1.36 q 0,-0.496 0.128,-0.944 0.128,-0.448 0.392,-0.784 0.264,-0.336 0.672,-0.536 0.408,-0.2 0.952,-0.2 0.864,0 1.44,0.456 0.576,0.456 0.576,1.368 0,0.448 -0.176,0.8 -0.176,0.352 -0.472,0.584 -0.296,0.232 -0.688,0.352 -0.392,0.12 -0.824,0.12 h -0.288 q -0.08,0 -0.16,0 -0.064,0 -0.144,-0.016 z m 12.928,-3.472 v -1.2 h -5.6 l -1.056,5.888 1.168,0.064 q 0.4,-0.48 0.92,-0.776 0.52,-0.296 1.192,-0.296 0.576,0 1.048,0.192 0.472,0.192 0.808,0.536 0.336,0.344 0.52,0.816 0.184,0.472 0.184,1.032 0,0.672 -0.192,1.176 -0.192,0.504 -0.52,0.84 -0.328,0.336 -0.768,0.504 -0.44,0.168 -0.92,0.168 -0.512,0 -0.936,-0.152 -0.424,-0.152 -0.736,-0.432 -0.312,-0.28 -0.496,-0.656 -0.184,-0.376 -0.216,-0.808 h -1.36 q 0.016,0.768 0.304,1.376 0.288,0.608 0.784,1.016 0.496,0.408 1.144,0.624 0.648,0.216 1.384,0.216 0.992,0 1.736,-0.312 0.744,-0.312 1.24,-0.84 0.496,-0.528 0.744,-1.208 0.248,-0.68 0.248,-1.4 0,-0.976 -0.288,-1.704 -0.288,-0.728 -0.784,-1.216 -0.496,-0.488 -1.168,-0.728 -0.672,-0.24 -1.424,-0.24 -0.576,0 -1.16,0.2 -0.584,0.2 -0.952,0.616 l -0.032,-0.032 0.608,-3.264 z m 3.488,4.368 q 0,-0.416 0.008,-0.92 0.008,-0.504 0.08,-1.008 0.072,-0.504 0.208,-0.984 0.136,-0.48 0.4,-0.84 0.264,-0.36 0.664,-0.584 0.4,-0.224 0.976,-0.224 0.576,0 0.976,0.224 0.4,0.224 0.664,0.584 0.264,0.36 0.4,0.84 0.136,0.48 0.208,0.984 0.072,0.504 0.08,1.008 0.008,0.504 0.008,0.92 0,0.64 -0.04,1.432 -0.04,0.792 -0.256,1.488 -0.216,0.696 -0.696,1.176 -0.48,0.48 -1.344,0.48 -0.864,0 -1.344,-0.48 Q -6.584,4.032 -6.8,3.336 -7.016,2.64 -7.056,1.848 -7.096,1.056 -7.096,0.416 Z m -1.44,0.016 q 0,0.624 0.032,1.296 0.032,0.672 0.16,1.312 0.128,0.64 0.368,1.208 0.24,0.568 0.656,1 0.416,0.432 1.048,0.68 0.632,0.248 1.512,0.248 0.896,0 1.52,-0.248 0.624,-0.248 1.04,-0.68 0.416,-0.432 0.656,-1 0.24,-0.568 0.368,-1.208 0.128,-0.64 0.16,-1.312 0.032,-0.672 0.032,-1.296 0,-0.624 -0.032,-1.296 -0.032,-0.672 -0.16,-1.312 -0.128,-0.64 -0.368,-1.216 Q -1.784,-3.968 -2.2,-4.4 -2.616,-4.832 -3.248,-5.088 -3.88,-5.344 -4.76,-5.344 q -0.88,0 -1.512,0.256 -0.632,0.256 -1.048,0.688 -0.416,0.432 -0.656,1.008 -0.24,0.576 -0.368,1.216 -0.128,0.64 -0.16,1.312 -0.032,0.672 -0.032,1.296 z"
       id="path976"
       inkscape:connector-curvature="0" />
  </g>
  <g
     transform="translate(68.3,159.6)"
     style="font-size:16px;font-family:'Helvetica Neue';color-interpolation:linearRGB;fill:#262626;stroke:#262626;color-rendering:optimizeQuality;image-rendering:optimizeQuality;text-rendering:geometricPrecision"
     id="g982">
    <path
       style="stroke:none"
       d="m -21.576,2.144 h -3.808 l 3.776,-5.552 h 0.032 z m 1.28,0 v -7.488 h -1.088 l -5.168,7.376 v 1.312 h 4.976 V 6 h 1.28 V 3.344 h 1.536 v -1.2 z m 4.304,-1.728 q 0,-0.416 0.008,-0.92 0.008,-0.504 0.08,-1.008 0.072,-0.504 0.208,-0.984 0.136,-0.48 0.4,-0.84 0.264,-0.36 0.664,-0.584 0.4,-0.224 0.976,-0.224 0.576,0 0.976,0.224 0.4,0.224 0.664,0.584 0.264,0.36 0.4,0.84 0.136,0.48 0.208,0.984 0.072,0.504 0.08,1.008 0.008,0.504 0.008,0.92 0,0.64 -0.04,1.432 -0.04,0.792 -0.256,1.488 -0.216,0.696 -0.696,1.176 -0.48,0.48 -1.344,0.48 -0.864,0 -1.344,-0.48 -0.48,-0.48 -0.696,-1.176 -0.216,-0.696 -0.256,-1.488 -0.04,-0.792 -0.04,-1.432 z m -1.44,0.016 q 0,0.624 0.032,1.296 0.032,0.672 0.16,1.312 0.128,0.64 0.368,1.208 0.24,0.568 0.656,1 0.416,0.432 1.048,0.68 0.632,0.248 1.512,0.248 0.896,0 1.52,-0.248 0.624,-0.248 1.04,-0.68 0.416,-0.432 0.656,-1 0.24,-0.568 0.368,-1.208 0.128,-0.64 0.16,-1.312 0.032,-0.672 0.032,-1.296 0,-0.624 -0.032,-1.296 -0.032,-0.672 -0.16,-1.312 -0.128,-0.64 -0.368,-1.216 -0.24,-0.576 -0.656,-1.008 -0.416,-0.432 -1.048,-0.688 -0.632,-0.256 -1.512,-0.256 -0.88,0 -1.512,0.256 -0.632,0.256 -1.048,0.688 -0.416,0.432 -0.656,1.008 -0.24,0.576 -0.368,1.216 -0.128,0.64 -0.16,1.312 -0.032,0.672 -0.032,1.296 z M -7.096,0.416 q 0,-0.416 0.008,-0.92 0.008,-0.504 0.08,-1.008 0.072,-0.504 0.208,-0.984 0.136,-0.48 0.4,-0.84 0.264,-0.36 0.664,-0.584 0.4,-0.224 0.976,-0.224 0.576,0 0.976,0.224 0.4,0.224 0.664,0.584 0.264,0.36 0.4,0.84 0.136,0.48 0.208,0.984 0.072,0.504 0.08,1.008 0.008,0.504 0.008,0.92 0,0.64 -0.04,1.432 -0.04,0.792 -0.256,1.488 -0.216,0.696 -0.696,1.176 -0.48,0.48 -1.344,0.48 -0.864,0 -1.344,-0.48 Q -6.584,4.032 -6.8,3.336 -7.016,2.64 -7.056,1.848 -7.096,1.056 -7.096,0.416 Z m -1.44,0.016 q 0,0.624 0.032,1.296 0.032,0.672 0.16,1.312 0.128,0.64 0.368,1.208 0.24,0.568 0.656,1 0.416,0.432 1.048,0.68 0.632,0.248 1.512,0.248 0.896,0 1.52,-0.248 0.624,-0.248 1.04,-0.68 0.416,-0.432 0.656,-1 0.24,-0.568 0.368,-1.208 0.128,-0.64 0.16,-1.312 0.032,-0.672 0.032,-1.296 0,-0.624 -0.032,-1.296 -0.032,-0.672 -0.16,-1.312 -0.128,-0.64 -0.368,-1.216 Q -1.784,-3.968 -2.2,-4.4 -2.616,-4.832 -3.248,-5.088 -3.88,-5.344 -4.76,-5.344 q -0.88,0 -1.512,0.256 -0.632,0.256 -1.048,0.688 -0.416,0.432 -0.656,1.008 -0.24,0.576 -0.368,1.216 -0.128,0.64 -0.16,1.312 -0.032,0.672 -0.032,1.296 z"
       id="path980"
       inkscape:connector-curvature="0" />
  </g>
  <g
     transform="translate(68.3,94.8)"
     style="font-size:16px;font-family:'Helvetica Neue';color-interpolation:linearRGB;fill:#262626;stroke:#262626;color-rendering:optimizeQuality;image-rendering:optimizeQuality;text-rendering:geometricPrecision"
     id="g986">
    <path
       style="stroke:none"
       d="m -21.576,2.144 h -3.808 l 3.776,-5.552 h 0.032 z m 1.28,0 v -7.488 h -1.088 l -5.168,7.376 v 1.312 h 4.976 V 6 h 1.28 V 3.344 h 1.536 v -1.2 z m 9.712,-6.096 v -1.2 h -5.6 l -1.056,5.888 1.168,0.064 q 0.4,-0.48 0.92,-0.776 0.52,-0.296 1.192,-0.296 0.576,0 1.048,0.192 0.472,0.192 0.808,0.536 0.336,0.344 0.52,0.816 0.184,0.472 0.184,1.032 0,0.672 -0.192,1.176 -0.192,0.504 -0.52,0.84 -0.328,0.336 -0.768,0.504 -0.44,0.168 -0.92,0.168 -0.512,0 -0.936,-0.152 -0.424,-0.152 -0.736,-0.432 -0.312,-0.28 -0.496,-0.656 -0.184,-0.376 -0.216,-0.808 h -1.36 q 0.016,0.768 0.304,1.376 0.288,0.608 0.784,1.016 0.496,0.408 1.144,0.624 0.648,0.216 1.384,0.216 0.992,0 1.736,-0.312 0.744,-0.312 1.24,-0.84 0.496,-0.528 0.744,-1.208 0.248,-0.68 0.248,-1.4 0,-0.976 -0.288,-1.704 -0.288,-0.728 -0.784,-1.216 -0.496,-0.488 -1.168,-0.728 -0.672,-0.24 -1.424,-0.24 -0.576,0 -1.16,0.2 -0.584,0.2 -0.952,0.616 l -0.032,-0.032 0.608,-3.264 z m 3.488,4.368 q 0,-0.416 0.008,-0.92 0.008,-0.504 0.08,-1.008 0.072,-0.504 0.208,-0.984 0.136,-0.48 0.4,-0.84 0.264,-0.36 0.664,-0.584 0.4,-0.224 0.976,-0.224 0.576,0 0.976,0.224 0.4,0.224 0.664,0.584 0.264,0.36 0.4,0.84 0.136,0.48 0.208,0.984 0.072,0.504 0.08,1.008 0.008,0.504 0.008,0.92 0,0.64 -0.04,1.432 -0.04,0.792 -0.256,1.488 -0.216,0.696 -0.696,1.176 -0.48,0.48 -1.344,0.48 -0.864,0 -1.344,-0.48 Q -6.584,4.032 -6.8,3.336 -7.016,2.64 -7.056,1.848 -7.096,1.056 -7.096,0.416 Z m -1.44,0.016 q 0,0.624 0.032,1.296 0.032,0.672 0.16,1.312 0.128,0.64 0.368,1.208 0.24,0.568 0.656,1 0.416,0.432 1.048,0.68 0.632,0.248 1.512,0.248 0.896,0 1.52,-0.248 0.624,-0.248 1.04,-0.68 0.416,-0.432 0.656,-1 0.24,-0.568 0.368,-1.208 0.128,-0.64 0.16,-1.312 0.032,-0.672 0.032,-1.296 0,-0.624 -0.032,-1.296 -0.032,-0.672 -0.16,-1.312 -0.128,-0.64 -0.368,-1.216 Q -1.784,-3.968 -2.2,-4.4 -2.616,-4.832 -3.248,-5.088 -3.88,-5.344 -4.76,-5.344 q -0.88,0 -1.512,0.256 -0.632,0.256 -1.048,0.688 -0.416,0.432 -0.656,1.008 -0.24,0.576 -0.368,1.216 -0.128,0.64 -0.16,1.312 -0.032,0.672 -0.032,1.296 z"
       id="path984"
       inkscape:connector-curvature="0" />
  </g>
  <g
     transform="translate(68.3,30)"
     style="font-size:16px;font-family:'Helvetica Neue';color-interpolation:linearRGB;fill:#262626;stroke:#262626;color-rendering:optimizeQuality;image-rendering:optimizeQuality;text-rendering:geometricPrecision"
     id="g990">
    <path
       style="stroke:none"
       d="m -19.48,-3.952 v -1.2 h -5.6 l -1.056,5.888 1.168,0.064 q 0.4,-0.48 0.92,-0.776 0.52,-0.296 1.192,-0.296 0.576,0 1.048,0.192 0.472,0.192 0.808,0.536 0.336,0.344 0.52,0.816 0.184,0.472 0.184,1.032 0,0.672 -0.192,1.176 -0.192,0.504 -0.52,0.84 -0.328,0.336 -0.768,0.504 -0.44,0.168 -0.92,0.168 -0.512,0 -0.936,-0.152 -0.424,-0.152 -0.736,-0.432 -0.312,-0.28 -0.496,-0.656 -0.184,-0.376 -0.216,-0.808 h -1.36 q 0.016,0.768 0.304,1.376 0.288,0.608 0.784,1.016 0.496,0.408 1.144,0.624 0.648,0.216 1.384,0.216 0.992,0 1.736,-0.312 0.744,-0.312 1.24,-0.84 0.496,-0.528 0.744,-1.208 0.248,-0.68 0.248,-1.4 0,-0.976 -0.288,-1.704 -0.288,-0.728 -0.784,-1.216 -0.496,-0.488 -1.168,-0.728 -0.672,-0.24 -1.424,-0.24 -0.576,0 -1.16,0.2 -0.584,0.2 -0.952,0.616 l -0.032,-0.032 0.608,-3.264 z m 3.488,4.368 q 0,-0.416 0.008,-0.92 0.008,-0.504 0.08,-1.008 0.072,-0.504 0.208,-0.984 0.136,-0.48 0.4,-0.84 0.264,-0.36 0.664,-0.584 0.4,-0.224 0.976,-0.224 0.576,0 0.976,0.224 0.4,0.224 0.664,0.584 0.264,0.36 0.4,0.84 0.136,0.48 0.208,0.984 0.072,0.504 0.08,1.008 0.008,0.504 0.008,0.92 0,0.64 -0.04,1.432 -0.04,0.792 -0.256,1.488 -0.216,0.696 -0.696,1.176 -0.48,0.48 -1.344,0.48 -0.864,0 -1.344,-0.48 -0.48,-0.48 -0.696,-1.176 -0.216,-0.696 -0.256,-1.488 -0.04,-0.792 -0.04,-1.432 z m -1.44,0.016 q 0,0.624 0.032,1.296 0.032,0.672 0.16,1.312 0.128,0.64 0.368,1.208 0.24,0.568 0.656,1 0.416,0.432 1.048,0.68 0.632,0.248 1.512,0.248 0.896,0 1.52,-0.248 0.624,-0.248 1.04,-0.68 0.416,-0.432 0.656,-1 0.24,-0.568 0.368,-1.208 0.128,-0.64 0.16,-1.312 0.032,-0.672 0.032,-1.296 0,-0.624 -0.032,-1.296 -0.032,-0.672 -0.16,-1.312 -0.128,-0.64 -0.368,-1.216 -0.24,-0.576 -0.656,-1.008 -0.416,-0.432 -1.048,-0.688 -0.632,-0.256 -1.512,-0.256 -0.88,0 -1.512,0.256 -0.632,0.256 -1.048,0.688 -0.416,0.432 -0.656,1.008 -0.24,0.576 -0.368,1.216 -0.128,0.64 -0.16,1.312 -0.032,0.672 -0.032,1.296 z M -7.096,0.416 q 0,-0.416 0.008,-0.92 0.008,-0.504 0.08,-1.008 0.072,-0.504 0.208,-0.984 0.136,-0.48 0.4,-0.84 0.264,-0.36 0.664,-0.584 0.4,-0.224 0.976,-0.224 0.576,0 0.976,0.224 0.4,0.224 0.664,0.584 0.264,0.36 0.4,0.84 0.136,0.48 0.208,0.984 0.072,0.504 0.08,1.008 0.008,0.504 0.008,0.92 0,0.64 -0.04,1.432 -0.04,0.792 -0.256,1.488 -0.216,0.696 -0.696,1.176 -0.48,0.48 -1.344,0.48 -0.864,0 -1.344,-0.48 Q -6.584,4.032 -6.8,3.336 -7.016,2.64 -7.056,1.848 -7.096,1.056 -7.096,0.416 Z m -1.44,0.016 q 0,0.624 0.032,1.296 0.032,0.672 0.16,1.312 0.128,0.64 0.368,1.208 0.24,0.568 0.656,1 0.416,0.432 1.048,0.68 0.632,0.248 1.512,0.248 0.896,0 1.52,-0.248 0.624,-0.248 1.04,-0.68 0.416,-0.432 0.656,-1 0.24,-0.568 0.368,-1.208 0.128,-0.64 0.16,-1.312 0.032,-0.672 0.032,-1.296 0,-0.624 -0.032,-1.296 -0.032,-0.672 -0.16,-1.312 -0.128,-0.64 -0.368,-1.216 Q -1.784,-3.968 -2.2,-4.4 -2.616,-4.832 -3.248,-5.088 -3.88,-5.344 -4.76,-5.344 q -0.88,0 -1.512,0.256 -0.632,0.256 -1.048,0.688 -0.416,0.432 -0.656,1.008 -0.24,0.576 -0.368,1.216 -0.128,0.64 -0.16,1.312 -0.032,0.672 -0.032,1.296 z"
       id="path988"
       inkscape:connector-curvature="0" />
  </g>
  <g
     transform="rotate(-90,125.5,98.5)"
     style="font-size:17.6px;font-family:mwb_cmmi10;color-interpolation:linearRGB;fill:#262626;stroke:#262626;color-rendering:optimizeQuality;image-rendering:optimizeQuality;text-rendering:geometricPrecision"
     id="g994">
    <path
       style="stroke:none"
       d="m 3.3594,0.2031 q -0.7969,0 -1.4141,-0.3828 -0.6172,-0.3828 -0.9531,-1.0312 -0.336,-0.6485 -0.336,-1.4297 0,-0.8438 0.375,-1.7656 0.375,-0.9219 1.0313,-1.6876 0.6563,-0.7656 1.4844,-1.2187 0.8281,-0.4531 1.6875,-0.4531 h 4.5468 q 0.1719,0 0.3047,0.125 0.1329,0.125 0.1329,0.3437 0,0.25 -0.1876,0.4531 -0.1874,0.2032 -0.4531,0.2032 H 7.3906 q 0.5156,0.7656 0.5156,1.875 0,0.8906 -0.3515,1.7734 -0.3516,0.8828 -0.9766,1.6094 -0.625,0.7266 -1.4531,1.1562 -0.8281,0.4297 -1.7656,0.4297 z m 0.0312,-0.4687 q 0.9844,0 1.7422,-0.7735 0.7578,-0.7734 1.1641,-1.8828 0.4062,-1.1093 0.4062,-2.0625 0,-0.7656 -0.4297,-1.2109 -0.4296,-0.4453 -1.1953,-0.4453 -1.0469,0 -1.7812,0.7031 -0.7344,0.7031 -1.0938,1.7656 -0.3593,1.0625 -0.3593,2.0469 0,0.7656 0.4062,1.3125 0.4062,0.5469 1.1406,0.5469 z"
       id="path992"
       inkscape:connector-curvature="0" />
  </g>
  <g
     transform="rotate(-90,124,89)"
     style="font-size:14.08px;font-family:'Helvetica Neue';color-interpolation:linearRGB;fill:#262626;stroke:#262626;color-rendering:optimizeQuality;image-rendering:optimizeQuality;text-rendering:geometricPrecision"
     id="g998">
    <path
       style="stroke:none"
       d="M 2.8582,-3.8298 0.1267,0 H 1.577 L 3.6045,-3.0131 5.632,0 H 7.1667 L 4.3507,-3.9283 6.857,-7.2794 H 5.4208 L 3.6045,-4.7309 1.8586,-7.2794 H 0.3238 Z"
       id="path996"
       inkscape:connector-curvature="0" />
  </g>
  <g
     transform="rotate(-90,116,89)"
     style="font-size:17.6px;font-family:'Helvetica Neue';color-interpolation:linearRGB;fill:#262626;stroke:#262626;color-rendering:optimizeQuality;image-rendering:optimizeQuality;text-rendering:geometricPrecision"
     id="g1002">
    <path
       style="stroke:none"
       d="m 8.4832,3.4672 h 1.144 Q 8.3776,1.4432 7.8408,-0.5456 7.304,-2.5344 7.304,-4.752 q 0,-2.1648 0.528,-4.136 0.528,-1.9712 1.7952,-3.9776 h -1.144 q -1.3728,1.8128 -2.068,3.9248 -0.6952,2.112 -0.6952,4.1888 0,1.1616 0.1936,2.2176 0.1936,1.056 0.5544,2.0592 0.3608,1.0032 0.8712,1.98 0.5104,0.9768 1.144,1.9624 z M 10.5776,-9.0992 V 0 h 1.496 v -5.6672 q 0,-0.264 0.132,-0.66 0.132,-0.396 0.4224,-0.7656 0.2904,-0.3696 0.7568,-0.6336 0.4664,-0.264 1.1176,-0.264 0.5104,0 0.836,0.1496 0.3256,0.1496 0.5192,0.4224 0.1936,0.2728 0.2728,0.6424 0.0792,0.3696 0.0792,0.8096 V 0 h 1.496 v -5.6672 q 0,-1.056 0.6336,-1.6896 0.6336,-0.6336 1.7424,-0.6336 0.5456,0 0.8888,0.1584 0.3432,0.1584 0.5368,0.4312 0.1936,0.2728 0.264,0.6424 0.0704,0.3696 0.0704,0.792 V 0 h 1.496 v -6.6704 q 0,-0.704 -0.22,-1.2056 -0.22,-0.5016 -0.616,-0.8184 -0.396,-0.3168 -0.9504,-0.4664 -0.5544,-0.1496 -1.2408,-0.1496 -0.8976,0 -1.6456,0.4048 -0.748,0.4048 -1.2056,1.144 -0.2816,-0.8448 -0.968,-1.1968 -0.6864,-0.352 -1.5312,-0.352 -1.9184,0 -2.9392,1.5488 h -0.0352 v -1.3376 z m 15.0128,0 V 0 h 1.496 v -5.6672 q 0,-0.264 0.132,-0.66 0.132,-0.396 0.4224,-0.7656 0.2904,-0.3696 0.7568,-0.6336 0.4664,-0.264 1.1176,-0.264 0.5104,0 0.836,0.1496 0.3256,0.1496 0.5192,0.4224 0.1936,0.2728 0.2728,0.6424 0.0792,0.3696 0.0792,0.8096 V 0 h 1.496 v -5.6672 q 0,-1.056 0.6336,-1.6896 0.6336,-0.6336 1.7424,-0.6336 0.5456,0 0.8888,0.1584 0.3432,0.1584 0.5368,0.4312 0.1936,0.2728 0.264,0.6424 0.0704,0.3696 0.0704,0.792 V 0 h 1.496 v -6.6704 q 0,-0.704 -0.22,-1.2056 -0.22,-0.5016 -0.616,-0.8184 -0.396,-0.3168 -0.9504,-0.4664 -0.5544,-0.1496 -1.2408,-0.1496 -0.8976,0 -1.6456,0.4048 -0.748,0.4048 -1.2056,1.144 -0.2816,-0.8448 -0.968,-1.1968 -0.6864,-0.352 -1.5312,-0.352 -1.9184,0 -2.9392,1.5488 h -0.0352 v -1.3376 z m 13.728,12.5664 h 1.1264 q 1.3728,-1.8128 2.068,-3.916 0.6952,-2.1032 0.6952,-4.18 0,-1.1616 -0.1936,-2.2176 -0.1936,-1.056 -0.5544,-2.068 -0.3608,-1.012 -0.8712,-1.9888 -0.5104,-0.9768 -1.144,-1.9624 h -1.1264 q 1.232,2.024 1.7688,4.0216 0.5368,1.9976 0.5368,4.2152 0,2.1472 -0.528,4.1272 -0.528,1.98 -1.7776,3.9688 z"
       id="path1000"
       inkscape:connector-curvature="0" />
  </g>
  <g
     style="color-interpolation:linearRGB;fill:#0072bd;stroke:#0072bd;stroke-width:3;stroke-linecap:butt;stroke-linejoin:round;color-rendering:optimizeQuality;image-rendering:optimizeQuality;text-rendering:geometricPrecision"
     id="g1008">
    <path
       d="m 73.9916,341.2065 h 0.2458 0.2457 l 0.2458,-1e-4 h 0.2458 l 0.2458,-2e-4 0.2458,-2e-4 0.2457,-4e-4 0.2458,-6e-4 0.2458,-6e-4 0.2458,-8e-4 0.2458,-10e-4 0.2458,-0.001 0.2457,-0.002 0.2458,-0.002 0.2458,-0.002 0.2458,-0.002 0.2458,-0.002 0.2458,-0.003 0.2457,-0.003 0.2458,-0.003 0.2458,-0.003 0.2458,-0.003 0.2458,-0.004 0.2458,-0.004 0.2457,-0.004 0.2458,-0.004 0.2458,-0.005 0.2458,-0.005 0.2458,-0.005 0.2458,-0.005 0.2457,-0.005 0.2458,-0.005 0.2458,-0.006 0.2458,-0.006 0.2458,-0.006 0.2458,-0.006 0.2457,-0.006 0.2458,-0.006 0.2458,-0.007 0.2458,-0.007 0.2458,-0.007 0.2457,-0.007 0.2458,-0.007 0.2458,-0.008 0.2458,-0.008 0.2458,-0.008 0.2458,-0.008 0.2457,-0.008 0.2458,-0.009 0.2458,-0.009 0.2458,-0.009 0.2458,-0.009 0.2458,-0.009 0.2457,-0.01 0.2458,-0.01 0.2458,-0.01 0.2458,-0.01 0.2458,-0.0102 0.2458,-0.0103 0.2457,-0.0104 0.2458,-0.0107 0.2458,-0.0108 0.2458,-0.011 0.2458,-0.0112 0.2458,-0.0114 0.2457,-0.0116 0.2458,-0.0117 0.2458,-0.0119 0.2458,-0.012 0.2458,-0.0123 0.2457,-0.0125 0.2458,-0.0125 0.2458,-0.0128 0.2458,-0.013 0.2458,-0.0131 0.2458,-0.0134 0.2457,-0.0135 0.2458,-0.0136 0.2458,-0.0139 0.2458,-0.0141 0.2458,-0.0142 0.2458,-0.0144 0.2457,-0.0145 0.2458,-0.0148 0.2458,-0.0149 0.2458,-0.0151 0.2458,-0.0152 0.2458,-0.0155 0.2457,-0.0156 0.2458,-0.0159 0.2458,-0.0159 0.2458,-0.0162 0.2458,-0.0163 0.2458,-0.0165 0.2457,-0.0167 0.2458,-0.0169 0.2458,-0.017 0.2458,-0.0173 0.2458,-0.0174 0.2457,-0.0175 0.2458,-0.0178 0.2458,-0.0179 0.2458,-0.0181 0.2458,-0.0183 0.2458,-0.0185 0.2457,-0.0186 0.2458,-0.0188 0.2458,-0.019 0.2458,-0.0191 0.2458,-0.0194 0.2458,-0.0195 0.2457,-0.0197 0.2458,-0.0199 0.2458,-0.02 0.2458,-0.0203 0.2458,-0.0203 0.2458,-0.0206 0.2457,-0.0207 0.2458,-0.021 0.2458,-0.0211 0.2458,-0.0213 0.2458,-0.0214 0.2458,-0.0216 0.2457,-0.0218 0.2458,-0.022 0.2458,-0.0222 0.2458,-0.0223 0.2458,-0.0225 0.2458,-0.0227 0.2457,-0.0229 0.2458,-0.023 0.2458,-0.0232 0.2458,-0.0234 0.2458,-0.0236 0.2457,-0.0237 0.2458,-0.0239 0.2458,-0.0241 0.2458,-0.0243 0.2458,-0.0244 0.2458,-0.0246 0.2457,-0.0248 0.2458,-0.025 0.2458,-0.0251 0.2458,-0.0254 0.2458,-0.0255 0.2458,-0.0256 0.2457,-0.0259 0.2458,-0.026 0.2458,-0.0262 0.2458,-0.0263 0.2458,-0.0266 0.2458,-0.0267 0.2457,-0.027 0.2458,-0.027 0.2458,-0.0273 0.2458,-0.0274 0.2458,-0.0276 0.2458,-0.0278 0.2457,-0.0279 0.2458,-0.0282 0.2458,-0.0282 0.2458,-0.0285 0.2458,-0.0287 0.2457,-0.0288 0.2458,-0.029 0.2458,-0.0292 0.2458,-0.0294 0.2458,-0.0295 0.2458,-0.0297 0.2458,-0.0299 0.2457,-0.03 0.2458,-0.0303 0.2458,-0.0303 0.2458,-0.0307 0.2458,-0.0307 0.2457,-0.0309 0.2458,-0.0311 0.2458,-0.0313 0.2458,-0.0315 0.2458,-0.0316 0.2458,-0.0318 0.2457,-0.032 0.2458,-0.0322 0.2458,-0.0323 0.2458,-0.0325 0.2458,-0.0327 0.2458,-0.0329 0.2457,-0.033 0.2458,-0.0332 0.2458,-0.0334 0.2458,-0.0335 0.2458,-0.0338 0.2458,-0.0339 0.2457,-0.034 0.2458,-0.0343 0.2458,-0.0344 0.2458,-0.0347 0.2458,-0.0348 0.2458,-0.0349 0.2457,-0.0351 0.2458,-0.0354 0.2458,-0.0354 0.2458,-0.0357 0.2458,-0.0358 0.2458,-0.0361 0.2457,-0.0361 0.2458,-0.0364 0.2458,-0.0365 0.2458,-0.0367 0.2458,-0.0369 0.2457,-0.0371 0.2458,-0.0372 0.2458,-0.0374 0.2458,-0.0376 0.2458,-0.0378 0.2458,-0.0379 0.2457,-0.0381 0.2458,-0.0383 0.2458,-0.0384 0.2458,-0.0387 0.2458,-0.0388 0.2458,-0.0389 0.2457,-0.0392 0.2458,-0.0394 0.2458,-0.0395 0.2458,-0.0396 0.2458,-0.0399 0.2458,-0.04 0.2457,-0.0402 0.2458,-0.0404 0.2458,-0.0406 0.2458,-0.0407 0.2458,-0.0409 0.2458,-0.0411 0.2457,-0.0412 0.2458,-0.0415 0.2458,-0.0416 0.2458,-0.0418 0.2458,-0.0419 0.2457,-0.0422 0.2458,-0.0422 0.2458,-0.0425 0.2458,-0.0427 0.2458,-0.0428 0.2458,-0.043 0.2457,-0.0432 0.2458,-0.0433 0.2458,-0.0436 0.2458,-0.0437 0.2458,-0.0438 0.2458,-0.0441 0.2457,-0.0442 0.2458,-0.0444 0.2458,-0.0446 0.2458,-0.0447 0.2458,-0.045 0.2458,-0.045 0.2457,-0.0453 0.2458,-0.0455 0.2458,-0.0456 0.2458,-0.0458 0.2458,-0.046 0.2458,-0.0461 0.2457,-0.0463 0.2458,-0.0465 0.2458,-0.0467 0.2458,-0.0469 0.2458,-0.047 0.2457,-0.0472 0.2458,-0.0473 0.2458,-0.0476 0.2458,-0.0477 0.2458,-0.0479 0.2458,-0.048 0.2457,-0.0483 0.2458,-0.0484 0.2458,-0.0486 0.2458,-0.0487 0.2458,-0.049 0.2458,-0.0491 0.2457,-0.0493 0.2458,-0.0494 0.2458,-0.0497 0.2458,-0.0498 0.2458,-0.05 0.2458,-0.0501 0.2457,-0.0503 0.2458,-0.0505 0.2458,-0.0508 0.2458,-0.0508 0.2458,-0.051 0.2458,-0.0513 0.2457,-0.0513 0.2458,-0.0516 0.2458,-0.0517 0.2458,-0.0519 0.2458,-0.0521 0.2458,-0.0522 0.2457,-0.0525 0.2458,-0.0526 0.2458,-0.0527 0.2458,-0.053 0.2458,-0.0531 0.2457,-0.0533 0.2458,-0.0535 0.2458,-0.0536 0.2458,-0.0539 0.2458,-0.054 0.2458,-0.0541 0.2457,-0.0544 0.2458,-0.0545 0.2458,-0.0547 0.2458,-0.0548 0.2458,-0.0551 0.2458,-0.0552 0.2458,-0.0554 0.2457,-0.0555 0.2458,-0.0558 0.2458,-0.0559 0.2458,-0.0561 0.2458,-0.0563 0.2458,-0.0564 0.2457,-0.0566 0.2458,-0.0568 0.2458,-0.0569 0.2458,-0.0571 0.2458,-0.0574 0.2457,-0.0575 0.2458,-0.0576 0.2458,-0.0578 0.2458,-0.058 0.2458,-0.0582 0.2457,-0.0584 0.2458,-0.0585 0.2458,-0.0587 0.2458,-0.0588 0.2458,-0.0591 0.2458,-0.0592 0.2458,-0.0594 0.2457,-0.0596 0.2458,-0.0597 0.2458,-0.0599 0.2458,-0.0601 0.2458,-0.0603 0.2458,-0.0604 0.2457,-0.0606 0.2458,-0.0608 0.2458,-0.0609 0.2458,-0.0612 0.2458,-0.0613 0.2457,-0.0615 0.2458,-0.0616 0.2458,-0.0619 0.2458,-0.062 0.2458,-0.0621 0.2458,-0.0624 0.2457,-0.0625 0.2458,-0.0627 0.2458,-0.0629 0.2458,-0.063 0.2458,-0.0633 0.2458,-0.0633 0.2457,-0.0636 0.2458,-0.0637 0.2458,-0.0639 0.2458,-0.0642 0.2458,-0.0642 0.2458,-0.0644 0.2457,-0.0647 0.2458,-0.0647 0.2458,-0.065 0.2458,-0.0651 0.2458,-0.0653 0.2458,-0.0655 0.2457,-0.0657 0.2458,-0.0658 0.2458,-0.066 0.2458,-0.0661 0.2458,-0.0664 0.2458,-0.0665 0.2457,-0.0667 0.2458,-0.0669 0.2458,-0.067 0.2458,-0.0672 0.2458,-0.0674 0.2458,-0.0675 0.2457,-0.0678 0.2458,-0.0679 0.2458,-0.0681 0.2458,-0.0682 0.2458,-0.0684 0.2457,-0.0686 0.2458,-0.0688 0.2458,-0.069 0.2458,-0.0691 0.2458,-0.0693 0.2458,-0.0694 0.2457,-0.0697 0.2458,-0.0698 0.2458,-0.07 0.2458,-0.0701 0.2458,-0.0703 0.2458,-0.0706 0.2457,-0.0706 0.2458,-0.0709 0.2458,-0.071 0.2458,-0.0712 0.2458,-0.0714 0.2458,-0.0715 0.2457,-0.0717 0.2458,-0.0719 0.2458,-0.0721 0.2458,-0.0723 0.2458,-0.0723 0.2458,-0.0726 0.2457,-0.0728 0.2458,-0.0729 0.2458,-0.0731 0.2458,-0.0733 0.2458,-0.0734 0.2458,-0.0737 0.2457,-0.0737 0.2458,-0.0741 0.2458,-0.0741 0.2458,-0.0743 0.2458,-0.0745 0.2457,-0.0746 0.2458,-0.0749 0.2458,-0.0749 0.2458,-0.0752 0.2458,-0.0754 0.2458,-0.0755 0.2457,-0.0757 0.2458,-0.0759 0.2458,-0.076 0.2458,-0.0762 0.2458,-0.0764 0.2458,-0.0766 0.2457,-0.0767 0.2458,-0.0769 0.2458,-0.0771 0.2458,-0.0772 0.2458,-0.0775 0.2458,-0.0776 0.2457,-0.0777 0.2458,-0.078 0.2458,-0.0781 0.2458,-0.0783 0.2458,-0.0784 0.2457,-0.0787 0.2458,-0.0788 0.2458,-0.079 0.2458,-0.0791 0.2458,-0.0793 0.2458,-0.0795 0.2457,-0.0797 0.2458,-0.0798 0.2458,-0.08 0.2458,-0.0802 0.2458,-0.0804 0.2458,-0.0805 0.2457,-0.0807 0.2458,-0.0809 0.2458,-0.081 0.2458,-0.0812 0.2458,-0.0814 0.2458,-0.0816 0.2457,-0.0817 0.2458,-0.082 0.2458,-0.082 0.2458,-0.0823 0.2458,-0.0824 0.2458,-0.0826 0.2457,-0.0828 0.2458,-0.0829 0.2458,-0.0831 0.2458,-0.0833 0.2458,-0.0834 0.2457,-0.0836 0.2458,-0.0838 0.2458,-0.084 0.2458,-0.0842 0.2458,-0.0843 0.2458,-0.0845 0.2457,-0.0846 0.2458,-0.0849 0.2458,-0.0849 0.2458,-0.0853 0.2458,-0.0853 0.2458,-0.0855 0.2457,-0.0857 0.2458,-0.0858 0.2458,-0.0861 0.2458,-0.0862 0.2458,-0.0864 0.2458,-0.0865 0.2457,-0.0867 0.2458,-0.0869 0.2458,-0.0871 0.2458,-0.0872 0.2458,-0.0874 0.2458,-0.0876 0.2457,-0.0878 0.2458,-0.0879 0.2458,-0.0881 0.2458,-0.0883 0.2458,-0.0884 0.2458,-0.0886 0.2457,-0.0888 0.2458,-0.0889 0.2458,-0.0891 0.2458,-0.0893 0.2458,-0.0895 0.2458,-0.0897 0.2457,-0.0897 0.2458,-0.09 0.2458,-0.0902 0.2458,-0.0903 0.2458,-0.0905 0.2457,-0.0907 0.2458,-0.0908 0.2458,-0.091 0.2458,-0.0912 0.2458,-0.0913 0.2458,-0.0915 0.2457,-0.0917 0.2458,-0.0919 0.2458,-0.092 0.2458,-0.0922 0.2458,-0.0924 0.2458,-0.0926 0.2457,-0.0927 0.2458,-0.0928 0.2458,-0.0931 0.2458,-0.0932 0.2458,-0.0934 0.2458,-0.0936 0.2457,-0.0937 0.2458,-0.0939 0.2458,-0.0941 0.2458,-0.0943 0.2458,-0.0944 0.2458,-0.0946 0.2457,-0.0948 0.2458,-0.0949 0.2458,-0.0951 0.2458,-0.0953 0.2458,-0.0954 0.2458,-0.0956 0.2457,-0.0958 0.2458,-0.096 0.2458,-0.0961 0.2458,-0.0963 0.2458,-0.0965 0.2457,-0.0966 0.2458,-0.0968 0.2458,-0.097 0.2458,-0.0972 0.2458,-0.0973 0.2458,-0.0975 0.2457,-0.0976 0.2458,-0.0979 0.2458,-0.098 0.2458,-0.0982 0.2458,-0.0983 0.2458,-0.0985 0.2457,-0.0987 0.2458,-0.0989 0.2458,-0.099 0.2458,-0.0992 0.2458,-0.0993 0.2458,-0.0995 0.2457,-0.0997 0.2458,-0.0999 0.2458,-0.1001 0.2458,-0.1002 0.2458,-0.1004 0.2457,-0.1005 0.2458,-0.1008 0.2458,-0.1008 0.2458,-0.1011 0.2458,-0.1012 0.2458,-0.1014 0.2457,-0.1016 0.2458,-0.1018 0.2458,-0.1018 0.2458,-0.1021 0.2458,-0.1023 0.2458,-0.1024 0.2457,-0.1026 0.2458,-0.1027 0.2458,-0.103 0.2458,-0.1031 0.2458,-0.1032 0.2458,-0.1035 0.2457,-0.1036 0.2458,-0.1038 0.2458,-0.1039 0.2458,-0.1041 0.2458,-0.1043 0.2458,-0.1044 0.2458,-0.1047 0.2457,-0.1047 0.2458,-0.105 0.2458,-0.1051 0.2458,-0.1053 0.2457,-0.1055 0.2458,-0.1056 0.2458,-0.1058 0.2458,-0.106 0.2458,-0.1061 0.2458,-0.1063 0.2457,-0.1065 0.2458,-0.1066 0.2458,-0.1069 0.2458,-0.1069 0.2458,-0.1072 0.2458,-0.1074 0.2457,-0.1074 0.2458,-0.1077 0.2458,-0.1078 0.2458,-0.108 0.2458,-0.1081 0.2458,-0.1084 0.2458,-0.1085 0.2457,-0.1086 0.2458,-0.1089 0.2458,-0.109 0.2458,-0.1092 0.2458,-0.1093 0.2458,-0.1095 0.2457,-0.1097 0.2458,-0.1099 0.2458,-0.11 0.2458,-0.1102 0.2458,-0.1103 0.2458,-0.1106 0.2457,-0.1106 0.2458,-0.1109 0.2458,-0.111 0.2458,-0.1112 0.2458,-0.1114 0.2457,-0.1115 0.2458,-0.1117 0.2458,-0.1119 0.2458,-0.112 0.2458,-0.1122 0.2458,-0.1124 0.2457,-0.1125 0.2458,-0.1127 0.2458,-0.1129 0.2458,-0.113 0.2458,-0.1132 0.2458,-0.1134 0.2457,-0.1135 0.2458,-0.1137 0.2458,-0.1139 0.2458,-0.1141 0.2458,-0.1142 0.2457,-0.1144 0.2458,-0.1145 0.2458,-0.1147 0.2458,-0.1149 0.2458,-0.1151 0.2458,-0.1152 0.2457,-0.1153 0.2458,-0.1156 0.2458,-0.1157 0.2458,-0.1159 0.2458,-0.1161 0.2458,-0.1162 0.2457,-0.1164 0.2458,-0.1165 0.2458,-0.1167 0.2458,-0.117 0.2458,-0.117 0.2458,-0.1172 0.2457,-0.1174 0.2458,-0.1175 0.2458,-0.1178 0.2458,-0.1178 0.2458,-0.1181 0.2458,-0.1182 0.2457,-0.1184 0.2458,-0.1186 0.2458,-0.1187 0.2458,-0.1189 0.2458,-0.119 0.2458,-0.1192 0.2457,-0.1194 0.2458,-0.1196 0.2458,-0.1197 0.2458,-0.1199 0.2458,-0.12 0.2457,-0.1203 0.2458,-0.1203 0.2458,-0.1206 0.2458,-0.1207 0.2458,-0.1209 0.2458,-0.1211 0.2457,-0.1211 0.2458,-0.1214 0.2458,-0.1216 0.2458,-0.1217 0.2458,-0.1219 0.2458,-0.122 0.2457,-0.1222 0.2458,-0.1224 0.2458,-0.1226 0.2458,-0.1227 0.2458,-0.1228 0.2458,-0.1231 0.2457,-0.1232 0.2458,-0.1233 0.2458,-0.1236 0.2458,-0.1237 0.2458,-0.1238 0.2458,-0.1241 0.2457,-0.1242 0.2458,-0.1244 0.2458,-0.1245 0.2458,-0.1247 0.2458,-0.1248 0.2458,-0.125 0.2457,-0.1252 0.2458,-0.1254 0.2458,-0.1255 0.2458,-0.1257 0.2458,-0.1258 0.2458,-0.126 0.2457,-0.1262 0.2458,-0.1264 0.2458,-0.1265 0.2458,-0.1267 0.2458,-0.1268 0.2457,-0.127 0.2458,-0.1272 0.2458,-0.1273 0.2458,-0.1275 0.2458,-0.1277 0.2458,-0.1278 0.2458,-0.128 0.2457,-0.1281 0.2458,-0.1284 0.2458,-0.1284 0.2458,-0.1287 0.2458,-0.1288 0.2457,-0.129 0.2458,-0.1291 0.2458,-0.1293 0.2458,-0.1295 0.2458,-0.1296 0.2457,-0.1299 0.2458,-0.1299 0.2458,-0.1301 0.2458,-0.1303 0.2458,-0.1305 0.2458,-0.1306 0.2457,-0.1308 0.2458,-0.1309 0.2458,-0.1311 0.2458,-0.1313 0.2458,-0.1314 0.2458,-0.1316 0.2457,-0.1318 0.2458,-0.132 0.2458,-0.132 0.2458,-0.1323 0.2458,-0.1324 0.2458,-0.1326 0.2457,-0.1327 0.2458,-0.1329 0.2458,-0.1331 0.2458,-0.1333 0.2458,-0.1334 0.2458,-0.1335 0.2457,-0.1337 0.2458,-0.1339 0.2458,-0.134 0.2458,-0.1343 0.2458,-0.1344 0.2458,-0.1345 0.2457,-0.1347 0.2458,-0.1349 0.2458,-0.135 0.2458,-0.1352 0.2458,-0.1353 0.2458,-0.1356 0.2457,-0.1356 0.2458,-0.1359 0.2458,-0.136 0.2458,-0.1362 0.2458,-0.1363 0.2458,-0.1365 0.2457,-0.1366 0.2458,-0.1369 0.2458,-0.1369 0.2458,-0.1372 0.2458,-0.1373 0.2458,-0.1374 0.2457,-0.1377 0.2458,-0.1378 0.2458,-0.1379 0.2458,-0.1381 0.2457,-0.1383 0.2459,-0.1385 0.2457,-0.1386 0.2458,-0.1387 0.2458,-0.1389 0.2458,-0.1391 0.2458,-0.1393 0.2457,-0.1394 0.2458,-0.1396 0.2458,-0.1397 0.2458,-0.1399 0.2458,-0.14 0.2457,-0.1403 0.2458,-0.1403 0.2458,-0.1406 0.2458,-0.1407 0.2458,-0.1408 0.2458,-0.1411 0.2458,-0.1412 0.2457,-0.1413 0.2458,-0.1415 0.2458,-0.1417 0.2458,-0.1418 0.2458,-0.142 0.2457,-0.1422 0.2458,-0.1423 0.2458,-0.1424 0.2458,-0.1427 0.2458,-0.1428 0.2458,-0.1429 0.2457,-0.1431 0.2458,-0.1433 0.2458,-0.1434 0.2458,-0.1436 0.2458,-0.1438 0.2458,-0.1439 0.2457,-0.1441 0.2458,-0.1442 0.2458,-0.1444 0.2458,-0.1446 0.2458,-0.1447 0.2458,-0.1449 0.2457,-0.145 0.2458,-0.1452 0.2458,-0.1454 0.2458,-0.1455 0.2458,-0.1457 0.2457,-0.1459 0.2458,-0.1459 0.2458,-0.1462 0.2458,-0.1463 0.2458,-0.1465 0.2458,-0.1466 0.2458,-0.1469 0.2457,-0.1469 0.2458,-0.1472 0.2458,-0.1472 0.2458,-0.1474 0.2458,-0.1476 0.2457,-0.1478 0.2459,-0.1479 0.2457,-0.1481 0.2458,-0.1482 0.2458,-0.1484 0.2458,-0.1486 0.2458,-0.1487 0.2457,-0.1489 0.2458,-0.149 0.2458,-0.1492 0.2458,-0.1493 0.2458,-0.1495 0.2457,-0.1497 0.2458,-0.1498 0.2458,-0.15 0.2458,-0.1502 0.2458,-0.1503 0.2457,-0.1504 0.2459,-0.1506 0.2457,-0.1508 0.2458,-0.1509 0.2458,-0.1511 0.2458,-0.1513 0.2457,-0.1514 0.2458,-0.1516 0.2458,-0.1517 0.2458,-0.1519 0.2458,-0.152 0.2458,-0.1522 0.2457,-0.1524 0.2458,-0.1525 0.2458,-0.1527 0.2458,-0.1528 0.2458,-0.153 0.2458,-0.1532 0.2457,-0.1533 0.2458,-0.1534 0.2458,-0.1537 0.2458,-0.1537 0.2458,-0.154 0.2458,-0.1541 0.2457,-0.1542 0.2458,-0.1544 0.2458,-0.1546 0.2458,-0.1547 0.2458,-0.1549 0.2458,-0.155 0.2457,-0.1552 0.2458,-0.1554 0.2458,-0.1555 0.2458,-0.1557 0.2458,-0.1558 0.2458,-0.156 0.2458,-0.1561 0.2457,-0.1563 0.2458,-0.1564 0.2458,-0.1567 0.2458,-0.1567 0.2458,-0.1569 0.2457,-0.1571 0.2458,-0.1572 0.2458,-0.1575 0.2458,-0.1575 0.2458,-0.1577 0.2458,-0.1579 0.2458,-0.158 0.2457,-0.1581 0.2458,-0.1584 0.2458,-0.1585 0.2458,-0.1586 0.2457,-0.1588 0.2458,-0.1589 0.2458,-0.1592 0.2458,-0.1592 0.2458,-0.1594 0.2457,-0.1596 0.2458,-0.1598 0.2458,-0.1598 0.2458,-0.1601 0.2458,-0.1602 0.2458,-0.1603 0.2458,-0.1606 0.2457,-0.1606 0.2458,-0.1609 0.2458,-0.1609 0.2458,-0.1611 0.2458,-0.1613 0.2457,-0.1615 0.2458,-0.1616 0.2458,-0.1617 0.2458,-0.1619 0.2458,-0.1621 0.2458,-0.1622 0.2458,-0.1624 0.2457,-0.1625 0.2458,-0.1627 0.2458,-0.1628 0.2458,-0.163 0.2458,-0.1632 0.2458,-0.1633 0.2457,-0.1634 0.2458,-0.1637 0.2458,-0.1637 0.2458,-0.1639 0.2458,-0.1641 0.2458,-0.1642 0.2457,-0.1644 0.2458,-0.1645 0.2458,-0.1647 0.2458,-0.1649 0.2458,-0.165 0.2458,-0.1651 0.2457,-0.1653 0.2458,-0.1655 0.2458,-0.1656 0.2458,-0.1658 0.2458,-0.1659 0.2457,-0.1661 0.2458,-0.1662 0.2458,-0.1664 0.2458,-0.1665 0.2458,-0.1667 0.2457,-0.1669 0.2459,-0.167 0.2457,-0.1671 0.2458,-0.1673 0.2458,-0.1674 0.2458,-0.1677 0.2458,-0.1677 0.2457,-0.1679 0.2458,-0.1681 0.2458,-0.1682 0.2458,-0.1684 0.2458,-0.1685 0.2457,-0.1687 0.2459,-0.1689 0.2457,-0.169 0.2458,-0.1691 0.2458,-0.1693 0.2457,-0.1694 0.2459,-0.1696 0.2457,-0.1698 0.2458,-0.1698 0.2458,-0.1701 0.2458,-0.1702 0.2458,-0.1704 0.2457,-0.1705 0.2458,-0.1706 0.2458,-0.1709 0.2458,-0.1709 0.2458,-0.1711 0.2458,-0.1713 0.2457,-0.1714 0.2458,-0.1716 0.2458,-0.1718 0.2458,-0.1718 0.2458,-0.172 0.2458,-0.1722 0.2457,-0.1724 0.2458,-0.1725 0.2458,-0.1726 0.2458,-0.1728 0.2458,-0.1729 0.2458,-0.1731 0.2457,-0.1732 0.2458,-0.1734 0.2458,-0.1735 0.2458,-0.1738 0.2458,-0.1738 0.2458,-0.174 0.2457,-0.1741 0.2458,-0.1743 0.2458,-0.1745 0.2458,-0.1746 0.2458,-0.1748 0.2458,-0.1748 0.2457,-0.1751 0.2458,-0.1752 0.2458,-0.1753 0.2458,-0.1755 0.2458,-0.1757 0.2457,-0.1758 0.2458,-0.1759 0.2458,-0.1762 0.2458,-0.1762 0.2458,-0.1764 0.2458,-0.1766 0.2458,-0.1767 0.2457,-0.1768 0.2458,-0.177 0.2458,-0.1772 0.2458,-0.1773 0.2458,-0.1774 0.2457,-0.1777 0.2458,-0.1777 0.2458,-0.1779 0.2458,-0.1781 0.2458,-0.1782 0.2458,-0.1783 0.2457,-0.1785 0.2458,-0.1787 0.2458,-0.1788 0.2458,-0.1789 0.2458,-0.1791 0.2457,-0.1793 0.2458,-0.1794 0.2458,-0.1795 0.2458,-0.1797 0.2458,-0.1798 0.2458,-0.18 0.2457,-0.1801 0.2458,-0.1804 0.2458,-0.1804 0.2458,-0.1806 0.2458,-0.1807 0.2458,-0.1809 0.2457,-0.181 0.2458,-0.1812 0.2458,-0.1813 0.2458,-0.1815 0.2458,-0.1816 0.2458,-0.1818 0.2457,-0.1819 0.2458,-0.1821 0.2458,-0.1822 0.2458,-0.1824 0.2458,-0.1825 0.2458,-0.1826 0.2457,-0.1828 0.2458,-0.183 0.2458,-0.1831 0.2458,-0.1832 0.2458,-0.1835 0.2458,-0.1835 0.2457,-0.1837 0.2458,-0.1838 0.2458,-0.184 0.2458,-0.1841 0.2458,-0.1844 0.2458,-0.1844 0.2457,-0.1846 0.2458,-0.1847 0.2458,-0.1849 0.2458,-0.1849 0.2457,-0.1852 0.2459,-0.1854 0.2457,-0.1854 0.2458,-0.1856 0.2458,-0.1857 0.2458,-0.1859 0.2458,-0.1861 0.2457,-0.1862 0.2458,-0.1863 0.2458,-0.1865 0.2458,-0.1866 0.2458,-0.1868 0.2457,-0.187 0.2459,-0.187 0.2457,-0.1872 0.2458,-0.1874 0.2458,-0.1875 0.2458,-0.1876 0.2458,-0.1878 0.2457,-0.188 0.2458,-0.1881 0.2458,-0.1882 0.2458,-0.1884 0.2458,-0.1885 0.2457,-0.1887 0.2458,-0.1888 0.2458,-0.189 0.2458,-0.1891 0.2458,-0.1893 0.2458,-0.1894 0.2457,-0.1895 0.2458,-0.1897 0.2458,-0.1898 0.2458,-0.19 0.2458,-0.1902 0.2458,-0.1902 0.2457,-0.1904 0.2458,-0.1906 0.2458,-0.1907 0.2458,-0.1908 0.2458,-0.191 0.2458,-0.1912 0.2457,-0.1913 0.2458,-0.1914 0.2458,-0.1915 0.2458,-0.1918 0.2458,-0.1919 0.2458,-0.1919 0.2457,-0.1922 0.2458,-0.1923 0.2458,-0.1924 0.2458,-0.1926 0.2458,-0.1927 0.2458,-0.1929 0.2457,-0.193 0.2458,-0.1932 0.2458,-0.1933 0.2458,-0.1934 0.2458,-0.1936 0.2458,-0.1937 0.2457,-0.1939 0.2458,-0.194 0.2458,-0.1942 0.2458,-0.1943 0.2458,-0.1944 0.2458,-0.1946 0.2457,-0.1948 0.2458,-0.1949 0.2458,-0.195 0.2458,-0.1952 0.2458,-0.1953 0.2457,-0.1954 0.2459,-0.1956 0.2457,-0.1957 0.2458,-0.1959 0.2458,-0.196 0.2458,-0.1962 0.2458,-0.1963 0.2457,-0.1964 0.2458,-0.1967 0.2458,-0.1967 0.2458,-0.1969 0.2457,-0.197 0.2458,-0.1971 0.2458,-0.1973 0.2458,-0.1975 0.2458,-0.1976 0.2458,-0.1977 0.2457,-0.1979 0.2458,-0.198 0.2458,-0.1981 0.2458,-0.1984 0.2458,-0.1984 0.2458,-0.1986 0.2457,-0.1987 0.2458,-0.1988 0.2458,-0.1991 0.2458,-0.1991 0.2458,-0.1993 0.2458,-0.1994 0.2457,-0.1996 0.2458,-0.1997 0.2458,-0.1999 0.2458,-0.1999 0.2458,-0.2001 0.2458,-0.2003 0.2457,-0.2005 0.2458,-0.2005 0.2458,-0.2007 0.2458,-0.2009 0.2458,-0.2009 0.2458,-0.2011 0.2457,-0.2013 0.2458,-0.2014 0.2458,-0.2016 0.2458,-0.2016 0.2458,-0.2018 0.2458,-0.202 0.2458,-0.2021 0.2457,-0.2023 0.2458,-0.2023 0.2458,-0.2026 0.2458,-0.2026 0.2458,-0.2028 0.2458,-0.203 0.2457,-0.2031 0.2458,-0.2032 0.2458,-0.2033 0.2458,-0.2036 0.2457,-0.2036 0.2458,-0.2038 0.2458,-0.2039 0.2458,-0.204 0.2458,-0.2042 0.2457,-0.2044 0.2459,-0.2044 0.2457,-0.2047 0.2458,-0.2047 0.2458,-0.2049 0.2458,-0.2051 0.2458,-0.2051 0.2457,-0.2053 0.2458,-0.2055 0.2458,-0.2056 0.2458,-0.2057 0.2458,-0.2058 0.2457,-0.2061 0.2459,-0.2061 0.2457,-0.2063 0.2458,-0.2064 0.2458,-0.2066 0.2458,-0.2067 0.2458,-0.2068 0.2457,-0.207 0.2458,-0.2071 0.2458,-0.2072 0.2458,-0.2074 0.2458,-0.2075 0.2457,-0.2077 0.2458,-0.2078 0.2458,-0.2079 0.2458,-0.2081 0.2458,-0.2082 0.2458,-0.2084 0.2457,-0.2085 0.2458,-0.2086 0.2458,-0.2087 0.2458,-0.2089 0.2458,-0.2091 0.2458,-0.2092 0.2458,-0.2093 0.2457,-0.2094 0.2458,-0.2096 0.2458,-0.2097 0.2458,-0.2099 0.2458,-0.21 0.2458,-0.2101 0.2457,-0.2103 0.2458,-0.2104 0.2458,-0.2105 0.2458,-0.2107 0.2458,-0.2108 0.2458,-0.211 0.2457,-0.2111 0.2458,-0.2112 0.2458,-0.2114 0.2458,-0.2114 0.2458,-0.2117 0.2457,-0.2118 0.2458,-0.2119 0.2458,-0.212 0.2458,-0.2122 0.2458,-0.2123 0.2457,-0.2124 0.2459,-0.2126 0.2457,-0.2128 0.2458,-0.2128 0.2458,-0.213 0.2458,-0.2131 0.2458,-0.2133 0.2457,-0.2134 0.2458,-0.2135 0.2458,-0.2137 0.2458,-0.2138 0.2458,-0.214 0.2457,-0.214 0.2459,-0.2142 0.2457,-0.2144 0.2458,-0.2145 0.2458,-0.2146 0.2458,-0.2147 0.2457,-0.2149 0.2458,-0.215 0.2458,-0.2152 0.2458,-0.2153 0.2458,-0.2154 0.2458,-0.2156 0.2457,-0.2156 0.2458,-0.2159 0.2458,-0.2159 0.2458,-0.2161 0.2458,-0.2162 0.2458,-0.2164 0.2457,-0.2165 0.2458,-0.2166 0.2458,-0.2168 0.2458,-0.2169 0.2458,-0.217 0.2458,-0.2172 0.2457,-0.2173 0.2458,-0.2175 0.2458,-0.2175 0.2458,-0.2177 0.2458,-0.2178 0.2458,-0.218 0.2457,-0.2181 0.2458,-0.2182 0.2458,-0.2184 0.2458,-0.2185 0.2458,-0.2187 0.2458,-0.2187 0.2457,-0.2189 0.2458,-0.2191 0.2458,-0.2191 0.2458,-0.2193 0.2458,-0.2194 0.2458,-0.2196 0.2457,-0.2197 0.2458,-0.2198 0.2458,-0.22 0.2458,-0.2201 0.2458,-0.2202 0.2458,-0.2204 0.2457,-0.2204 0.2458,-0.2207 0.2458,-0.2207 0.2457,-0.2209 0.2459,-0.221 0.2457,-0.2212 0.2458,-0.2213 0.2458,-0.2214 0.2458,-0.2216 0.2458,-0.2216 0.2457,-0.2219 0.2458,-0.2219 0.2458,-0.2221 0.2458,-0.2221 0.2458,-0.2224 0.2458,-0.2225 0.2458,-0.2226 0.2457,-0.2227 0.2458,-0.2228 0.2458,-0.2231 0.2458,-0.2231 0.2458,-0.2232 0.2457,-0.2234 0.2458,-0.2235 0.2458,-0.2237 0.2458,-0.2238 0.2458,-0.2239 0.2458,-0.224 0.2457,-0.2242 0.2458,-0.2243 0.2458,-0.2244 0.2458,-0.2246 0.2458,-0.2247 0.2458,-0.2248 0.2457,-0.225 0.2458,-0.225 0.2458,-0.2252 0.2458,-0.2254 0.2458,-0.2255 0.2458,-0.2256 0.2457,-0.2257 0.2458,-0.2259 0.2458,-0.226 0.2458,-0.2261 0.2458,-0.2262 0.2458,-0.2264 0.2457,-0.2265 0.2458,-0.2267 0.2458,-0.2268 0.2458,-0.2269 0.2458,-0.227 0.2458,-0.2272 0.2457,-0.2272 0.2458,-0.2274 0.2458,-0.2276 0.2458,-0.2277 0.2458,-0.2278 0.2457,-0.2279 0.2458,-0.2281 0.2458,-0.2282 0.2458,-0.2283 0.2458,-0.2284 0.2458,-0.2286 0.2458,-0.2287 0.2457,-0.2289 0.2458,-0.2289 0.2458,-0.2291 0.2458,-0.2292 0.2458,-0.2294 0.2457,-0.2295 0.2458,-0.2296 0.2458,-0.2297 0.2458,-0.2299 0.2458,-0.23 0.2457,-0.2301 0.2459,-0.2302 0.2457,-0.2304 0.2458,-0.2305 0.2458,-0.2306 0.2458,-0.2308 0.2458,-0.2308 0.2457,-0.231 0.2458,-0.2312 0.2458,-0.2313 0.2458,-0.2313 0.2458,-0.2316 0.2457,-0.2316 0.2458,-0.2318 0.2458,-0.2319 0.2458,-0.232 0.2458,-0.2322 0.2458,-0.2323 0.2457,-0.2324 0.2458,-0.2325 0.2458,-0.2327 0.2458,-0.2328 0.2458,-0.2329 0.2458,-0.233 0.2457,-0.2332 0.2458,-0.2333 0.2458,-0.2334 0.2458,-0.2336 0.2458,-0.2336 0.2458,-0.2338 0.2457,-0.2339 0.2458,-0.2341 0.2458,-0.2342 0.2458,-0.2343 0.2458,-0.2344 0.2458,-0.2346 0.2457,-0.2347 0.2458,-0.2348 0.2458,-0.2349 0.2458,-0.2351 0.2458,-0.2352 0.2458,-0.2353 0.2457,-0.2354 0.2458,-0.2356 0.2458,-0.2357 0.2458,-0.2358 0.2458,-0.2359 0.2458,-0.2361 0.2457,-0.2362 0.2458,-0.2363 0.2458,-0.2364 0.2458,-0.2366 0.2458,-0.2367 0.2458,-0.2368 0.2457,-0.2369 0.2458,-0.2371 0.2458,-0.2372 0.2458,-0.2373 0.2457,-0.2374 0.2458,-0.2376 0.2459,-0.2377 0.2457,-0.2378 0.2458,-0.2379 0.2458,-0.2381 0.2458,-0.2382 0.2457,-0.2383 0.2458,-0.2384 0.2458,-0.2385 0.2458,-0.2387 0.2458,-0.2388 0.2457,-0.239 0.2458,-0.239 0.2458,-0.2392 0.2458,-0.2393 0.2458,-0.2394 0.2458,-0.2395 0.2458,-0.2397 0.2457,-0.2398 0.2458,-0.2399 0.2458,-0.2401 0.2458,-0.2401 0.2458,-0.2403 0.2457,-0.2404 0.2458,-0.2406 0.2458,-0.2406 0.2458,-0.2408 0.2458,-0.2409 0.2458,-0.241 0.2457,-0.2412 0.2458,-0.2412 0.2458,-0.2414 0.2458,-0.2415 0.2458,-0.2417 0.2458,-0.2417 0.2457,-0.2419 0.2458,-0.242 0.2458,-0.2421 0.2458,-0.2423 0.2458,-0.2424 0.2458,-0.2425 0.2457,-0.2426 0.2458,-0.2427 0.2458,-0.2429 0.2458,-0.243 0.2458,-0.243 0.2458,-0.2433 0.2458,-0.2433 0.2457,-0.2435 0.2458,-0.2436 0.2458,-0.2437 0.2458,-0.2438 0.2458,-0.244 0.2457,-0.2441 0.2458,-0.2442 0.2458,-0.2443 0.2458,-0.2444 0.2458,-0.2446 0.2457,-0.2447 0.2459,-0.2448 0.2457,-0.2449 0.2458,-0.245 0.2458,-0.2452 0.2457,-0.2453 0.2459,-0.2454 0.2457,-0.2455 0.2458,-0.2457 0.2458,-0.2458 0.2458,-0.2459 0.2458,-0.246 0.2457,-0.2461 0.2458,-0.2463 0.2458,-0.2463 0.2458,-0.2465 0.2458,-0.2467 0.2457,-0.2467 0.2459,-0.2468 0.2457,-0.247 0.2458,-0.2471 0.2458,-0.2472 0.2458,-0.2474 0.2457,-0.2474 0.2458,-0.2476 0.2458,-0.2477 0.2458,-0.2478 0.2458,-0.2479 0.2458,-0.2481 0.2457,-0.2482 0.2458,-0.2482 0.2458,-0.2484 0.2458,-0.2486 0.2458,-0.2486 0.2458,-0.2488 0.2458,-0.2489 0.2457,-0.249 0.2458,-0.2491 0.2458,-0.2492 0.2458,-0.2494 0.2458,-0.2495 0.2458,-0.2496 0.2457,-0.2497 0.2458,-0.2499 0.2458,-0.2499 0.2458,-0.2501 0.2458,-0.2502 0.2457,-0.2503 0.2458,-0.2504 0.2458,-0.2506 0.2458,-0.2506 0.2458,-0.2508 0.2457,-0.2509 0.2459,-0.2511 0.2457,-0.2511 0.2458,-0.2513 0.2458,-0.2513 0.2457,-0.2515 0.2459,-0.2517 0.2458,-0.2517 0.2457,-0.2518 0.2458,-0.252 0.2458,-0.2521 0.2458,-0.2522 0.2458,-0.2523 0.2457,-0.2525 0.2458,-0.2525 0.2458,-0.2527 0.2458,-0.2527 0.2458,-0.253 0.2457,-0.253 0.2458,-0.2531 0.2458,-0.2533 0.2458,-0.2533 0.2458,-0.2535 0.2458,-0.2537 0.2457,-0.2537 0.2458,-0.2538 0.2458,-0.254 0.2458,-0.2541 0.2458,-0.2542 0.2457,-0.2543 0.2458,-0.2544 0.2459,-0.2545 0.2457,-0.2547 0.2458,-0.2548 0.2458,-0.2549 0.2458,-0.2549 0.2458,-0.2552 0.2457,-0.2552 0.2458,-0.2553 0.2458,-0.2555 0.2458,-0.2556 0.2458,-0.2557 0.2457,-0.2558 0.2458,-0.256 0.2458,-0.256 0.2458,-0.2562 0.2458,-0.2563 0.2457,-0.2564 0.2458,-0.2565 0.2458,-0.2566 0.2458,-0.2567 0.2458,-0.2569 0.2458,-0.257 0.2458,-0.2571 0.2457,-0.2572 0.2458,-0.2573 0.2458,-0.2575 0.2458,-0.2575 0.2458,-0.2576 0.2458,-0.2578 0.2457,-0.2579 0.2458,-0.258 0.2458,-0.2581 0.2457,-0.2583 0.2459,-0.2584 0.2458,-0.2584 0.2457,-0.2586 0.2458,-0.2587 0.2458,-0.2588 0.2458,-0.2589 0.2458,-0.2591 0.2457,-0.2591 0.2458,-0.2593 0.2458,-0.2594 0.2458,-0.2595 0.2458,-0.2596 0.2457,-0.2597 0.2458,-0.2598 0.2458,-0.26 0.2458,-0.26 0.2458,-0.2602 0.2458,-0.2603 0.2457,-0.2604 0.2459,-0.2606 0.2457,-0.2606 0.2458,-0.2608 0.2458,-0.2608 0.2458,-0.261 0.2458,-0.2611 0.2457,-0.2612 0.2458,-0.2613 0.2458,-0.2614 0.2458,-0.2616 0.2458,-0.2616 0.2458,-0.2618 0.2457,-0.2618 0.2458,-0.262 0.2458,-0.2622 0.2458,-0.2621 0.2458,-0.2624 0.2457,-0.2624 0.2458,-0.2626 0.2458,-0.2626 0.2458,-0.2628 0.2458,-0.2629 0.2458,-0.263 0.2457,-0.2631 0.2458,-0.2633 0.2458,-0.2633 0.2458,-0.2635 0.2458,-0.2635 0.2458,-0.2637 0.2457,-0.2638 0.2458,-0.2639 0.2458,-0.264 0.2458,-0.2641 0.2458,-0.2643 0.2458,-0.2643 0.2457,-0.2645 0.2458,-0.2646 0.2458,-0.2647 0.2458,-0.2648 0.2458,-0.2649 0.2457,-0.265 0.2458,-0.2651 0.2458,-0.2652 0.2458,-0.2654 0.2458,-0.2655 0.2458,-0.2655 0.2457,-0.2657 0.2458,-0.2658 0.2458,-0.2659 0.2458,-0.266 0.2458,-0.2662 0.2457,-0.2662 0.2459,-0.2664 0.2457,-0.2664 0.2458,-0.2666 0.2458,-0.2667 0.2458,-0.2668 0.2458,-0.2669 0.2458,-0.267 0.2457,-0.2671 0.2458,-0.2673 0.2458,-0.2673 0.2458,-0.2675 0.2458,-0.2675 0.2457,-0.2677 0.2458,-0.2678 0.2458,-0.2679 0.2458,-0.268 0.2458,-0.2681 0.2457,-0.2682 0.2458,-0.2684 0.2458,-0.2684 0.2458,-0.2686 0.2458,-0.2686 0.2458,-0.2688 0.2457,-0.2689 0.2458,-0.269 0.2458,-0.2691 0.2458,-0.2692 0.2458,-0.2693 0.2458,-0.2695 0.2457,-0.2695 0.2459,-0.2696 0.2457,-0.2698 0.2458,-0.2699 0.2458,-0.27 0.2458,-0.27 0.2458,-0.2703 0.2457,-0.2702 0.2458,-0.2705 0.2458,-0.2705 0.2458,-0.2706 0.2458,-0.2708 0.2457,-0.2708 0.2458,-0.271 0.2458,-0.271"
       style="fill:none;fill-rule:evenodd"
       id="path1004"
       inkscape:connector-curvature="0" />
    <path
       d="m 73.5,341.04 h 0.4385 0.4382 0.4382 0.4381 l 0.4382,-0.013 h 0.4382 0.4382 0.4381 l 0.4382,-0.0129 h 0.4382 l 0.4381,-0.013 h 0.4384 l 0.438,-0.0129 h 0.438 l 0.4385,-0.013 0.4429,-0.013 h 0.438 l 0.4385,-0.0129 0.438,-0.013 0.438,-0.0129 0.4385,-0.013 0.4381,-0.0129 0.438,-0.013 0.4385,-0.013 0.438,-0.0129 0.438,-0.013 0.4385,-0.013 0.438,-0.0129 0.438,-0.013 0.4385,-0.0259 0.4429,-0.0129 0.438,-0.013 0.4385,-0.0259 0.438,-0.013 0.438,-0.0259 0.4385,-0.013 0.438,-0.0259 0.4381,-0.0259 0.4385,-0.013 0.438,-0.0259 0.438,-0.0259 0.4385,-0.026 0.438,-0.0129 0.438,-0.0259 0.4385,-0.0259 0.4429,-0.026 0.438,-0.0259 0.4385,-0.0259 0.438,-0.0389 0.438,-0.0259 0.4385,-0.0259 0.438,-0.0259 0.4381,-0.0259 0.4385,-0.039 0.438,-0.0259 0.438,-0.0388 0.4385,-0.026 0.438,-0.0388 0.438,-0.026 0.4385,-0.0389 0.4429,-0.0259 0.438,-0.0388 0.4385,-0.0389 0.438,-0.0389 0.438,-0.0259 0.4385,-0.0389 0.438,-0.0389 0.4381,-0.0389 0.4385,-0.0389 0.438,-0.0388 0.438,-0.0389 0.4385,-0.0389 0.438,-0.0518 0.438,-0.0389 0.4385,-0.0389 0.4429,-0.0389 0.438,-0.0518 0.4385,-0.0389 0.438,-0.0518 0.438,-0.0389 0.4385,-0.0518 0.438,-0.0389 0.4381,-0.0519 0.4385,-0.0388 0.438,-0.0519 0.438,-0.0518 0.4385,-0.0519 0.438,-0.0388 0.438,-0.0519 0.4385,-0.0518 0.4429,-0.0519 0.438,-0.0518 0.4385,-0.0519 0.438,-0.0518 0.438,-0.0648 0.4385,-0.0518 0.438,-0.0519 0.4381,-0.0518 0.4385,-0.0519 0.438,-0.0647 0.438,-0.0519 0.4385,-0.0648 0.438,-0.0518 0.438,-0.0648 0.4385,-0.0519 0.4429,-0.0648 0.438,-0.0648 0.4385,-0.0518 0.438,-0.0648 0.438,-0.0648 0.4385,-0.0648 0.44,-0.0518 0.4385,-0.0648 0.4336,-0.0648 0.4385,-0.0648 0.4385,-0.0648 0.4385,-0.0778 0.4385,-0.0648 0.4385,-0.0648 0.4385,-0.0648 0.4434,-0.0648 0.4385,-0.0778 0.4385,-0.0648 0.4385,-0.0647 0.4385,-0.0778 0.4385,-0.0648 0.4385,-0.0778 0.4385,-0.0648 0.4336,-0.0778 0.4385,-0.0777 0.4385,-0.0648 0.4385,-0.0778 0.4385,-0.0777 0.4385,-0.0778 0.4385,-0.0777 0.4434,-0.0778 0.4385,-0.0777 0.4385,-0.0778 0.4385,-0.0778 0.4385,-0.0777 0.4385,-0.0778 0.4385,-0.0778 0.4385,-0.0777 0.4336,-0.0907 0.4385,-0.0778 0.4385,-0.0778 0.4385,-0.0907 0.4385,-0.0777 0.4385,-0.0907 0.4385,-0.0778 0.4434,-0.0907 0.4385,-0.0778 0.4385,-0.0907 0.4385,-0.0907 0.4385,-0.0778 0.4385,-0.0907 0.4385,-0.0908 0.4385,-0.0907 0.4336,-0.0907 0.4385,-0.0907 0.4385,-0.0907 0.4385,-0.0907 0.4385,-0.0907 0.4385,-0.0908 0.4385,-0.0907 0.4434,-0.0907 0.4385,-0.1037 0.4385,-0.0907 0.4385,-0.0907 0.4385,-0.1037 0.4385,-0.0908 0.4385,-0.1036 0.4385,-0.0908 0.4336,-0.1036 0.4385,-0.0907 0.4385,-0.1037 0.4385,-0.1037 0.4385,-0.1037 0.4385,-0.0907 0.4385,-0.1037 0.4434,-0.1037 0.4385,-0.1036 0.4385,-0.1037 0.4385,-0.1037 0.4385,-0.1037 0.4385,-0.1037 0.4385,-0.1037 0.4385,-0.1036 0.4336,-0.1167 0.4385,-0.1037 0.4385,-0.1036 0.4385,-0.1037 0.4385,-0.1167 0.4385,-0.1036 0.4385,-0.1167 0.4434,-0.1037 0.4385,-0.1166 0.4385,-0.1166 0.4385,-0.1037 0.4385,-0.1166 0.4385,-0.1167 0.4385,-0.1037 0.4385,-0.1166 0.4336,-0.1166 0.4385,-0.1167 0.4385,-0.1166 0.4385,-0.1166 0.4385,-0.1167 0.4385,-0.1167 0.4385,-0.1166 0.4434,-0.1166 0.4385,-0.1296 0.4385,-0.1167 0.4385,-0.1166 0.4385,-0.1296 0.4385,-0.1166 0.4385,-0.1167 0.4385,-0.1296 0.4336,-0.1166 0.4385,-0.1296 0.4385,-0.1167 0.4385,-0.1296 0.4385,-0.1295 0.4385,-0.1297 0.4385,-0.1166 0.4434,-0.1296 0.4385,-0.1296 0.4385,-0.1296 0.4385,-0.1296 0.4385,-0.1296 0.4385,-0.1296 0.4385,-0.1296 0.4385,-0.1296 0.4336,-0.1296 0.4385,-0.1296 0.4385,-0.1426 0.4385,-0.1296 0.4385,-0.1295 0.4385,-0.1426 0.4385,-0.1296 0.4434,-0.1426 0.4385,-0.1296 0.4385,-0.1426 0.4385,-0.1295 0.4385,-0.1426 0.4385,-0.1425 0.4385,-0.1296 0.4385,-0.1426 0.4336,-0.1426 0.4385,-0.1426 0.4385,-0.1295 0.4385,-0.1426 0.4385,-0.1426 0.4385,-0.1425 0.4385,-0.1426 0.4434,-0.1555 0.4385,-0.1426 0.4385,-0.1425 0.4385,-0.1426 0.4385,-0.1425 0.4385,-0.1555 0.4385,-0.1426 0.4385,-0.1426 0.4336,-0.1555 0.4385,-0.1426 0.4385,-0.1555 0.4385,-0.1426 0.4385,-0.1555 0.4385,-0.1555 0.4385,-0.1426 0.4434,-0.1555 0.4385,-0.1555 0.4385,-0.1555 0.4385,-0.1555 0.4385,-0.1555 0.4385,-0.1555 0.4385,-0.1556 0.4385,-0.1555 0.4336,-0.1555 0.4385,-0.1555 0.4385,-0.1556 0.4385,-0.1555 0.4385,-0.1555 0.4385,-0.1685 0.4385,-0.1555 0.4434,-0.1555 0.4385,-0.1685 0.4385,-0.1555 0.4385,-0.1685 0.4385,-0.1555 0.4385,-0.1685 0.4385,-0.1685 0.4385,-0.1555 0.4336,-0.1684 0.4385,-0.1685 0.4385,-0.1556 0.4385,-0.1684 0.4385,-0.1685 0.4385,-0.1685 0.4385,-0.1685 0.4434,-0.1685 0.4385,-0.1684 0.4385,-0.1685 0.4385,-0.1685 0.4385,-0.1815 0.4385,-0.1685 0.4385,-0.1684 0.4385,-0.1685 0.4336,-0.1814 0.4385,-0.1685 0.4385,-0.1815 0.4385,-0.1684 0.4385,-0.1685 0.4385,-0.1815 0.4385,-0.1814 0.4434,-0.1685 0.4385,-0.1814 0.4385,-0.1815 0.4385,-0.1814 0.4385,-0.1685 0.4385,-0.1814 0.4385,-0.1815 0.4385,-0.1814 0.4336,-0.1814 0.4385,-0.1815 0.4385,-0.1814 0.4385,-0.1815 0.4385,-0.1814 0.4385,-0.1815 0.4385,-0.1943 0.4434,-0.1815 0.4385,-0.1814 0.4385,-0.1944 0.4385,-0.1815 0.4385,-0.1814 0.4385,-0.1944 0.4385,-0.1815 0.4385,-0.1943 0.4336,-0.1944 0.4385,-0.1815 0.4385,-0.1944 0.4385,-0.1944 0.4385,-0.1814 0.4385,-0.1944 0.4385,-0.1944 0.4434,-0.1944 0.4385,-0.1944 0.4385,-0.1944 0.4385,-0.1944 0.4385,-0.1944 0.4385,-0.1944 0.4385,-0.1944 0.4385,-0.1944 0.4336,-0.2074 0.4385,-0.1944 0.4385,-0.1944 0.4385,-0.2074 0.4385,-0.1943 0.4385,-0.1944 0.4385,-0.2074 0.4434,-0.1944 0.4385,-0.2073 0.4385,-0.2074 0.4385,-0.1944 0.4385,-0.2074 0.4385,-0.2073 0.4385,-0.1944 0.4385,-0.2074 0.4336,-0.2073 0.4385,-0.2074 0.4385,-0.2074 0.4385,-0.2073 0.4385,-0.2074 0.4385,-0.2073 0.4385,-0.2074 0.4434,-0.2074 0.4385,-0.2073 0.4385,-0.2204 0.4385,-0.2073 0.4385,-0.2074 0.4385,-0.2073 0.4385,-0.2204 0.4385,-0.2073 0.4336,-0.2203 0.4385,-0.2074 0.4385,-0.2203 0.4385,-0.2074 0.4385,-0.2203 0.4385,-0.2074 0.4385,-0.2203 0.4434,-0.2203 0.4385,-0.2203 0.4385,-0.2203 0.4385,-0.2204 0.4385,-0.2073 0.4385,-0.2203 0.4385,-0.2204 0.4385,-0.2203 0.4336,-0.2203 0.4385,-0.2333 0.4385,-0.2203 0.4385,-0.2203 0.4385,-0.2204 0.4385,-0.2202 0.4385,-0.2333 0.4434,-0.2203 0.4385,-0.2333 0.4385,-0.2204 0.4385,-0.2203 0.4385,-0.2333 0.4385,-0.2332 0.4385,-0.2204 0.4385,-0.2332 0.4336,-0.2203 0.4385,-0.2333 0.4385,-0.2333 0.4385,-0.2333 0.4385,-0.2333 0.4385,-0.2203 0.4385,-0.2333 0.4434,-0.2332 0.4385,-0.2333 0.4385,-0.2333 0.4385,-0.2463 0.4385,-0.2332 0.4385,-0.2333 0.4385,-0.2333 0.4385,-0.2333 0.4336,-0.2462 0.4385,-0.2333 0.4385,-0.2333 0.4385,-0.2462 0.4385,-0.2333 0.4385,-0.2333 0.4385,-0.2462 0.4434,-0.2463 0.4385,-0.2333 0.4385,-0.2462 0.4385,-0.2462 0.4385,-0.2333 0.4385,-0.2462 0.4385,-0.2463 0.4385,-0.2462 0.4336,-0.2463 0.4385,-0.2462 0.4385,-0.2333 0.4385,-0.2462 0.4385,-0.2592 0.4386,-0.2463 0.4384,-0.2462 0.4434,-0.2462 0.4385,-0.2463 0.4385,-0.2462 0.4385,-0.2592 0.4385,-0.2462 0.4385,-0.2463 0.4385,-0.2592 0.4385,-0.2463 0.4336,-0.2591 0.4385,-0.2463 0.4385,-0.2592 0.4385,-0.2462 0.4385,-0.2592 0.4385,-0.2592 0.4385,-0.2463 0.4434,-0.2592 0.4385,-0.2592 0.4385,-0.2592 0.4385,-0.2591 0.4385,-0.2593 0.4385,-0.2591 0.4385,-0.2593 0.4385,-0.2592 0.4336,-0.2592 0.4385,-0.2592 0.4385,-0.2591 0.4385,-0.2592 0.4385,-0.2593 0.4386,-0.2721 0.4384,-0.2592 0.4434,-0.2592 0.4385,-0.2721 0.4385,-0.2593 0.4385,-0.2721 0.4385,-0.2592 0.4385,-0.2722 0.4385,-0.2592 0.4385,-0.2722 0.4336,-0.2592 0.4385,-0.2721 0.4385,-0.2722 0.4385,-0.2721 0.4385,-0.2592 0.4385,-0.2722 0.4385,-0.2722 0.4434,-0.2721 0.4385,-0.2722 0.4385,-0.2722 0.4385,-0.2721 0.4385,-0.2722 0.4385,-0.2721 0.4385,-0.2851 0.4385,-0.2722 0.4336,-0.2722 0.4385,-0.2721 0.4385,-0.2851 0.4385,-0.2722 0.4385,-0.2722 0.4386,-0.2851 0.4384,-0.2722 0.4434,-0.2851 0.4385,-0.2721 0.4385,-0.2851 0.4385,-0.2852 0.4385,-0.2721 0.4385,-0.2851 0.4385,-0.2852 0.4385,-0.2851 0.4336,-0.2722 0.4385,-0.285 0.4385,-0.2852 0.4385,-0.2851 0.4385,-0.2851 0.4385,-0.2851 0.4385,-0.2851 0.4434,-0.2852 0.4385,-0.2851 0.4385,-0.2851 0.4385,-0.2981 0.4385,-0.2851 0.4385,-0.2852 0.4385,-0.2851 0.4385,-0.298 0.4336,-0.2851 0.4385,-0.2981 0.4385,-0.2852 0.4385,-0.2981 0.4385,-0.285 0.4385,-0.2981 0.4385,-0.2852 0.4434,-0.298 0.4385,-0.2981 0.4385,-0.2851 0.4385,-0.2981 0.4385,-0.2981 0.4385,-0.2981 0.4385,-0.2981 0.4385,-0.2981 0.4336,-0.298 0.4385,-0.2981 0.4385,-0.298 0.4385,-0.2981 0.4385,-0.2981 0.4385,-0.2981 0.4385,-0.2981 0.4434,-0.2981 0.4385,-0.311 0.4385,-0.2981 0.4385,-0.2981 0.4385,-0.311 0.4385,-0.2981 0.4385,-0.2981 0.4385,-0.311 0.4336,-0.2981 0.4385,-0.311 0.4385,-0.2981 0.4385,-0.3111 0.4385,-0.311 0.4385,-0.2981 0.4385,-0.311 0.4434,-0.3111 0.4385,-0.311 0.4385,-0.311 0.4385,-0.3111 0.4385,-0.311 0.4385,-0.311 0.4385,-0.2981 0.4385,-0.324 0.4336,-0.3111 0.4385,-0.311 0.4385,-0.3111 0.4385,-0.311 0.4385,-0.3111 0.4385,-0.311 0.4385,-0.324 0.4434,-0.311 0.4385,-0.324 0.4385,-0.311 0.4385,-0.3111 0.4385,-0.324 0.4385,-0.311 0.4385,-0.324 0.4385,-0.3111 0.4336,-0.324 0.4385,-0.324 0.4385,-0.311 0.4385,-0.324 0.4385,-0.324 0.4385,-0.324 0.4385,-0.3111 0.4434,-0.3369 0.4385,-0.3111 0.4385,-0.324 0.4385,-0.324 0.4385,-0.324 0.4385,-0.324 0.4385,-0.324 0.4385,-0.3369 0.4336,-0.324 0.4385,-0.324 0.4385,-0.324 0.4385,-0.324 0.4385,-0.337 0.4385,-0.324 0.4385,-0.324 0.4434,-0.3369 0.4385,-0.324 0.4385,-0.337 0.4385,-0.324 0.4385,-0.3369 0.4385,-0.337 0.4385,-0.324 0.4385,-0.337 0.4336,-0.324 0.4385,-0.337 0.4385,-0.3369 0.4385,-0.337 0.4385,-0.3369 0.4385,-0.324 0.4385,-0.337 0.4434,-0.3499 0.4385,-0.3369 0.4385,-0.337 0.4385,-0.337 0.4385,-0.3369 0.4385,-0.337 0.4385,-0.337 0.4385,-0.3369 0.4336,-0.337 0.4385,-0.3499 0.4385,-0.337 0.4385,-0.3369 0.4385,-0.337 0.4385,-0.3499 0.4385,-0.3369 0.4434,-0.35 0.4385,-0.3499 0.4385,-0.337 0.4385,-0.3499 0.4385,-0.3369 0.4385,-0.3499 0.4385,-0.35 0.4385,-0.3369 0.4336,-0.35 0.4385,-0.3499 0.4385,-0.3499 0.4385,-0.3369 0.4385,-0.35 0.4385,-0.3499 0.4385,-0.3499 0.4434,-0.35 0.4385,-0.3499 0.4385,-0.3499 0.4385,-0.3629 0.4385,-0.3499 0.4385,-0.3499 0.4385,-0.3499 0.4385,-0.35 0.4336,-0.3628 0.4385,-0.3499 0.4385,-0.3499 0.4385,-0.35 0.4385,-0.3629 0.4385,-0.3499 0.4385,-0.3629 0.4434,-0.3628 0.4385,-0.35 0.4385,-0.3629 0.4385,-0.3499 0.4385,-0.3628 0.4385,-0.3629 0.4385,-0.35 0.4385,-0.3628 0.4336,-0.3629 0.4385,-0.3629 0.4385,-0.3499 0.4385,-0.3629 0.4385,-0.3629 0.4385,-0.3628 0.4385,-0.3629 0.4434,-0.3629 0.4385,-0.3758 0.4385,-0.3629 0.4385,-0.3629 0.4385,-0.3629 0.4385,-0.3629 0.4385,-0.3628 0.4385,-0.3629 0.4337,-0.3759 0.4384,-0.3628 0.4385,-0.3629 0.4385,-0.3759 0.4385,-0.3629 0.4385,-0.3758 0.4385,-0.3628 0.4434,-0.3759 0.4385,-0.3629 0.4385,-0.3758 0.4385,-0.3759 0.4385,-0.3629 0.4385,-0.3758 0.4385,-0.3758 0.4385,-0.3629 0.4336,-0.3758 0.4385,-0.3759 0.4385,-0.3758 0.4385,-0.3759 0.4385,-0.3758 0.4385,-0.3759 0.4385,-0.3758 0.4434,-0.3758 0.4385,-0.3759 0.4385,-0.3758 0.4385,-0.3758 0.4385,-0.3759 0.4385,-0.3888 0.4385,-0.3758 0.4385,-0.3759 0.4337,-0.3758 0.4384,-0.3888 0.4385,-0.3759 0.4385,-0.3758 0.4385,-0.3888 0.4385,-0.3758 0.4385,-0.3888 0.4434,-0.3758 0.4385,-0.3889 0.4385,-0.3888 0.4385,-0.3758 0.4385,-0.3888 0.4385,-0.3758 0.4385,-0.3889 0.4385,-0.3887 0.4336,-0.3888 0.4385,-0.3759 0.4385,-0.3888 0.4385,-0.3888 0.4385,-0.3888 0.4385,-0.3888 0.4385,-0.3888 0.4434,-0.3888 0.4385,-0.3888 0.4385,-0.3888 0.4385,-0.3888 0.4385,-0.3888 0.4385,-0.4017 0.4385,-0.3889 0.4385,-0.3887 0.4337,-0.3888 0.4384,-0.4018 0.4385,-0.3888 0.4385,-0.3888 0.4385,-0.4017 0.4385,-0.3889 0.4385,-0.3888 0.4434,-0.4017 0.4385,-0.4018 0.4385,-0.3888 0.4385,-0.4017 0.4385,-0.3888 0.4385,-0.4018 0.4385,-0.4018 0.4385,-0.3888 0.4336,-0.4017 0.4385,-0.4018 0.4385,-0.4017 0.4385,-0.4018 0.4385,-0.3888 0.4385,-0.4017 0.4385,-0.4018 0.4434,-0.4018 0.4385,-0.4018 0.4385,-0.4017 0.4385,-0.4147 0.4385,-0.4018 0.4385,-0.4017 0.4385,-0.4018 0.4385,-0.4018 0.4336,-0.4017 0.4385,-0.4018 0.4385,-0.4147 0.4385,-0.4018 0.4385,-0.4017 0.4385,-0.4148 0.4385,-0.4017 0.4434,-0.4147 0.4385,-0.4018 0.4385,-0.4147 0.4385,-0.4017 0.4385,-0.4148 0.4385,-0.4017 0.4385,-0.4148 0.4385,-0.4147 0.4336,-0.4017 0.4385,-0.4148 0.4385,-0.4147 0.4385,-0.4018 0.4385,-0.4147 0.4385,-0.4147 0.4385,-0.4147 0.4434,-0.4147 0.4385,-0.4147 0.4385,-0.4148 0.4385,-0.4147 0.4385,-0.4147 0.4385,-0.4147 0.4385,-0.4147 0.4385,-0.4148 0.4336,-0.4147 0.4385,-0.4147 0.4385,-0.4147 0.4385,-0.4277 0.4385,-0.4147 0.4386,-0.4147 0.4384,-0.4148 0.4434,-0.4276 0.4385,-0.4277 0.4385,-0.4148 0.4385,-0.4147 0.4385,-0.4276 0.4385,-0.4147 0.4385,-0.4277 0.4385,-0.4148 0.4336,-0.4276 0.4385,-0.4277 0.4385,-0.4147 0.4385,-0.4277 0.4385,-0.4277 0.4385,-0.4147 0.4385,-0.4277 0.4434,-0.4277 0.4385,-0.4277 0.4385,-0.4277 0.4385,-0.4276 0.4385,-0.4277 0.4385,-0.4277 0.4385,-0.4147 0.4385,-0.4277 0.4336,-0.4277 0.4385,-0.4406 0.4385,-0.4277 0.4385,-0.4277 0.4385,-0.4276 0.4386,-0.4277 0.4384,-0.4277 0.4434,-0.4406 0.4385,-0.4277 0.4385,-0.4277 0.4385,-0.4406 0.4385,-0.4277 0.4385,-0.4277 0.4385,-0.4406 0.4385,-0.4277 0.4336,-0.4407 0.4385,-0.4276 0.4385,-0.4407 0.4385,-0.4277 0.4385,-0.4406 0.4385,-0.4277 0.4385,-0.4406 0.4434,-0.4406 0.4385,-0.4407 0.4385,-0.4406 0.4385,-0.4277 0.4385,-0.4406 0.4385,-0.4407 0.4385,-0.4407 0.4385,-0.4406 0.4336,-0.4406 0.4385,-0.4277 0.4385,-0.4406 0.4385,-0.4407 0.4385,-0.4406 0.4386,-0.4407 0.4384,-0.4406 0.4434,-0.4536 0.4385,-0.4407 0.4385,-0.4406 0.4385,-0.4406 0.4385,-0.4536 0.4385,-0.4407 0.4385,-0.4406 0.4385,-0.4406 0.4336,-0.4536 0.4385,-0.4407 0.4385,-0.4536 0.4385,-0.4406 0.4385,-0.4407 0.4385,-0.4536 0.4385,-0.4406 0.4434,-0.4536 0.4385,-0.4536 0.4385,-0.4407 0.4385,-0.4536 0.4385,-0.4535 0.4385,-0.4407 0.4385,-0.4536 0.4385,-0.4536 0.4336,-0.4536 0.4386,-0.4406 0.4384,-0.4536 0.4385,-0.4536 0.4385,-0.4536 0.4385,-0.4536 0.4386,-0.4536 0.4433,-0.4536 0.4385,-0.4536 0.4385,-0.4536 0.4385,-0.4536 0.4385,-0.4536 0.4385,-0.4536 0.4385,-0.4536 0.4385,-0.4536 0.4336,-0.4666 0.4385,-0.4536 0.4385,-0.4536 0.4385,-0.4536 0.4385,-0.4536 0.4385,-0.4666 0.4385,-0.4535 0.4434,-0.4666 0.4385,-0.4536 0.4385,-0.4666 0.4385,-0.4536 0.4385,-0.4665 0.4385,-0.4536 0.4385,-0.4666 0.4385,-0.4536 0.4336,-0.4665 0.4385,-0.4536 0.4385,-0.4666 0.4385,-0.4666 0.4385,-0.4535 0.4385,-0.4666 0.4385,-0.4666 0.4434,-0.4665 0.4385,-0.4666 0.4385,-0.4666 0.4385,-0.4665 0.4385,-0.4536 0.4385,-0.4666 0.4385,-0.4665 0.4385,-0.4666 0.4337,-0.4666 0.4384,-0.4665 0.4385,-0.4666 0.4385,-0.4666 0.4385,-0.4665 0.4385,-0.4795 0.4385,-0.4666 0.4434,-0.4665 0.4385,-0.4666 0.4385,-0.4795 0.4385,-0.4666 0.4385,-0.4666 0.4385,-0.4795 0.4385,-0.4665 0.4385,-0.4666 0.4336,-0.4795 0.4385,-0.4665 0.4385,-0.4796 0.4385,-0.4665 0.4385,-0.4795 0.4385,-0.4666 0.4386,-0.4795 0.4433,-0.4796 0.4385,-0.4665 0.4385,-0.4795 0.4385,-0.4666 0.4385,-0.4795 0.4385,-0.4796 0.4385,-0.4795 0.4385,-0.4665 0.4336,-0.4795 0.4385,-0.4795 0.4385,-0.4796 0.4385,-0.4795 0.4385,-0.4795 0.4385,-0.4666 0.4385,-0.4795 0.4434,-0.4925 0.4385,-0.4795 0.4385,-0.4795 0.4385,-0.4795 0.4385,-0.4796 0.4385,-0.4795 0.4385,-0.4795 0.4385,-0.4795 0.877,-0.972"
       style="fill:none;fill-rule:evenodd;stroke:#d95319"
       id="path1006"
       inkscape:connector-curvature="0" />
  </g>
  <g
     style="color-interpolation:sRGB;fill:#ffffff;stroke:#ffffff;color-rendering:optimizeSpeed;image-rendering:optimizeSpeed;shape-rendering:crispEdges;text-rendering:optimizeSpeed"
     id="g1012">
    <path
       style="stroke:none"
       d="M 187.5,80.5 V 38 h -106 v 42.5 z"
       id="path1010"
       inkscape:connector-curvature="0" />
  </g>
  <g
     transform="translate(118.5,49.5)"
     style="font-size:16px;font-family:'Helvetica Neue';color-interpolation:linearRGB;color-rendering:optimizeQuality;image-rendering:optimizeQuality;text-rendering:geometricPrecision"
     id="g1016">
    <path
       style="stroke:none"
       d="M 5.728,-5.424 V 6 h 1.44 V -3.504 H 7.2 L 10.768,6 h 1.296 l 3.568,-9.504 h 0.032 V 6 h 1.44 V -5.424 h -2.08 l -3.616,9.6 -3.6,-9.6 z m 13.968,0 V 6 h 1.52 V -5.424 Z m 6.672,1.28 V 6 h 1.52 V -4.144 h 3.808 v -1.28 H 22.56 v 1.28 z m 6.592,-1.28 V 6 h 1.52 V 0.768 h 6.016 V 6 h 1.52 V -5.424 h -1.52 v 4.912 H 34.48 v -4.912 z m 11.552,0 V 6 h 1.52 V 1.12 h 3.712 q 0.56,0 0.896,0.168 0.336,0.168 0.544,0.448 0.208,0.28 0.304,0.656 0.096,0.376 0.16,0.792 0.08,0.416 0.096,0.848 0.016,0.432 0.032,0.808 0.016,0.376 0.072,0.68 0.056,0.304 0.216,0.48 H 53.76 Q 53.52,5.712 53.4,5.336 53.28,4.96 53.216,4.544 53.152,4.128 53.136,3.696 53.12,3.264 53.088,2.848 53.04,2.432 52.952,2.048 52.864,1.664 52.68,1.352 52.496,1.04 52.184,0.816 51.872,0.592 51.376,0.496 V 0.464 q 1.04,-0.288 1.512,-1.072 0.472,-0.784 0.472,-1.824 0,-1.392 -0.92,-2.192 -0.92,-0.8 -2.552,-0.8 z M 49.2,-0.16 h -3.168 v -3.984 h 3.776 q 1.072,0 1.552,0.544 0.48,0.544 0.48,1.408 0,0.624 -0.216,1.016 -0.216,0.392 -0.576,0.624 -0.36,0.232 -0.84,0.312 -0.48,0.08 -1.008,0.08 z m 8.24,1.44 1.936,-5.328 h 0.032 L 61.312,1.28 Z M 58.576,-5.424 54.128,6 h 1.552 l 1.28,-3.44 h 4.832 L 63.04,6 h 1.68 L 60.256,-5.424 Z"
       id="path1014"
       inkscape:connector-curvature="0" />
  </g>
  <g
     style="color-interpolation:linearRGB;fill:#0072bd;stroke:#0072bd;stroke-width:3;stroke-linecap:butt;stroke-linejoin:round;color-rendering:optimizeQuality;image-rendering:optimizeQuality;text-rendering:geometricPrecision"
     id="g1020">
    <line
       y2="49.5"
       style="fill:none"
       x1="85.5"
       x2="115.5"
       y1="49.5"
       id="line1018" />
  </g>
  <g
     transform="translate(118.5,69)"
     style="font-size:16px;font-family:'Helvetica Neue';color-interpolation:linearRGB;color-rendering:optimizeQuality;image-rendering:optimizeQuality;text-rendering:geometricPrecision"
     id="g1024">
    <path
       style="stroke:none"
       d="M 7.664,1.28 9.6,-4.048 H 9.632 L 11.536,1.28 Z M 8.8,-5.424 4.352,6 h 1.552 l 1.28,-3.44 h 4.832 L 13.264,6 h 1.68 L 10.48,-5.424 Z m 13.872,3.344 h 1.44 q -0.032,-0.944 -0.36,-1.624 -0.328,-0.68 -0.896,-1.128 -0.568,-0.448 -1.32,-0.656 -0.752,-0.208 -1.632,-0.208 -0.784,0 -1.528,0.2 -0.744,0.2 -1.328,0.608 -0.584,0.408 -0.936,1.04 -0.352,0.632 -0.352,1.496 0,0.784 0.312,1.304 0.312,0.52 0.832,0.848 0.52,0.328 1.176,0.528 0.656,0.2 1.336,0.352 0.68,0.152 1.336,0.296 0.656,0.144 1.176,0.376 0.52,0.232 0.832,0.6 0.312,0.368 0.312,0.96 0,0.624 -0.256,1.024 -0.256,0.4 -0.672,0.632 -0.416,0.232 -0.936,0.328 -0.52,0.096 -1.032,0.096 -0.64,0 -1.248,-0.16 Q 18.32,4.672 17.864,4.336 17.408,4 17.128,3.48 16.848,2.96 16.848,2.24 h -1.44 q 0,1.04 0.376,1.8 0.376,0.76 1.024,1.248 0.648,0.488 1.504,0.728 0.856,0.24 1.816,0.24 0.784,0 1.576,-0.184 0.792,-0.184 1.432,-0.592 0.64,-0.408 1.048,-1.056 0.408,-0.648 0.408,-1.56 0,-0.848 -0.312,-1.408 -0.312,-0.56 -0.832,-0.928 -0.52,-0.368 -1.176,-0.584 -0.656,-0.216 -1.336,-0.376 -0.68,-0.16 -1.336,-0.296 -0.656,-0.136 -1.176,-0.344 -0.52,-0.208 -0.832,-0.536 -0.312,-0.328 -0.312,-0.856 0,-0.56 0.216,-0.936 0.216,-0.376 0.576,-0.6 0.36,-0.224 0.824,-0.32 0.464,-0.096 0.944,-0.096 1.184,0 1.944,0.552 0.76,0.552 0.888,1.784 z m 6.352,-2.064 V 6 h 1.52 V -4.144 h 3.808 v -1.28 h -9.136 v 1.28 z m 6.592,-1.28 V 6 h 1.52 V 1.12 h 3.712 q 0.56,0 0.896,0.168 0.336,0.168 0.544,0.448 0.208,0.28 0.304,0.656 0.096,0.376 0.16,0.792 0.08,0.416 0.096,0.848 0.016,0.432 0.032,0.808 0.016,0.376 0.072,0.68 0.056,0.304 0.216,0.48 h 1.696 Q 44.624,5.712 44.504,5.336 44.384,4.96 44.32,4.544 44.256,4.128 44.24,3.696 44.224,3.264 44.192,2.848 44.144,2.432 44.056,2.048 43.968,1.664 43.784,1.352 43.6,1.04 43.288,0.816 42.976,0.592 42.48,0.496 V 0.464 q 1.04,-0.288 1.512,-1.072 0.472,-0.784 0.472,-1.824 0,-1.392 -0.92,-2.192 -0.92,-0.8 -2.552,-0.8 z m 4.688,5.264 h -3.168 v -3.984 h 3.776 q 1.072,0 1.552,0.544 0.48,0.544 0.48,1.408 0,0.624 -0.216,1.016 -0.216,0.392 -0.576,0.624 -0.36,0.232 -0.84,0.312 -0.48,0.08 -1.008,0.08 z m 8.24,1.44 1.936,-5.328 h 0.032 L 52.416,1.28 Z M 49.68,-5.424 45.232,6 h 1.552 l 1.28,-3.44 h 4.832 L 54.144,6 h 1.68 L 51.36,-5.424 Z"
       id="path1022"
       inkscape:connector-curvature="0" />
  </g>
  <g
     style="color-interpolation:linearRGB;fill:#d95319;stroke:#d95319;stroke-width:3;stroke-linecap:butt;stroke-linejoin:round;color-rendering:optimizeQuality;image-rendering:optimizeQuality;text-rendering:geometricPrecision"
     id="g1028">
    <line
       y2="69"
       style="fill:none"
       x1="85.5"
       x2="115.5"
       y1="69"
       id="line1026" />
  </g>
  <g
     style="color-interpolation:linearRGB;fill:#262626;stroke:#262626;stroke-width:0.5;stroke-linecap:butt;color-rendering:optimizeQuality;image-rendering:optimizeQuality;text-rendering:geometricPrecision"
     id="g1032">
    <path
       d="M 81.5,80.5 V 38 h 106 v 42.5 z"
       style="fill:none;fill-rule:evenodd"
       id="path1030"
       inkscape:connector-curvature="0" />
  </g>
</svg>
